M48
; DRILL file {KiCad (6.0.7-1)-1} date Tuesday, August 23, 2022 at 12:40:28 PM
; FORMAT={-:-/ absolute / metric / decimal}
; #@! TF.CreationDate,2022-08-23T12:40:28-05:00
; #@! TF.GenerationSoftware,Kicad,Pcbnew,(6.0.7-1)-1
; #@! TF.FileFunction,Plated,1,4,PTH
FMAT,2
METRIC
; #@! TA.AperFunction,Plated,PTH,ViaDrill
T1C0.400
; #@! TA.AperFunction,Plated,PTH,ComponentDrill
T2C0.800
; #@! TA.AperFunction,Plated,PTH,ComponentDrill
T3C1.000
; #@! TA.AperFunction,Plated,PTH,ComponentDrill
T4C1.200
; #@! TA.AperFunction,Plated,PTH,ComponentDrill
T5C1.500
%
G90
G05
T1
X169.75Y-203.25
X170.75Y-170.5
X175.25Y-203.25
X178.5Y-152.0
X178.5Y-153.25
X178.5Y-154.5
X178.5Y-159.0
X178.5Y-160.25
X178.5Y-161.5
X178.75Y-170.5
X179.75Y-152.0
X179.75Y-161.5
X181.25Y-152.0
X181.25Y-161.5
X182.5Y-152.0
X182.5Y-153.25
X182.5Y-154.5
X182.5Y-159.0
X182.5Y-160.25
X182.5Y-161.5
X183.25Y-89.25
X183.25Y-90.5
X183.25Y-92.0
X183.25Y-93.25
X183.75Y-210.25
X184.5Y-89.25
X184.5Y-93.25
X185.75Y-89.25
X185.75Y-93.25
X187.0Y-203.25
X188.75Y-210.25
X190.25Y-89.25
X190.25Y-93.25
X191.5Y-89.25
X191.5Y-93.25
X192.0Y-203.25
X192.75Y-89.25
X192.75Y-90.5
X192.75Y-92.0
X192.75Y-93.25
X193.75Y-210.25
X195.25Y-89.25
X195.25Y-90.5
X195.25Y-92.0
X195.25Y-93.25
X196.5Y-89.25
X196.5Y-93.25
X197.0Y-198.5
X197.75Y-89.25
X197.75Y-93.25
X198.75Y-210.25
X200.0Y-170.25
X202.0Y-198.25
X202.25Y-89.25
X202.25Y-93.25
X203.5Y-89.25
X203.5Y-93.25
X203.75Y-210.25
X204.75Y-89.25
X204.75Y-90.5
X204.75Y-92.0
X204.75Y-93.25
X206.5Y-122.25
X206.5Y-124.0
X207.0Y-95.25
X207.0Y-96.5
X207.0Y-97.75
X207.25Y-103.75
X207.25Y-106.0
X207.75Y-152.25
X207.75Y-155.25
X208.0Y-122.25
X208.25Y-95.25
X209.0Y-106.0
X209.25Y-152.25
X209.25Y-153.75
X209.25Y-155.25
X209.5Y-122.25
X209.75Y-95.25
X210.75Y-103.75
X210.75Y-106.0
X211.0Y-95.25
X211.0Y-96.5
X211.0Y-97.75
X211.0Y-122.25
X212.5Y-104.25
X212.5Y-105.5
X212.5Y-106.75
X212.5Y-122.25
X212.5Y-124.0
X213.4Y-99.5
X213.5Y-170.25
X213.662Y-163.0
X213.662Y-165.5
X213.75Y-104.25
X213.75Y-105.5
X213.75Y-106.75
X214.4Y-99.5
X215.0Y-104.25
X215.0Y-105.5
X215.0Y-106.75
X216.25Y-104.25
X216.25Y-105.5
X216.25Y-106.75
X217.5Y-104.25
X217.5Y-105.5
X217.5Y-106.75
X218.75Y-104.25
X218.75Y-105.5
X218.75Y-106.75
T2
X194.725Y-182.205
X194.725Y-189.825
X197.265Y-182.205
X197.265Y-189.825
X201.975Y-182.205
X201.975Y-189.825
X204.515Y-182.205
X204.515Y-189.825
T3
X163.0Y-84.06
X163.0Y-86.6
X163.0Y-99.3
X163.0Y-101.84
X163.0Y-104.38
X163.0Y-106.92
X163.0Y-112.0
X163.0Y-114.54
X163.0Y-117.08
X163.0Y-119.62
X163.0Y-122.16
X163.0Y-124.7
X163.0Y-127.24
X163.0Y-129.78
X163.0Y-132.32
X163.0Y-134.86
X163.0Y-137.4
X163.0Y-139.94
X163.0Y-142.48
X163.0Y-145.02
X163.0Y-147.56
X163.0Y-150.1
X163.0Y-152.64
X163.0Y-155.18
X163.0Y-157.72
X163.0Y-160.26
X163.0Y-162.8
X163.0Y-165.34
X163.0Y-167.88
X163.0Y-170.42
X163.0Y-172.96
X163.0Y-175.5
X163.0Y-178.04
X163.0Y-180.58
X163.0Y-183.12
X163.0Y-185.66
X163.0Y-188.2
X163.0Y-190.74
X163.0Y-193.28
X163.0Y-195.82
X163.0Y-198.36
X163.0Y-200.9
X165.54Y-99.3
X165.54Y-101.84
X165.54Y-104.38
X165.54Y-106.92
X165.54Y-112.0
X165.54Y-114.54
X165.54Y-117.08
X165.54Y-119.62
X165.54Y-122.16
X165.54Y-124.7
X165.54Y-127.24
X165.54Y-129.78
X165.54Y-132.32
X165.54Y-134.86
X165.54Y-137.4
X165.54Y-139.94
X165.54Y-142.48
X165.54Y-145.02
X165.54Y-147.56
X165.54Y-150.1
X165.54Y-152.64
X165.54Y-155.18
X165.54Y-157.72
X165.54Y-160.26
X165.54Y-162.8
X165.54Y-165.34
X165.54Y-167.88
X165.54Y-170.42
X165.54Y-172.96
X165.54Y-175.5
X165.54Y-178.04
X165.54Y-180.58
X165.54Y-183.12
X165.54Y-185.66
X165.54Y-188.2
X165.54Y-190.74
X165.54Y-193.28
X165.54Y-195.82
X165.54Y-198.36
X165.54Y-200.9
X188.602Y-153.817
X191.142Y-153.817
X193.683Y-153.817
X223.96Y-112.0
X223.96Y-114.54
X223.96Y-117.08
X223.96Y-119.62
X223.96Y-122.16
X223.96Y-124.7
X223.96Y-127.24
X223.96Y-129.78
X223.96Y-132.32
X223.96Y-134.86
X223.96Y-137.4
X223.96Y-139.94
X223.96Y-142.48
X223.96Y-145.02
X223.96Y-147.56
X223.96Y-150.1
X223.96Y-152.64
X223.96Y-155.18
X223.96Y-157.72
X223.96Y-160.26
X223.96Y-162.8
X223.96Y-165.34
X223.96Y-167.88
X223.96Y-170.42
X223.96Y-172.96
X223.96Y-175.5
X223.96Y-178.04
X223.96Y-180.58
X223.96Y-183.12
X223.96Y-185.66
X223.96Y-188.2
X223.96Y-190.74
X223.96Y-193.28
X223.96Y-195.82
X223.96Y-198.36
X223.96Y-200.9
X224.0Y-99.3
X224.0Y-101.84
X224.0Y-104.38
X224.0Y-106.92
X226.5Y-84.06
X226.5Y-86.6
X226.5Y-112.0
X226.5Y-114.54
X226.5Y-117.08
X226.5Y-119.62
X226.5Y-122.16
X226.5Y-124.7
X226.5Y-127.24
X226.5Y-129.78
X226.5Y-132.32
X226.5Y-134.86
X226.5Y-137.4
X226.5Y-139.94
X226.5Y-142.48
X226.5Y-145.02
X226.5Y-147.56
X226.5Y-150.1
X226.5Y-152.64
X226.5Y-155.18
X226.5Y-157.72
X226.5Y-160.26
X226.5Y-162.8
X226.5Y-165.34
X226.5Y-167.88
X226.5Y-170.42
X226.5Y-172.96
X226.5Y-175.5
X226.5Y-178.04
X226.5Y-180.58
X226.5Y-183.12
X226.5Y-185.66
X226.5Y-188.2
X226.5Y-190.74
X226.5Y-193.28
X226.5Y-195.82
X226.5Y-198.36
X226.5Y-200.9
X226.54Y-99.3
X226.54Y-101.84
X226.54Y-104.38
X226.54Y-106.92
T4
X215.195Y-88.432
X218.695Y-88.432
T5
X182.84Y-112.215
X190.46Y-132.535
X193.0Y-112.215
X195.54Y-132.535
X203.16Y-112.215
T0
M30
