%TF.GenerationSoftware,KiCad,Pcbnew,(6.0.7-1)-1*%
%TF.CreationDate,2022-08-23T12:38:48-05:00*%
%TF.ProjectId,NR1B-Power,4e523142-2d50-46f7-9765-722e6b696361,rev?*%
%TF.SameCoordinates,Original*%
%TF.FileFunction,Soldermask,Top*%
%TF.FilePolarity,Negative*%
%FSLAX46Y46*%
G04 Gerber Fmt 4.6, Leading zero omitted, Abs format (unit mm)*
G04 Created by KiCad (PCBNEW (6.0.7-1)-1) date 2022-08-23 12:38:48*
%MOMM*%
%LPD*%
G01*
G04 APERTURE LIST*
G04 Aperture macros list*
%AMRoundRect*
0 Rectangle with rounded corners*
0 $1 Rounding radius*
0 $2 $3 $4 $5 $6 $7 $8 $9 X,Y pos of 4 corners*
0 Add a 4 corners polygon primitive as box body*
4,1,4,$2,$3,$4,$5,$6,$7,$8,$9,$2,$3,0*
0 Add four circle primitives for the rounded corners*
1,1,$1+$1,$2,$3*
1,1,$1+$1,$4,$5*
1,1,$1+$1,$6,$7*
1,1,$1+$1,$8,$9*
0 Add four rect primitives between the rounded corners*
20,1,$1+$1,$2,$3,$4,$5,0*
20,1,$1+$1,$4,$5,$6,$7,0*
20,1,$1+$1,$6,$7,$8,$9,0*
20,1,$1+$1,$8,$9,$2,$3,0*%
G04 Aperture macros list end*
%ADD10RoundRect,0.300800X0.250000X0.475000X-0.250000X0.475000X-0.250000X-0.475000X0.250000X-0.475000X0*%
%ADD11RoundRect,0.050800X-0.850000X-0.850000X0.850000X-0.850000X0.850000X0.850000X-0.850000X0.850000X0*%
%ADD12O,1.801600X1.801600*%
%ADD13RoundRect,0.050800X0.800000X-1.200000X0.800000X1.200000X-0.800000X1.200000X-0.800000X-1.200000X0*%
%ADD14O,1.701600X2.501600*%
%ADD15C,3.101600*%
%ADD16C,1.801600*%
%ADD17RoundRect,0.294550X0.456250X-0.243750X0.456250X0.243750X-0.456250X0.243750X-0.456250X-0.243750X0*%
%ADD18RoundRect,0.294550X-0.456250X0.243750X-0.456250X-0.243750X0.456250X-0.243750X0.456250X0.243750X0*%
%ADD19RoundRect,0.300800X-0.450000X0.262500X-0.450000X-0.262500X0.450000X-0.262500X0.450000X0.262500X0*%
%ADD20RoundRect,0.300800X1.250000X0.550000X-1.250000X0.550000X-1.250000X-0.550000X1.250000X-0.550000X0*%
%ADD21RoundRect,0.269550X0.218750X0.381250X-0.218750X0.381250X-0.218750X-0.381250X0.218750X-0.381250X0*%
%ADD22RoundRect,0.300800X0.712500X2.475000X-0.712500X2.475000X-0.712500X-2.475000X0.712500X-2.475000X0*%
%ADD23RoundRect,0.300800X0.450000X-0.262500X0.450000X0.262500X-0.450000X0.262500X-0.450000X-0.262500X0*%
%ADD24RoundRect,0.300800X-1.450000X0.312500X-1.450000X-0.312500X1.450000X-0.312500X1.450000X0.312500X0*%
%ADD25RoundRect,0.300800X0.375000X0.625000X-0.375000X0.625000X-0.375000X-0.625000X0.375000X-0.625000X0*%
%ADD26C,1.000000*%
%ADD27RoundRect,0.300800X-0.550000X1.250000X-0.550000X-1.250000X0.550000X-1.250000X0.550000X1.250000X0*%
%ADD28RoundRect,0.050800X0.750000X1.250000X-0.750000X1.250000X-0.750000X-1.250000X0.750000X-1.250000X0*%
%ADD29O,1.601600X2.601600*%
%ADD30RoundRect,0.300800X-0.250000X-0.475000X0.250000X-0.475000X0.250000X0.475000X-0.250000X0.475000X0*%
%ADD31RoundRect,0.050800X-1.250000X3.000000X-1.250000X-3.000000X1.250000X-3.000000X1.250000X3.000000X0*%
%ADD32O,2.601600X6.101600*%
%ADD33RoundRect,0.300800X0.650000X1.550000X-0.650000X1.550000X-0.650000X-1.550000X0.650000X-1.550000X0*%
%ADD34O,1.901600X3.701600*%
%ADD35RoundRect,0.300800X0.550000X-1.500000X0.550000X1.500000X-0.550000X1.500000X-0.550000X-1.500000X0*%
%ADD36RoundRect,0.050800X-1.250000X-0.900000X1.250000X-0.900000X1.250000X0.900000X-1.250000X0.900000X0*%
%ADD37RoundRect,0.300800X0.262500X0.450000X-0.262500X0.450000X-0.262500X-0.450000X0.262500X-0.450000X0*%
%ADD38RoundRect,0.300800X-0.262500X-0.450000X0.262500X-0.450000X0.262500X0.450000X-0.262500X0.450000X0*%
%ADD39RoundRect,0.050800X0.225000X-0.300000X0.225000X0.300000X-0.225000X0.300000X-0.225000X-0.300000X0*%
G04 APERTURE END LIST*
D10*
%TO.C,C5*%
X217200000Y-163000000D03*
X215300000Y-163000000D03*
%TD*%
D11*
%TO.C,J2*%
X163000000Y-99300000D03*
D12*
X165540000Y-99300000D03*
X163000000Y-101840000D03*
X165540000Y-101840000D03*
X163000000Y-104380000D03*
X165540000Y-104380000D03*
X163000000Y-106920000D03*
X165540000Y-106920000D03*
%TD*%
D13*
%TO.C,U4*%
X194725000Y-189825000D03*
D14*
X197265000Y-189825000D03*
X197265000Y-182205000D03*
X194725000Y-182205000D03*
%TD*%
D15*
%TO.C,X1*%
X218900000Y-109500000D03*
X217600000Y-184400000D03*
X171890000Y-184390000D03*
X170620000Y-108190000D03*
D16*
X163000000Y-112000000D03*
X165540000Y-112000000D03*
X163000000Y-114540000D03*
X165540000Y-114540000D03*
X163000000Y-117080000D03*
X165540000Y-117080000D03*
X163000000Y-119620000D03*
X165540000Y-119620000D03*
X163000000Y-122160000D03*
X165540000Y-122160000D03*
X163000000Y-124700000D03*
X165540000Y-124700000D03*
X163000000Y-127240000D03*
X165540000Y-127240000D03*
X163000000Y-129780000D03*
X165540000Y-129780000D03*
X163000000Y-132320000D03*
X165540000Y-132320000D03*
X163000000Y-134860000D03*
X165540000Y-134860000D03*
X163000000Y-137400000D03*
X165540000Y-137400000D03*
X163000000Y-139940000D03*
X165540000Y-139940000D03*
X163000000Y-142480000D03*
X165540000Y-142480000D03*
X163000000Y-145020000D03*
X165540000Y-145020000D03*
X163000000Y-147560000D03*
X165540000Y-147560000D03*
X163000000Y-150100000D03*
X165540000Y-150100000D03*
X163000000Y-152640000D03*
X165540000Y-152640000D03*
X163000000Y-155180000D03*
X165540000Y-155180000D03*
X163000000Y-157720000D03*
X165540000Y-157720000D03*
X163000000Y-160260000D03*
X165540000Y-160260000D03*
X163000000Y-162800000D03*
X165540000Y-162800000D03*
X163000000Y-165340000D03*
X165540000Y-165340000D03*
X163000000Y-167880000D03*
X165540000Y-167880000D03*
X163000000Y-170420000D03*
X165540000Y-170420000D03*
X163000000Y-172960000D03*
X165540000Y-172960000D03*
X163000000Y-175500000D03*
X165540000Y-175500000D03*
X163000000Y-178040000D03*
X165540000Y-178040000D03*
X163000000Y-180580000D03*
X165540000Y-180580000D03*
X163000000Y-183120000D03*
X165540000Y-183120000D03*
X163000000Y-185660000D03*
X165540000Y-185660000D03*
X163000000Y-188200000D03*
X165540000Y-188200000D03*
X163000000Y-190740000D03*
X165540000Y-190740000D03*
X163000000Y-193280000D03*
X165540000Y-193280000D03*
X163000000Y-195820000D03*
X165540000Y-195820000D03*
X163000000Y-198360000D03*
X165540000Y-198360000D03*
X163000000Y-200900000D03*
X165540000Y-200900000D03*
X223960000Y-112000000D03*
X226500000Y-112000000D03*
X223960000Y-114540000D03*
X226500000Y-114540000D03*
X223960000Y-117080000D03*
X226500000Y-117080000D03*
X223960000Y-119620000D03*
X226500000Y-119620000D03*
X223960000Y-122160000D03*
X226500000Y-122160000D03*
X223960000Y-124700000D03*
X226500000Y-124700000D03*
X223960000Y-127240000D03*
X226500000Y-127240000D03*
X223960000Y-129780000D03*
X226500000Y-129780000D03*
X223960000Y-132320000D03*
X226500000Y-132320000D03*
X223960000Y-134860000D03*
X226500000Y-134860000D03*
X223960000Y-137400000D03*
X226500000Y-137400000D03*
X223960000Y-139940000D03*
X226500000Y-139940000D03*
X223960000Y-142480000D03*
X226500000Y-142480000D03*
X223960000Y-145020000D03*
X226500000Y-145020000D03*
X223960000Y-147560000D03*
X226500000Y-147560000D03*
X223960000Y-150100000D03*
X226500000Y-150100000D03*
X223960000Y-152640000D03*
X226500000Y-152640000D03*
X223960000Y-155180000D03*
X226500000Y-155180000D03*
X223960000Y-157720000D03*
X226500000Y-157720000D03*
X223960000Y-160260000D03*
X226500000Y-160260000D03*
X223960000Y-162800000D03*
X226500000Y-162800000D03*
X223960000Y-165340000D03*
X226500000Y-165340000D03*
X223960000Y-167880000D03*
X226500000Y-167880000D03*
X223960000Y-170420000D03*
X226500000Y-170420000D03*
X223960000Y-172960000D03*
X226500000Y-172960000D03*
X223960000Y-175500000D03*
X226500000Y-175500000D03*
X223960000Y-178040000D03*
X226500000Y-178040000D03*
X223960000Y-180580000D03*
X226500000Y-180580000D03*
X223960000Y-183120000D03*
X226500000Y-183120000D03*
X223960000Y-185660000D03*
X226500000Y-185660000D03*
X223960000Y-188200000D03*
X226500000Y-188200000D03*
X223960000Y-190740000D03*
X226500000Y-190740000D03*
X223960000Y-193280000D03*
X226500000Y-193280000D03*
X223960000Y-195820000D03*
X226500000Y-195820000D03*
X223960000Y-198360000D03*
X226500000Y-198360000D03*
X223960000Y-200900000D03*
X226500000Y-200900000D03*
X163000000Y-84060000D03*
X163000000Y-86600000D03*
X226500000Y-84060000D03*
X226500000Y-86600000D03*
%TD*%
D17*
%TO.C,D5*%
X182000000Y-210187500D03*
X182000000Y-208312500D03*
%TD*%
D18*
%TO.C,D3*%
X202000000Y-208312500D03*
X202000000Y-210187500D03*
%TD*%
D19*
%TO.C,R6*%
X197000000Y-194175000D03*
X197000000Y-196000000D03*
%TD*%
%TO.C,R4*%
X202000000Y-200837500D03*
X202000000Y-202662500D03*
%TD*%
D20*
%TO.C,C3*%
X202200000Y-91250000D03*
X197800000Y-91250000D03*
%TD*%
D21*
%TO.C,FB1*%
X208062500Y-153750000D03*
X205937500Y-153750000D03*
%TD*%
D22*
%TO.C,F1*%
X220637500Y-95000000D03*
X213862500Y-95000000D03*
%TD*%
D23*
%TO.C,R12*%
X169750000Y-206412500D03*
X169750000Y-204587500D03*
%TD*%
D19*
%TO.C,R3*%
X202000000Y-204587500D03*
X202000000Y-206412500D03*
%TD*%
D24*
%TO.C,F3*%
X209500000Y-124112500D03*
X209500000Y-128387500D03*
%TD*%
D25*
%TO.C,F2*%
X202900000Y-153750000D03*
X200100000Y-153750000D03*
%TD*%
D26*
%TO.C,FID1*%
X161000000Y-81500000D03*
%TD*%
D17*
%TO.C,D6*%
X187000000Y-210125000D03*
X187000000Y-208250000D03*
%TD*%
D27*
%TO.C,C2*%
X180500000Y-154550000D03*
X180500000Y-158950000D03*
%TD*%
D19*
%TO.C,R9*%
X182000000Y-204587500D03*
X182000000Y-206412500D03*
%TD*%
D28*
%TO.C,U1*%
X193682500Y-153817500D03*
D29*
X191142500Y-153817500D03*
X188602500Y-153817500D03*
%TD*%
D20*
%TO.C,C4*%
X190200000Y-91250000D03*
X185800000Y-91250000D03*
%TD*%
D30*
%TO.C,C6*%
X210000000Y-163000000D03*
X211900000Y-163000000D03*
%TD*%
D17*
%TO.C,D9*%
X192000000Y-210187500D03*
X192000000Y-208312500D03*
%TD*%
D23*
%TO.C,R11*%
X175250000Y-206325000D03*
X175250000Y-204500000D03*
%TD*%
D31*
%TO.C,U2*%
X195540000Y-132535000D03*
D32*
X190460000Y-132535000D03*
X203160000Y-112215000D03*
X193000000Y-112215000D03*
X182840000Y-112215000D03*
%TD*%
D33*
%TO.C,J3*%
X218695000Y-88432500D03*
D34*
X215195000Y-88432500D03*
%TD*%
D19*
%TO.C,R10*%
X187000000Y-204587500D03*
X187000000Y-206412500D03*
%TD*%
%TO.C,R13*%
X192000000Y-204587500D03*
X192000000Y-206412500D03*
%TD*%
D35*
%TO.C,C1*%
X209000000Y-103450000D03*
X209000000Y-98050000D03*
%TD*%
D18*
%TO.C,D8*%
X169750000Y-208312500D03*
X169750000Y-210187500D03*
%TD*%
D19*
%TO.C,R7*%
X197000000Y-204587500D03*
X197000000Y-206412500D03*
%TD*%
D36*
%TO.C,D1*%
X216600000Y-100400000D03*
X220600000Y-100400000D03*
%TD*%
D19*
%TO.C,R8*%
X197000000Y-200837500D03*
X197000000Y-202662500D03*
%TD*%
D18*
%TO.C,D7*%
X175250000Y-208312500D03*
X175250000Y-210187500D03*
%TD*%
D26*
%TO.C,FID2*%
X161000000Y-212500000D03*
%TD*%
D37*
%TO.C,R5*%
X211862500Y-165500000D03*
X210037500Y-165500000D03*
%TD*%
D38*
%TO.C,R1*%
X215337500Y-165500000D03*
X217162500Y-165500000D03*
%TD*%
D11*
%TO.C,J1*%
X224000000Y-99300000D03*
D12*
X226540000Y-99300000D03*
X224000000Y-101840000D03*
X226540000Y-101840000D03*
X224000000Y-104380000D03*
X226540000Y-104380000D03*
X224000000Y-106920000D03*
X226540000Y-106920000D03*
%TD*%
D19*
%TO.C,R2*%
X202000000Y-194175000D03*
X202000000Y-196000000D03*
%TD*%
D26*
%TO.C,FID3*%
X228500000Y-212500000D03*
%TD*%
D17*
%TO.C,D4*%
X197000000Y-210187500D03*
X197000000Y-208312500D03*
%TD*%
D39*
%TO.C,D2*%
X213900000Y-102800000D03*
X213900000Y-100700000D03*
%TD*%
D13*
%TO.C,U3*%
X201975000Y-189825000D03*
D14*
X204515000Y-189825000D03*
X204515000Y-182205000D03*
X201975000Y-182205000D03*
%TD*%
M02*
