%TF.GenerationSoftware,KiCad,Pcbnew,(6.0.7-1)-1*%
%TF.CreationDate,2022-08-23T12:38:48-05:00*%
%TF.ProjectId,NR1B-Power,4e523142-2d50-46f7-9765-722e6b696361,rev?*%
%TF.SameCoordinates,Original*%
%TF.FileFunction,Soldermask,Bot*%
%TF.FilePolarity,Negative*%
%FSLAX46Y46*%
G04 Gerber Fmt 4.6, Leading zero omitted, Abs format (unit mm)*
G04 Created by KiCad (PCBNEW (6.0.7-1)-1) date 2022-08-23 12:38:48*
%MOMM*%
%LPD*%
G01*
G04 APERTURE LIST*
G04 Aperture macros list*
%AMRoundRect*
0 Rectangle with rounded corners*
0 $1 Rounding radius*
0 $2 $3 $4 $5 $6 $7 $8 $9 X,Y pos of 4 corners*
0 Add a 4 corners polygon primitive as box body*
4,1,4,$2,$3,$4,$5,$6,$7,$8,$9,$2,$3,0*
0 Add four circle primitives for the rounded corners*
1,1,$1+$1,$2,$3*
1,1,$1+$1,$4,$5*
1,1,$1+$1,$6,$7*
1,1,$1+$1,$8,$9*
0 Add four rect primitives between the rounded corners*
20,1,$1+$1,$2,$3,$4,$5,0*
20,1,$1+$1,$4,$5,$6,$7,0*
20,1,$1+$1,$6,$7,$8,$9,0*
20,1,$1+$1,$8,$9,$2,$3,0*%
G04 Aperture macros list end*
%ADD10RoundRect,0.050800X-0.850000X-0.850000X0.850000X-0.850000X0.850000X0.850000X-0.850000X0.850000X0*%
%ADD11O,1.801600X1.801600*%
%ADD12RoundRect,0.050800X0.800000X-1.200000X0.800000X1.200000X-0.800000X1.200000X-0.800000X-1.200000X0*%
%ADD13O,1.701600X2.501600*%
%ADD14C,3.101600*%
%ADD15C,1.801600*%
%ADD16RoundRect,0.050800X0.750000X1.250000X-0.750000X1.250000X-0.750000X-1.250000X0.750000X-1.250000X0*%
%ADD17O,1.601600X2.601600*%
%ADD18RoundRect,0.050800X-1.250000X3.000000X-1.250000X-3.000000X1.250000X-3.000000X1.250000X3.000000X0*%
%ADD19O,2.601600X6.101600*%
%ADD20RoundRect,0.300800X0.650000X1.550000X-0.650000X1.550000X-0.650000X-1.550000X0.650000X-1.550000X0*%
%ADD21O,1.901600X3.701600*%
G04 APERTURE END LIST*
D10*
%TO.C,J2*%
X163000000Y-99300000D03*
D11*
X165540000Y-99300000D03*
X163000000Y-101840000D03*
X165540000Y-101840000D03*
X163000000Y-104380000D03*
X165540000Y-104380000D03*
X163000000Y-106920000D03*
X165540000Y-106920000D03*
%TD*%
D12*
%TO.C,U4*%
X194725000Y-189825000D03*
D13*
X197265000Y-189825000D03*
X197265000Y-182205000D03*
X194725000Y-182205000D03*
%TD*%
D14*
%TO.C,X1*%
X218900000Y-109500000D03*
X217600000Y-184400000D03*
X171890000Y-184390000D03*
X170620000Y-108190000D03*
D15*
X163000000Y-112000000D03*
X165540000Y-112000000D03*
X163000000Y-114540000D03*
X165540000Y-114540000D03*
X163000000Y-117080000D03*
X165540000Y-117080000D03*
X163000000Y-119620000D03*
X165540000Y-119620000D03*
X163000000Y-122160000D03*
X165540000Y-122160000D03*
X163000000Y-124700000D03*
X165540000Y-124700000D03*
X163000000Y-127240000D03*
X165540000Y-127240000D03*
X163000000Y-129780000D03*
X165540000Y-129780000D03*
X163000000Y-132320000D03*
X165540000Y-132320000D03*
X163000000Y-134860000D03*
X165540000Y-134860000D03*
X163000000Y-137400000D03*
X165540000Y-137400000D03*
X163000000Y-139940000D03*
X165540000Y-139940000D03*
X163000000Y-142480000D03*
X165540000Y-142480000D03*
X163000000Y-145020000D03*
X165540000Y-145020000D03*
X163000000Y-147560000D03*
X165540000Y-147560000D03*
X163000000Y-150100000D03*
X165540000Y-150100000D03*
X163000000Y-152640000D03*
X165540000Y-152640000D03*
X163000000Y-155180000D03*
X165540000Y-155180000D03*
X163000000Y-157720000D03*
X165540000Y-157720000D03*
X163000000Y-160260000D03*
X165540000Y-160260000D03*
X163000000Y-162800000D03*
X165540000Y-162800000D03*
X163000000Y-165340000D03*
X165540000Y-165340000D03*
X163000000Y-167880000D03*
X165540000Y-167880000D03*
X163000000Y-170420000D03*
X165540000Y-170420000D03*
X163000000Y-172960000D03*
X165540000Y-172960000D03*
X163000000Y-175500000D03*
X165540000Y-175500000D03*
X163000000Y-178040000D03*
X165540000Y-178040000D03*
X163000000Y-180580000D03*
X165540000Y-180580000D03*
X163000000Y-183120000D03*
X165540000Y-183120000D03*
X163000000Y-185660000D03*
X165540000Y-185660000D03*
X163000000Y-188200000D03*
X165540000Y-188200000D03*
X163000000Y-190740000D03*
X165540000Y-190740000D03*
X163000000Y-193280000D03*
X165540000Y-193280000D03*
X163000000Y-195820000D03*
X165540000Y-195820000D03*
X163000000Y-198360000D03*
X165540000Y-198360000D03*
X163000000Y-200900000D03*
X165540000Y-200900000D03*
X223960000Y-112000000D03*
X226500000Y-112000000D03*
X223960000Y-114540000D03*
X226500000Y-114540000D03*
X223960000Y-117080000D03*
X226500000Y-117080000D03*
X223960000Y-119620000D03*
X226500000Y-119620000D03*
X223960000Y-122160000D03*
X226500000Y-122160000D03*
X223960000Y-124700000D03*
X226500000Y-124700000D03*
X223960000Y-127240000D03*
X226500000Y-127240000D03*
X223960000Y-129780000D03*
X226500000Y-129780000D03*
X223960000Y-132320000D03*
X226500000Y-132320000D03*
X223960000Y-134860000D03*
X226500000Y-134860000D03*
X223960000Y-137400000D03*
X226500000Y-137400000D03*
X223960000Y-139940000D03*
X226500000Y-139940000D03*
X223960000Y-142480000D03*
X226500000Y-142480000D03*
X223960000Y-145020000D03*
X226500000Y-145020000D03*
X223960000Y-147560000D03*
X226500000Y-147560000D03*
X223960000Y-150100000D03*
X226500000Y-150100000D03*
X223960000Y-152640000D03*
X226500000Y-152640000D03*
X223960000Y-155180000D03*
X226500000Y-155180000D03*
X223960000Y-157720000D03*
X226500000Y-157720000D03*
X223960000Y-160260000D03*
X226500000Y-160260000D03*
X223960000Y-162800000D03*
X226500000Y-162800000D03*
X223960000Y-165340000D03*
X226500000Y-165340000D03*
X223960000Y-167880000D03*
X226500000Y-167880000D03*
X223960000Y-170420000D03*
X226500000Y-170420000D03*
X223960000Y-172960000D03*
X226500000Y-172960000D03*
X223960000Y-175500000D03*
X226500000Y-175500000D03*
X223960000Y-178040000D03*
X226500000Y-178040000D03*
X223960000Y-180580000D03*
X226500000Y-180580000D03*
X223960000Y-183120000D03*
X226500000Y-183120000D03*
X223960000Y-185660000D03*
X226500000Y-185660000D03*
X223960000Y-188200000D03*
X226500000Y-188200000D03*
X223960000Y-190740000D03*
X226500000Y-190740000D03*
X223960000Y-193280000D03*
X226500000Y-193280000D03*
X223960000Y-195820000D03*
X226500000Y-195820000D03*
X223960000Y-198360000D03*
X226500000Y-198360000D03*
X223960000Y-200900000D03*
X226500000Y-200900000D03*
X163000000Y-84060000D03*
X163000000Y-86600000D03*
X226500000Y-84060000D03*
X226500000Y-86600000D03*
%TD*%
D16*
%TO.C,U1*%
X193682500Y-153817500D03*
D17*
X191142500Y-153817500D03*
X188602500Y-153817500D03*
%TD*%
D18*
%TO.C,U2*%
X195540000Y-132535000D03*
D19*
X190460000Y-132535000D03*
X203160000Y-112215000D03*
X193000000Y-112215000D03*
X182840000Y-112215000D03*
%TD*%
D20*
%TO.C,J3*%
X218695000Y-88432500D03*
D21*
X215195000Y-88432500D03*
%TD*%
D10*
%TO.C,J1*%
X224000000Y-99300000D03*
D11*
X226540000Y-99300000D03*
X224000000Y-101840000D03*
X226540000Y-101840000D03*
X224000000Y-104380000D03*
X226540000Y-104380000D03*
X224000000Y-106920000D03*
X226540000Y-106920000D03*
%TD*%
D12*
%TO.C,U3*%
X201975000Y-189825000D03*
D13*
X204515000Y-189825000D03*
X204515000Y-182205000D03*
X201975000Y-182205000D03*
%TD*%
M02*
