%TF.GenerationSoftware,KiCad,Pcbnew,(6.0.7-1)-1*%
%TF.CreationDate,2022-08-23T12:38:47-05:00*%
%TF.ProjectId,NR1B-Power,4e523142-2d50-46f7-9765-722e6b696361,rev?*%
%TF.SameCoordinates,Original*%
%TF.FileFunction,Paste,Top*%
%TF.FilePolarity,Positive*%
%FSLAX46Y46*%
G04 Gerber Fmt 4.6, Leading zero omitted, Abs format (unit mm)*
G04 Created by KiCad (PCBNEW (6.0.7-1)-1) date 2022-08-23 12:38:47*
%MOMM*%
%LPD*%
G01*
G04 APERTURE LIST*
G04 Aperture macros list*
%AMRoundRect*
0 Rectangle with rounded corners*
0 $1 Rounding radius*
0 $2 $3 $4 $5 $6 $7 $8 $9 X,Y pos of 4 corners*
0 Add a 4 corners polygon primitive as box body*
4,1,4,$2,$3,$4,$5,$6,$7,$8,$9,$2,$3,0*
0 Add four circle primitives for the rounded corners*
1,1,$1+$1,$2,$3*
1,1,$1+$1,$4,$5*
1,1,$1+$1,$6,$7*
1,1,$1+$1,$8,$9*
0 Add four rect primitives between the rounded corners*
20,1,$1+$1,$2,$3,$4,$5,0*
20,1,$1+$1,$4,$5,$6,$7,0*
20,1,$1+$1,$6,$7,$8,$9,0*
20,1,$1+$1,$8,$9,$2,$3,0*%
G04 Aperture macros list end*
%ADD10RoundRect,0.250000X0.250000X0.475000X-0.250000X0.475000X-0.250000X-0.475000X0.250000X-0.475000X0*%
%ADD11RoundRect,0.243750X0.456250X-0.243750X0.456250X0.243750X-0.456250X0.243750X-0.456250X-0.243750X0*%
%ADD12RoundRect,0.243750X-0.456250X0.243750X-0.456250X-0.243750X0.456250X-0.243750X0.456250X0.243750X0*%
%ADD13RoundRect,0.250000X-0.450000X0.262500X-0.450000X-0.262500X0.450000X-0.262500X0.450000X0.262500X0*%
%ADD14RoundRect,0.250000X1.250000X0.550000X-1.250000X0.550000X-1.250000X-0.550000X1.250000X-0.550000X0*%
%ADD15RoundRect,0.218750X0.218750X0.381250X-0.218750X0.381250X-0.218750X-0.381250X0.218750X-0.381250X0*%
%ADD16RoundRect,0.250000X0.712500X2.475000X-0.712500X2.475000X-0.712500X-2.475000X0.712500X-2.475000X0*%
%ADD17RoundRect,0.250000X0.450000X-0.262500X0.450000X0.262500X-0.450000X0.262500X-0.450000X-0.262500X0*%
%ADD18RoundRect,0.250000X-1.450000X0.312500X-1.450000X-0.312500X1.450000X-0.312500X1.450000X0.312500X0*%
%ADD19RoundRect,0.250000X0.375000X0.625000X-0.375000X0.625000X-0.375000X-0.625000X0.375000X-0.625000X0*%
%ADD20RoundRect,0.250000X-0.550000X1.250000X-0.550000X-1.250000X0.550000X-1.250000X0.550000X1.250000X0*%
%ADD21RoundRect,0.250000X-0.250000X-0.475000X0.250000X-0.475000X0.250000X0.475000X-0.250000X0.475000X0*%
%ADD22RoundRect,0.250000X0.550000X-1.500000X0.550000X1.500000X-0.550000X1.500000X-0.550000X-1.500000X0*%
%ADD23R,2.500000X1.800000*%
%ADD24RoundRect,0.250000X0.262500X0.450000X-0.262500X0.450000X-0.262500X-0.450000X0.262500X-0.450000X0*%
%ADD25RoundRect,0.250000X-0.262500X-0.450000X0.262500X-0.450000X0.262500X0.450000X-0.262500X0.450000X0*%
%ADD26R,0.450000X0.600000*%
G04 APERTURE END LIST*
D10*
%TO.C,C5*%
X217200000Y-163000000D03*
X215300000Y-163000000D03*
%TD*%
D11*
%TO.C,D5*%
X182000000Y-210187500D03*
X182000000Y-208312500D03*
%TD*%
D12*
%TO.C,D3*%
X202000000Y-208312500D03*
X202000000Y-210187500D03*
%TD*%
D13*
%TO.C,R6*%
X197000000Y-194175000D03*
X197000000Y-196000000D03*
%TD*%
%TO.C,R4*%
X202000000Y-200837500D03*
X202000000Y-202662500D03*
%TD*%
D14*
%TO.C,C3*%
X202200000Y-91250000D03*
X197800000Y-91250000D03*
%TD*%
D15*
%TO.C,FB1*%
X208062500Y-153750000D03*
X205937500Y-153750000D03*
%TD*%
D16*
%TO.C,F1*%
X220637500Y-95000000D03*
X213862500Y-95000000D03*
%TD*%
D17*
%TO.C,R12*%
X169750000Y-206412500D03*
X169750000Y-204587500D03*
%TD*%
D13*
%TO.C,R3*%
X202000000Y-204587500D03*
X202000000Y-206412500D03*
%TD*%
D18*
%TO.C,F3*%
X209500000Y-124112500D03*
X209500000Y-128387500D03*
%TD*%
D19*
%TO.C,F2*%
X202900000Y-153750000D03*
X200100000Y-153750000D03*
%TD*%
D11*
%TO.C,D6*%
X187000000Y-210125000D03*
X187000000Y-208250000D03*
%TD*%
D20*
%TO.C,C2*%
X180500000Y-154550000D03*
X180500000Y-158950000D03*
%TD*%
D13*
%TO.C,R9*%
X182000000Y-204587500D03*
X182000000Y-206412500D03*
%TD*%
D14*
%TO.C,C4*%
X190200000Y-91250000D03*
X185800000Y-91250000D03*
%TD*%
D21*
%TO.C,C6*%
X210000000Y-163000000D03*
X211900000Y-163000000D03*
%TD*%
D11*
%TO.C,D9*%
X192000000Y-210187500D03*
X192000000Y-208312500D03*
%TD*%
D17*
%TO.C,R11*%
X175250000Y-206325000D03*
X175250000Y-204500000D03*
%TD*%
D13*
%TO.C,R10*%
X187000000Y-204587500D03*
X187000000Y-206412500D03*
%TD*%
%TO.C,R13*%
X192000000Y-204587500D03*
X192000000Y-206412500D03*
%TD*%
D22*
%TO.C,C1*%
X209000000Y-103450000D03*
X209000000Y-98050000D03*
%TD*%
D12*
%TO.C,D8*%
X169750000Y-208312500D03*
X169750000Y-210187500D03*
%TD*%
D13*
%TO.C,R7*%
X197000000Y-204587500D03*
X197000000Y-206412500D03*
%TD*%
D23*
%TO.C,D1*%
X216600000Y-100400000D03*
X220600000Y-100400000D03*
%TD*%
D13*
%TO.C,R8*%
X197000000Y-200837500D03*
X197000000Y-202662500D03*
%TD*%
D12*
%TO.C,D7*%
X175250000Y-208312500D03*
X175250000Y-210187500D03*
%TD*%
D24*
%TO.C,R5*%
X211862500Y-165500000D03*
X210037500Y-165500000D03*
%TD*%
D25*
%TO.C,R1*%
X215337500Y-165500000D03*
X217162500Y-165500000D03*
%TD*%
D13*
%TO.C,R2*%
X202000000Y-194175000D03*
X202000000Y-196000000D03*
%TD*%
D11*
%TO.C,D4*%
X197000000Y-210187500D03*
X197000000Y-208312500D03*
%TD*%
D26*
%TO.C,D2*%
X213900000Y-102800000D03*
X213900000Y-100700000D03*
%TD*%
M02*
