%TF.GenerationSoftware,KiCad,Pcbnew,(6.0.7-1)-1*%
%TF.CreationDate,2022-08-23T12:38:47-05:00*%
%TF.ProjectId,NR1B-Power,4e523142-2d50-46f7-9765-722e6b696361,rev?*%
%TF.SameCoordinates,Original*%
%TF.FileFunction,Copper,L4,Bot*%
%TF.FilePolarity,Positive*%
%FSLAX46Y46*%
G04 Gerber Fmt 4.6, Leading zero omitted, Abs format (unit mm)*
G04 Created by KiCad (PCBNEW (6.0.7-1)-1) date 2022-08-23 12:38:47*
%MOMM*%
%LPD*%
G01*
G04 APERTURE LIST*
G04 Aperture macros list*
%AMRoundRect*
0 Rectangle with rounded corners*
0 $1 Rounding radius*
0 $2 $3 $4 $5 $6 $7 $8 $9 X,Y pos of 4 corners*
0 Add a 4 corners polygon primitive as box body*
4,1,4,$2,$3,$4,$5,$6,$7,$8,$9,$2,$3,0*
0 Add four circle primitives for the rounded corners*
1,1,$1+$1,$2,$3*
1,1,$1+$1,$4,$5*
1,1,$1+$1,$6,$7*
1,1,$1+$1,$8,$9*
0 Add four rect primitives between the rounded corners*
20,1,$1+$1,$2,$3,$4,$5,0*
20,1,$1+$1,$4,$5,$6,$7,0*
20,1,$1+$1,$6,$7,$8,$9,0*
20,1,$1+$1,$8,$9,$2,$3,0*%
G04 Aperture macros list end*
%TA.AperFunction,ComponentPad*%
%ADD10R,1.700000X1.700000*%
%TD*%
%TA.AperFunction,ComponentPad*%
%ADD11O,1.700000X1.700000*%
%TD*%
%TA.AperFunction,ComponentPad*%
%ADD12R,1.600000X2.400000*%
%TD*%
%TA.AperFunction,ComponentPad*%
%ADD13O,1.600000X2.400000*%
%TD*%
%TA.AperFunction,ComponentPad*%
%ADD14C,1.700000*%
%TD*%
%TA.AperFunction,ComponentPad*%
%ADD15R,1.500000X2.500000*%
%TD*%
%TA.AperFunction,ComponentPad*%
%ADD16O,1.500000X2.500000*%
%TD*%
%TA.AperFunction,ComponentPad*%
%ADD17R,2.500000X6.000000*%
%TD*%
%TA.AperFunction,ComponentPad*%
%ADD18O,2.500000X6.000000*%
%TD*%
%TA.AperFunction,ComponentPad*%
%ADD19RoundRect,0.250000X0.650000X1.550000X-0.650000X1.550000X-0.650000X-1.550000X0.650000X-1.550000X0*%
%TD*%
%TA.AperFunction,ComponentPad*%
%ADD20O,1.800000X3.600000*%
%TD*%
%TA.AperFunction,ViaPad*%
%ADD21C,0.800000*%
%TD*%
%TA.AperFunction,Conductor*%
%ADD22C,0.400000*%
%TD*%
G04 APERTURE END LIST*
D10*
%TO.P,J2,1,Pin_1*%
%TO.N,-15V*%
X163000000Y-99300000D03*
D11*
%TO.P,J2,2,Pin_2*%
%TO.N,+15V*%
X165540000Y-99300000D03*
%TO.P,J2,3,Pin_3*%
%TO.N,GND*%
X163000000Y-101840000D03*
%TO.P,J2,4,Pin_4*%
X165540000Y-101840000D03*
%TO.P,J2,5,Pin_5*%
%TO.N,+5V*%
X163000000Y-104380000D03*
%TO.P,J2,6,Pin_6*%
%TO.N,unconnected-(J2-Pad6)*%
X165540000Y-104380000D03*
%TO.P,J2,7,Pin_7*%
%TO.N,GND*%
X163000000Y-106920000D03*
%TO.P,J2,8,Pin_8*%
%TO.N,+24V*%
X165540000Y-106920000D03*
%TD*%
D12*
%TO.P,U4,1*%
%TO.N,Net-(R6-Pad1)*%
X194725000Y-189825000D03*
D13*
%TO.P,U4,2*%
%TO.N,GND*%
X197265000Y-189825000D03*
%TO.P,U4,3*%
X197265000Y-182205000D03*
%TO.P,U4,4*%
%TO.N,/~{+15V_GOOD}*%
X194725000Y-182205000D03*
%TD*%
D14*
%TO.P,X1,1,PC10*%
%TO.N,unconnected-(X1-Pad1)*%
X163000000Y-112000000D03*
%TO.P,X1,2,PC11*%
%TO.N,unconnected-(X1-Pad2)*%
X165540000Y-112000000D03*
%TO.P,X1,3,PC12*%
%TO.N,unconnected-(X1-Pad3)*%
X163000000Y-114540000D03*
%TO.P,X1,4,PD2*%
%TO.N,unconnected-(X1-Pad4)*%
X165540000Y-114540000D03*
%TO.P,X1,5,VDD*%
%TO.N,unconnected-(X1-Pad5)*%
X163000000Y-117080000D03*
%TO.P,X1,6,E5V*%
%TO.N,+5V*%
X165540000Y-117080000D03*
%TO.P,X1,7,~{BOOT0}*%
%TO.N,unconnected-(X1-Pad7)*%
X163000000Y-119620000D03*
%TO.P,X1,8,GND*%
%TO.N,GND*%
X165540000Y-119620000D03*
%TO.P,X1,9,PF6*%
%TO.N,unconnected-(X1-Pad9)*%
X163000000Y-122160000D03*
%TO.P,X1,10,NC*%
%TO.N,unconnected-(X1-Pad10)*%
X165540000Y-122160000D03*
%TO.P,X1,11,PF7*%
%TO.N,unconnected-(X1-Pad11)*%
X163000000Y-124700000D03*
%TO.P,X1,12,IOREF*%
%TO.N,unconnected-(X1-Pad12)*%
X165540000Y-124700000D03*
%TO.P,X1,13,TMS/PA13*%
%TO.N,unconnected-(X1-Pad13)*%
X163000000Y-127240000D03*
%TO.P,X1,14,~{RST}*%
%TO.N,unconnected-(X1-Pad14)*%
X165540000Y-127240000D03*
%TO.P,X1,15,TCK/PA14*%
%TO.N,unconnected-(X1-Pad15)*%
X163000000Y-129780000D03*
%TO.P,X1,16,+3V3*%
%TO.N,VCC*%
X165540000Y-129780000D03*
%TO.P,X1,17,PA15*%
%TO.N,unconnected-(X1-Pad17)*%
X163000000Y-132320000D03*
%TO.P,X1,18,+5V*%
%TO.N,unconnected-(X1-Pad18)*%
X165540000Y-132320000D03*
%TO.P,X1,19,GND*%
%TO.N,GND*%
X163000000Y-134860000D03*
%TO.P,X1,20,GND*%
X165540000Y-134860000D03*
%TO.P,X1,21,LD2/PB7*%
%TO.N,unconnected-(X1-Pad21)*%
X163000000Y-137400000D03*
%TO.P,X1,22,GND*%
%TO.N,GND*%
X165540000Y-137400000D03*
%TO.P,X1,23,BT/PC13*%
%TO.N,unconnected-(X1-Pad23)*%
X163000000Y-139940000D03*
%TO.P,X1,24,VIN*%
%TO.N,unconnected-(X1-Pad24)*%
X165540000Y-139940000D03*
%TO.P,X1,25,RTC_CRYSTAL/PC14*%
%TO.N,unconnected-(X1-Pad25)*%
X163000000Y-142480000D03*
%TO.P,X1,26,NC*%
%TO.N,unconnected-(X1-Pad26)*%
X165540000Y-142480000D03*
%TO.P,X1,27,RTC_CRYSTAL/PC15*%
%TO.N,unconnected-(X1-Pad27)*%
X163000000Y-145020000D03*
%TO.P,X1,28,ETH_REF_CLK/PA0*%
%TO.N,unconnected-(X1-Pad28)*%
X165540000Y-145020000D03*
%TO.P,X1,29,PH0*%
%TO.N,unconnected-(X1-Pad29)*%
X163000000Y-147560000D03*
%TO.P,X1,30,ETH_MDIO/PA1*%
%TO.N,unconnected-(X1-Pad30)*%
X165540000Y-147560000D03*
%TO.P,X1,31,PH1*%
%TO.N,unconnected-(X1-Pad31)*%
X163000000Y-150100000D03*
%TO.P,X1,32,PA4*%
%TO.N,unconnected-(X1-Pad32)*%
X165540000Y-150100000D03*
%TO.P,X1,33,VBAT*%
%TO.N,unconnected-(X1-Pad33)*%
X163000000Y-152640000D03*
%TO.P,X1,34,PB0*%
%TO.N,unconnected-(X1-Pad34)*%
X165540000Y-152640000D03*
%TO.P,X1,35,PC2*%
%TO.N,unconnected-(X1-Pad35)*%
X163000000Y-155180000D03*
%TO.P,X1,36,ETH_MDC/PC1*%
%TO.N,unconnected-(X1-Pad36)*%
X165540000Y-155180000D03*
%TO.P,X1,37,PC3*%
%TO.N,unconnected-(X1-Pad37)*%
X163000000Y-157720000D03*
%TO.P,X1,38,PC0*%
%TO.N,unconnected-(X1-Pad38)*%
X165540000Y-157720000D03*
%TO.P,X1,39,PD4*%
%TO.N,unconnected-(X1-Pad39)*%
X163000000Y-160260000D03*
%TO.P,X1,40,PD3*%
%TO.N,unconnected-(X1-Pad40)*%
X165540000Y-160260000D03*
%TO.P,X1,41,PD5*%
%TO.N,unconnected-(X1-Pad41)*%
X163000000Y-162800000D03*
%TO.P,X1,42,PG2*%
%TO.N,unconnected-(X1-Pad42)*%
X165540000Y-162800000D03*
%TO.P,X1,43,PD6*%
%TO.N,unconnected-(X1-Pad43)*%
X163000000Y-165340000D03*
%TO.P,X1,44,PG3*%
%TO.N,unconnected-(X1-Pad44)*%
X165540000Y-165340000D03*
%TO.P,X1,45,PD7*%
%TO.N,unconnected-(X1-Pad45)*%
X163000000Y-167880000D03*
%TO.P,X1,46,PE2*%
%TO.N,unconnected-(X1-Pad46)*%
X165540000Y-167880000D03*
%TO.P,X1,47,PE3*%
%TO.N,unconnected-(X1-Pad47)*%
X163000000Y-170420000D03*
%TO.P,X1,48,PE4*%
%TO.N,unconnected-(X1-Pad48)*%
X165540000Y-170420000D03*
%TO.P,X1,49,GND*%
%TO.N,GND*%
X163000000Y-172960000D03*
%TO.P,X1,50,PE5*%
%TO.N,unconnected-(X1-Pad50)*%
X165540000Y-172960000D03*
%TO.P,X1,51,PF1*%
%TO.N,unconnected-(X1-Pad51)*%
X163000000Y-175500000D03*
%TO.P,X1,52,PF2*%
%TO.N,unconnected-(X1-Pad52)*%
X165540000Y-175500000D03*
%TO.P,X1,53,PF0*%
%TO.N,unconnected-(X1-Pad53)*%
X163000000Y-178040000D03*
%TO.P,X1,54,PF8*%
%TO.N,unconnected-(X1-Pad54)*%
X165540000Y-178040000D03*
%TO.P,X1,55,PD1*%
%TO.N,unconnected-(X1-Pad55)*%
X163000000Y-180580000D03*
%TO.P,X1,56,PF9*%
%TO.N,unconnected-(X1-Pad56)*%
X165540000Y-180580000D03*
%TO.P,X1,57,PD0*%
%TO.N,unconnected-(X1-Pad57)*%
X163000000Y-183120000D03*
%TO.P,X1,58,PG1*%
%TO.N,unconnected-(X1-Pad58)*%
X165540000Y-183120000D03*
%TO.P,X1,59,PG0*%
%TO.N,unconnected-(X1-Pad59)*%
X163000000Y-185660000D03*
%TO.P,X1,60,GND*%
%TO.N,GND*%
X165540000Y-185660000D03*
%TO.P,X1,61,PE1*%
%TO.N,unconnected-(X1-Pad61)*%
X163000000Y-188200000D03*
%TO.P,X1,62,PE6*%
%TO.N,unconnected-(X1-Pad62)*%
X165540000Y-188200000D03*
%TO.P,X1,63,PG9*%
%TO.N,unconnected-(X1-Pad63)*%
X163000000Y-190740000D03*
%TO.P,X1,64,PG15*%
%TO.N,unconnected-(X1-Pad64)*%
X165540000Y-190740000D03*
%TO.P,X1,65,PG12*%
%TO.N,unconnected-(X1-Pad65)*%
X163000000Y-193280000D03*
%TO.P,X1,66,PG10*%
%TO.N,unconnected-(X1-Pad66)*%
X165540000Y-193280000D03*
%TO.P,X1,67,NC*%
%TO.N,unconnected-(X1-Pad67)*%
X163000000Y-195820000D03*
%TO.P,X1,68,PG13/ETH_TXD0*%
%TO.N,unconnected-(X1-Pad68)*%
X165540000Y-195820000D03*
%TO.P,X1,69,STLINK_RX/PD9*%
%TO.N,unconnected-(X1-Pad69)*%
X163000000Y-198360000D03*
%TO.P,X1,70,PG11/ETH_TX_EN*%
%TO.N,unconnected-(X1-Pad70)*%
X165540000Y-198360000D03*
%TO.P,X1,71,GND*%
%TO.N,GND*%
X163000000Y-200900000D03*
%TO.P,X1,72,GND*%
X165540000Y-200900000D03*
%TO.P,X1,73,PC9*%
%TO.N,unconnected-(X1-Pad73)*%
X223960000Y-112000000D03*
%TO.P,X1,74,PC8*%
%TO.N,unconnected-(X1-Pad74)*%
X226500000Y-112000000D03*
%TO.P,X1,75,PB8*%
%TO.N,unconnected-(X1-Pad75)*%
X223960000Y-114540000D03*
%TO.P,X1,76,PC6*%
%TO.N,unconnected-(X1-Pad76)*%
X226500000Y-114540000D03*
%TO.P,X1,77,PB9*%
%TO.N,unconnected-(X1-Pad77)*%
X223960000Y-117080000D03*
%TO.P,X1,78,ETH_RXD1/PC5*%
%TO.N,unconnected-(X1-Pad78)*%
X226500000Y-117080000D03*
%TO.P,X1,79,AVDD*%
%TO.N,unconnected-(X1-Pad79)*%
X223960000Y-119620000D03*
%TO.P,X1,80,U5V*%
%TO.N,unconnected-(X1-Pad80)*%
X226500000Y-119620000D03*
%TO.P,X1,81,GND*%
%TO.N,GND*%
X223960000Y-122160000D03*
%TO.P,X1,82,STLINK_TX/PD8*%
%TO.N,unconnected-(X1-Pad82)*%
X226500000Y-122160000D03*
%TO.P,X1,83,PA5*%
%TO.N,unconnected-(X1-Pad83)*%
X223960000Y-124700000D03*
%TO.P,X1,84,USB_DP/PA12*%
%TO.N,unconnected-(X1-Pad84)*%
X226500000Y-124700000D03*
%TO.P,X1,85,PA6*%
%TO.N,unconnected-(X1-Pad85)*%
X223960000Y-127240000D03*
%TO.P,X1,86,USB_DM/PA11*%
%TO.N,unconnected-(X1-Pad86)*%
X226500000Y-127240000D03*
%TO.P,X1,87,ETH_CRS_DV/PA7*%
%TO.N,unconnected-(X1-Pad87)*%
X223960000Y-129780000D03*
%TO.P,X1,88,PB12*%
%TO.N,unconnected-(X1-Pad88)*%
X226500000Y-129780000D03*
%TO.P,X1,89,PB6*%
%TO.N,unconnected-(X1-Pad89)*%
X223960000Y-132320000D03*
%TO.P,X1,90,PB11*%
%TO.N,unconnected-(X1-Pad90)*%
X226500000Y-132320000D03*
%TO.P,X1,91,PC7*%
%TO.N,unconnected-(X1-Pad91)*%
X223960000Y-134860000D03*
%TO.P,X1,92,GND*%
%TO.N,GND*%
X226500000Y-134860000D03*
%TO.P,X1,93,USB_VBUS/PA9*%
%TO.N,unconnected-(X1-Pad93)*%
X223960000Y-137400000D03*
%TO.P,X1,94,PB2*%
%TO.N,unconnected-(X1-Pad94)*%
X226500000Y-137400000D03*
%TO.P,X1,95,USB_SOF/PA8*%
%TO.N,unconnected-(X1-Pad95)*%
X223960000Y-139940000D03*
%TO.P,X1,96,PB1*%
%TO.N,unconnected-(X1-Pad96)*%
X226500000Y-139940000D03*
%TO.P,X1,97,PB10*%
%TO.N,unconnected-(X1-Pad97)*%
X223960000Y-142480000D03*
%TO.P,X1,98,PB15*%
%TO.N,unconnected-(X1-Pad98)*%
X226500000Y-142480000D03*
%TO.P,X1,99,PB4*%
%TO.N,unconnected-(X1-Pad99)*%
X223960000Y-145020000D03*
%TO.P,X1,100,LD3/PB14*%
%TO.N,unconnected-(X1-Pad100)*%
X226500000Y-145020000D03*
%TO.P,X1,101,PB5*%
%TO.N,unconnected-(X1-Pad101)*%
X223960000Y-147560000D03*
%TO.P,X1,102,ETH_TXD1/PB13*%
%TO.N,unconnected-(X1-Pad102)*%
X226500000Y-147560000D03*
%TO.P,X1,103,SWO/PB3*%
%TO.N,unconnected-(X1-Pad103)*%
X223960000Y-150100000D03*
%TO.P,X1,104,AGND*%
%TO.N,unconnected-(X1-Pad104)*%
X226500000Y-150100000D03*
%TO.P,X1,105,USB_ID/PA10*%
%TO.N,unconnected-(X1-Pad105)*%
X223960000Y-152640000D03*
%TO.P,X1,106,ETH_RXD0/PC4*%
%TO.N,unconnected-(X1-Pad106)*%
X226500000Y-152640000D03*
%TO.P,X1,107,PA2*%
%TO.N,/~{+15V_GOOD}*%
X223960000Y-155180000D03*
%TO.P,X1,108,PF5*%
%TO.N,unconnected-(X1-Pad108)*%
X226500000Y-155180000D03*
%TO.P,X1,109,PA3*%
%TO.N,/~{-15V_GOOD}*%
X223960000Y-157720000D03*
%TO.P,X1,110,PF4*%
%TO.N,unconnected-(X1-Pad110)*%
X226500000Y-157720000D03*
%TO.P,X1,111,GND*%
%TO.N,GND*%
X223960000Y-160260000D03*
%TO.P,X1,112,PE8*%
%TO.N,unconnected-(X1-Pad112)*%
X226500000Y-160260000D03*
%TO.P,X1,113,PD13*%
%TO.N,unconnected-(X1-Pad113)*%
X223960000Y-162800000D03*
%TO.P,X1,114,PF10*%
%TO.N,unconnected-(X1-Pad114)*%
X226500000Y-162800000D03*
%TO.P,X1,115,PD12*%
%TO.N,unconnected-(X1-Pad115)*%
X223960000Y-165340000D03*
%TO.P,X1,116,PE7*%
%TO.N,unconnected-(X1-Pad116)*%
X226500000Y-165340000D03*
%TO.P,X1,117,PD11*%
%TO.N,unconnected-(X1-Pad117)*%
X223960000Y-167880000D03*
%TO.P,X1,118,PD14*%
%TO.N,unconnected-(X1-Pad118)*%
X226500000Y-167880000D03*
%TO.P,X1,119,PE10*%
%TO.N,unconnected-(X1-Pad119)*%
X223960000Y-170420000D03*
%TO.P,X1,120,PD15*%
%TO.N,unconnected-(X1-Pad120)*%
X226500000Y-170420000D03*
%TO.P,X1,121,PE12*%
%TO.N,unconnected-(X1-Pad121)*%
X223960000Y-172960000D03*
%TO.P,X1,122,PF14*%
%TO.N,unconnected-(X1-Pad122)*%
X226500000Y-172960000D03*
%TO.P,X1,123,PE14*%
%TO.N,unconnected-(X1-Pad123)*%
X223960000Y-175500000D03*
%TO.P,X1,124,PE9*%
%TO.N,unconnected-(X1-Pad124)*%
X226500000Y-175500000D03*
%TO.P,X1,125,PE15*%
%TO.N,unconnected-(X1-Pad125)*%
X223960000Y-178040000D03*
%TO.P,X1,126,GND*%
%TO.N,GND*%
X226500000Y-178040000D03*
%TO.P,X1,127,PE13*%
%TO.N,unconnected-(X1-Pad127)*%
X223960000Y-180580000D03*
%TO.P,X1,128,PE11*%
%TO.N,unconnected-(X1-Pad128)*%
X226500000Y-180580000D03*
%TO.P,X1,129,PF13*%
%TO.N,unconnected-(X1-Pad129)*%
X223960000Y-183120000D03*
%TO.P,X1,130,PF3*%
%TO.N,unconnected-(X1-Pad130)*%
X226500000Y-183120000D03*
%TO.P,X1,131,PF12*%
%TO.N,unconnected-(X1-Pad131)*%
X223960000Y-185660000D03*
%TO.P,X1,132,PF15*%
%TO.N,unconnected-(X1-Pad132)*%
X226500000Y-185660000D03*
%TO.P,X1,133,PG14*%
%TO.N,unconnected-(X1-Pad133)*%
X223960000Y-188200000D03*
%TO.P,X1,134,PF11*%
%TO.N,unconnected-(X1-Pad134)*%
X226500000Y-188200000D03*
%TO.P,X1,135,GND*%
%TO.N,GND*%
X223960000Y-190740000D03*
%TO.P,X1,136,PE0*%
%TO.N,unconnected-(X1-Pad136)*%
X226500000Y-190740000D03*
%TO.P,X1,137,PD10*%
%TO.N,unconnected-(X1-Pad137)*%
X223960000Y-193280000D03*
%TO.P,X1,138,PG8*%
%TO.N,unconnected-(X1-Pad138)*%
X226500000Y-193280000D03*
%TO.P,X1,139,PG7/USB_GPIO_IN*%
%TO.N,unconnected-(X1-Pad139)*%
X223960000Y-195820000D03*
%TO.P,X1,140,PG5*%
%TO.N,unconnected-(X1-Pad140)*%
X226500000Y-195820000D03*
%TO.P,X1,141,PG4*%
%TO.N,unconnected-(X1-Pad141)*%
X223960000Y-198360000D03*
%TO.P,X1,142,PG6/USB_GPIO_OUT*%
%TO.N,unconnected-(X1-Pad142)*%
X226500000Y-198360000D03*
%TO.P,X1,143,GND*%
%TO.N,GND*%
X223960000Y-200900000D03*
%TO.P,X1,144,GND*%
X226500000Y-200900000D03*
%TO.P,X1,145*%
%TO.N,N/C*%
X163000000Y-84060000D03*
%TO.P,X1,146*%
X163000000Y-86600000D03*
%TO.P,X1,147*%
X226500000Y-84060000D03*
%TO.P,X1,148*%
X226500000Y-86600000D03*
%TD*%
D15*
%TO.P,U1,1,Vin*%
%TO.N,Net-(D7-Pad1)*%
X193682500Y-153817500D03*
D16*
%TO.P,U1,2,GND*%
%TO.N,GND*%
X191142500Y-153817500D03*
%TO.P,U1,3,Vout*%
%TO.N,+5V*%
X188602500Y-153817500D03*
%TD*%
D17*
%TO.P,U2,1,+Vin*%
%TO.N,Net-(D8-Pad1)*%
X195540000Y-132535000D03*
D18*
%TO.P,U2,2,-Vin*%
%TO.N,GND*%
X190460000Y-132535000D03*
%TO.P,U2,3,+Vout*%
%TO.N,+15V*%
X203160000Y-112215000D03*
%TO.P,U2,4,COM*%
%TO.N,GND*%
X193000000Y-112215000D03*
%TO.P,U2,5,-Vout*%
%TO.N,-15V*%
X182840000Y-112215000D03*
%TD*%
D19*
%TO.P,J3,1,Pin_1*%
%TO.N,/24VIN*%
X218695000Y-88432500D03*
D20*
%TO.P,J3,2,Pin_2*%
%TO.N,GND*%
X215195000Y-88432500D03*
%TD*%
D10*
%TO.P,J1,1,Pin_1*%
%TO.N,unconnected-(J1-Pad1)*%
X224000000Y-99300000D03*
D11*
%TO.P,J1,2,Pin_2*%
%TO.N,unconnected-(J1-Pad2)*%
X226540000Y-99300000D03*
%TO.P,J1,3,Pin_3*%
%TO.N,unconnected-(J1-Pad3)*%
X224000000Y-101840000D03*
%TO.P,J1,4,Pin_4*%
%TO.N,unconnected-(J1-Pad4)*%
X226540000Y-101840000D03*
%TO.P,J1,5,Pin_5*%
%TO.N,unconnected-(J1-Pad5)*%
X224000000Y-104380000D03*
%TO.P,J1,6,Pin_6*%
%TO.N,unconnected-(J1-Pad6)*%
X226540000Y-104380000D03*
%TO.P,J1,7,Pin_7*%
%TO.N,unconnected-(J1-Pad7)*%
X224000000Y-106920000D03*
%TO.P,J1,8,Pin_8*%
%TO.N,unconnected-(J1-Pad8)*%
X226540000Y-106920000D03*
%TD*%
D12*
%TO.P,U3,1*%
%TO.N,GND*%
X201975000Y-189825000D03*
D13*
%TO.P,U3,2*%
%TO.N,Net-(R2-Pad1)*%
X204515000Y-189825000D03*
%TO.P,U3,3*%
%TO.N,GND*%
X204515000Y-182205000D03*
%TO.P,U3,4*%
%TO.N,/~{-15V_GOOD}*%
X201975000Y-182205000D03*
%TD*%
D21*
%TO.N,+24V*%
X212500000Y-105500000D03*
X217500000Y-106750000D03*
X212500000Y-122250000D03*
X213750000Y-106750000D03*
X213750000Y-105500000D03*
X212500000Y-124000000D03*
X209500000Y-122250000D03*
X207750000Y-155250000D03*
X209000000Y-106000000D03*
X216250000Y-106750000D03*
X210750000Y-106000000D03*
X207250000Y-106000000D03*
X218750000Y-105500000D03*
X207250000Y-103750000D03*
X215000000Y-104250000D03*
X207750000Y-152250000D03*
X218750000Y-104250000D03*
X211000000Y-122250000D03*
X215000000Y-106750000D03*
X206500000Y-124000000D03*
X212500000Y-106750000D03*
X213750000Y-104250000D03*
X209250000Y-152250000D03*
X208000000Y-122250000D03*
X216250000Y-105500000D03*
X209250000Y-153750000D03*
X206500000Y-122250000D03*
X216250000Y-104250000D03*
X217500000Y-104250000D03*
X215000000Y-105500000D03*
X218750000Y-106750000D03*
X210750000Y-103750000D03*
X217500000Y-105500000D03*
X209250000Y-155250000D03*
X212500000Y-104250000D03*
%TO.N,GND*%
X188750000Y-210250000D03*
X182500000Y-160250000D03*
X181250000Y-161500000D03*
X197750000Y-89250000D03*
X208250000Y-95250000D03*
X192750000Y-90500000D03*
X192750000Y-93250000D03*
X178750000Y-170500000D03*
X195250000Y-90500000D03*
X178500000Y-159000000D03*
X192750000Y-89250000D03*
X211000000Y-97750000D03*
X211000000Y-96500000D03*
X213662500Y-163000000D03*
X169750000Y-203250000D03*
X190250000Y-93250000D03*
X190250000Y-89250000D03*
X170750000Y-170500000D03*
X178500000Y-160250000D03*
X183750000Y-210250000D03*
X192750000Y-92000000D03*
X214400000Y-99500000D03*
X207000000Y-97750000D03*
X196500000Y-89250000D03*
X178500000Y-161500000D03*
X182500000Y-161500000D03*
X213400000Y-99500000D03*
X179750000Y-161500000D03*
X211000000Y-95250000D03*
X203750000Y-210250000D03*
X213500000Y-170250000D03*
X196500000Y-93250000D03*
X197750000Y-93250000D03*
X175250000Y-203250000D03*
X182500000Y-159000000D03*
X198750000Y-210250000D03*
X200000000Y-170250000D03*
X195250000Y-93250000D03*
X207000000Y-96500000D03*
X193750000Y-210250000D03*
X209750000Y-95250000D03*
X207000000Y-95250000D03*
X195250000Y-92000000D03*
X191500000Y-89250000D03*
X191500000Y-93250000D03*
X195250000Y-89250000D03*
%TO.N,+5V*%
X182500000Y-153250000D03*
X182500000Y-154500000D03*
X179750000Y-152000000D03*
X182500000Y-152000000D03*
X181250000Y-152000000D03*
X178500000Y-153250000D03*
X178500000Y-152000000D03*
X178500000Y-154500000D03*
X187000000Y-203250000D03*
%TO.N,+15V*%
X204750000Y-92000000D03*
X202250000Y-93250000D03*
X197000000Y-198500000D03*
X203500000Y-89250000D03*
X203500000Y-93250000D03*
X204750000Y-89250000D03*
X204750000Y-93250000D03*
X202250000Y-89250000D03*
X204750000Y-90500000D03*
%TO.N,-15V*%
X184500000Y-93250000D03*
X183250000Y-93250000D03*
X202000000Y-198250000D03*
X185750000Y-89250000D03*
X183250000Y-90500000D03*
X183250000Y-92000000D03*
X185750000Y-93250000D03*
X183250000Y-89250000D03*
X184500000Y-89250000D03*
%TO.N,VCC*%
X213662500Y-165500000D03*
X192000000Y-203250000D03*
%TD*%
D22*
%TO.N,+5V*%
X188602500Y-153817500D02*
X188602500Y-201647500D01*
X188602500Y-201647500D02*
X187000000Y-203250000D01*
%TO.N,+15V*%
X211965000Y-112215000D02*
X221250000Y-121500000D01*
X221250000Y-121500000D02*
X221250000Y-187500000D01*
X221250000Y-187500000D02*
X208500000Y-200250000D01*
X203160000Y-112215000D02*
X211965000Y-112215000D01*
X208500000Y-200250000D02*
X198750000Y-200250000D01*
X203160000Y-93590000D02*
X203500000Y-93250000D01*
X198750000Y-200250000D02*
X197000000Y-198500000D01*
X203160000Y-112215000D02*
X203160000Y-93590000D01*
%TO.N,-15V*%
X182840000Y-112215000D02*
X182840000Y-116840000D01*
X183467500Y-93467500D02*
X183250000Y-93250000D01*
X182840000Y-112215000D02*
X182840000Y-93660000D01*
X202000000Y-195250000D02*
X202000000Y-198250000D01*
X184500000Y-118500000D02*
X215250000Y-118500000D01*
X215250000Y-118500000D02*
X219250000Y-122500000D01*
X219250000Y-122500000D02*
X219250000Y-178000000D01*
X182840000Y-116840000D02*
X184500000Y-118500000D01*
X182840000Y-93660000D02*
X183250000Y-93250000D01*
X219250000Y-178000000D02*
X202000000Y-195250000D01*
%TO.N,VCC*%
X211000000Y-165500000D02*
X213662500Y-165500000D01*
X165540000Y-129780000D02*
X171970000Y-129780000D01*
X171970000Y-129780000D02*
X172000000Y-129750000D01*
X189750000Y-179250000D02*
X189750000Y-201000000D01*
X192000000Y-177000000D02*
X189750000Y-179250000D01*
X192000000Y-177000000D02*
X199500000Y-177000000D01*
X175250000Y-129750000D02*
X211000000Y-165500000D01*
X189750000Y-201000000D02*
X192000000Y-203250000D01*
X172000000Y-129750000D02*
X175250000Y-129750000D01*
X211000000Y-165500000D02*
X199500000Y-177000000D01*
%TD*%
%TA.AperFunction,Conductor*%
%TO.N,+15V*%
G36*
X205692121Y-87770002D02*
G01*
X205738614Y-87823658D01*
X205750000Y-87876000D01*
X205750000Y-93947810D01*
X205729998Y-94015931D01*
X205713095Y-94036905D01*
X205036905Y-94713095D01*
X204974593Y-94747121D01*
X204947810Y-94750000D01*
X201126000Y-94750000D01*
X201057879Y-94729998D01*
X201011386Y-94676342D01*
X201000000Y-94624000D01*
X201000000Y-87876000D01*
X201020002Y-87807879D01*
X201073658Y-87761386D01*
X201126000Y-87750000D01*
X205624000Y-87750000D01*
X205692121Y-87770002D01*
G37*
%TD.AperFunction*%
%TD*%
%TA.AperFunction,Conductor*%
%TO.N,-15V*%
G36*
X186942121Y-87770002D02*
G01*
X186988614Y-87823658D01*
X187000000Y-87876000D01*
X187000000Y-94624000D01*
X186979998Y-94692121D01*
X186926342Y-94738614D01*
X186874000Y-94750000D01*
X182376000Y-94750000D01*
X182307879Y-94729998D01*
X182261386Y-94676342D01*
X182250000Y-94624000D01*
X182250000Y-87876000D01*
X182270002Y-87807879D01*
X182323658Y-87761386D01*
X182376000Y-87750000D01*
X186874000Y-87750000D01*
X186942121Y-87770002D01*
G37*
%TD.AperFunction*%
%TD*%
M02*
