%TF.GenerationSoftware,KiCad,Pcbnew,(6.0.7-1)-1*%
%TF.CreationDate,2022-08-23T12:38:48-05:00*%
%TF.ProjectId,NR1B-Power,4e523142-2d50-46f7-9765-722e6b696361,rev?*%
%TF.SameCoordinates,Original*%
%TF.FileFunction,Legend,Top*%
%TF.FilePolarity,Positive*%
%FSLAX46Y46*%
G04 Gerber Fmt 4.6, Leading zero omitted, Abs format (unit mm)*
G04 Created by KiCad (PCBNEW (6.0.7-1)-1) date 2022-08-23 12:38:48*
%MOMM*%
%LPD*%
G01*
G04 APERTURE LIST*
%ADD10C,0.100000*%
%ADD11C,0.150000*%
%ADD12C,0.125000*%
%ADD13C,0.120000*%
G04 APERTURE END LIST*
D10*
X223500000Y-207500000D02*
X205750000Y-207500000D01*
X217000000Y-205750000D02*
X217000000Y-210750000D01*
D11*
X205750000Y-203750000D02*
X223500000Y-203750000D01*
D10*
X217000000Y-205750000D02*
X217000000Y-203750000D01*
X205750000Y-209000000D02*
X223500000Y-209000000D01*
D11*
X205750000Y-205750000D02*
X205750000Y-203750000D01*
X223500000Y-210750000D02*
X223500000Y-205750000D01*
D10*
X211750000Y-205750000D02*
X211750000Y-210750000D01*
D11*
X223500000Y-205750000D02*
X205750000Y-205750000D01*
X223500000Y-203750000D02*
X223500000Y-205750000D01*
D10*
X211750000Y-205750000D02*
X211750000Y-203750000D01*
D11*
X205750000Y-205750000D02*
X205750000Y-210750000D01*
X167750000Y-107000000D02*
X168250000Y-106500000D01*
X167250000Y-107000000D02*
X167750000Y-107000000D01*
X205750000Y-210750000D02*
X223500000Y-210750000D01*
X166071428Y-97011904D02*
X166071428Y-96250000D01*
X166452380Y-96630952D02*
X165690476Y-96630952D01*
X166452380Y-95250000D02*
X166452380Y-95821428D01*
X166452380Y-95535714D02*
X165452380Y-95535714D01*
X165595238Y-95630952D01*
X165690476Y-95726190D01*
X165738095Y-95821428D01*
X165452380Y-94345238D02*
X165452380Y-94821428D01*
X165928571Y-94869047D01*
X165880952Y-94821428D01*
X165833333Y-94726190D01*
X165833333Y-94488095D01*
X165880952Y-94392857D01*
X165928571Y-94345238D01*
X166023809Y-94297619D01*
X166261904Y-94297619D01*
X166357142Y-94345238D01*
X166404761Y-94392857D01*
X166452380Y-94488095D01*
X166452380Y-94726190D01*
X166404761Y-94821428D01*
X166357142Y-94869047D01*
X165452380Y-94011904D02*
X166452380Y-93678571D01*
X165452380Y-93345238D01*
X190666666Y-211952380D02*
X191000000Y-212952380D01*
X191333333Y-211952380D01*
X192238095Y-212857142D02*
X192190476Y-212904761D01*
X192047619Y-212952380D01*
X191952380Y-212952380D01*
X191809523Y-212904761D01*
X191714285Y-212809523D01*
X191666666Y-212714285D01*
X191619047Y-212523809D01*
X191619047Y-212380952D01*
X191666666Y-212190476D01*
X191714285Y-212095238D01*
X191809523Y-212000000D01*
X191952380Y-211952380D01*
X192047619Y-211952380D01*
X192190476Y-212000000D01*
X192238095Y-212047619D01*
X193238095Y-212857142D02*
X193190476Y-212904761D01*
X193047619Y-212952380D01*
X192952380Y-212952380D01*
X192809523Y-212904761D01*
X192714285Y-212809523D01*
X192666666Y-212714285D01*
X192619047Y-212523809D01*
X192619047Y-212380952D01*
X192666666Y-212190476D01*
X192714285Y-212095238D01*
X192809523Y-212000000D01*
X192952380Y-211952380D01*
X193047619Y-211952380D01*
X193190476Y-212000000D01*
X193238095Y-212047619D01*
X181238095Y-105821428D02*
X182000000Y-105821428D01*
X183000000Y-106202380D02*
X182428571Y-106202380D01*
X182714285Y-106202380D02*
X182714285Y-105202380D01*
X182619047Y-105345238D01*
X182523809Y-105440476D01*
X182428571Y-105488095D01*
X183904761Y-105202380D02*
X183428571Y-105202380D01*
X183380952Y-105678571D01*
X183428571Y-105630952D01*
X183523809Y-105583333D01*
X183761904Y-105583333D01*
X183857142Y-105630952D01*
X183904761Y-105678571D01*
X183952380Y-105773809D01*
X183952380Y-106011904D01*
X183904761Y-106107142D01*
X183857142Y-106154761D01*
X183761904Y-106202380D01*
X183523809Y-106202380D01*
X183428571Y-106154761D01*
X183380952Y-106107142D01*
X184238095Y-105202380D02*
X184571428Y-106202380D01*
X184904761Y-105202380D01*
X219100119Y-205111904D02*
X219100119Y-204311904D01*
X219481071Y-205111904D02*
X219481071Y-204311904D01*
X219747738Y-204883333D01*
X220014404Y-204311904D01*
X220014404Y-205111904D01*
X220357261Y-204883333D02*
X220738214Y-204883333D01*
X220281071Y-205111904D02*
X220547738Y-204311904D01*
X220814404Y-205111904D01*
X221004880Y-204311904D02*
X221538214Y-205111904D01*
X221538214Y-204311904D02*
X221004880Y-205111904D01*
X166335595Y-82592380D02*
X166335595Y-81592380D01*
X166907023Y-82592380D01*
X166907023Y-81592380D01*
X167954642Y-82592380D02*
X167621309Y-82116190D01*
X167383214Y-82592380D02*
X167383214Y-81592380D01*
X167764166Y-81592380D01*
X167859404Y-81640000D01*
X167907023Y-81687619D01*
X167954642Y-81782857D01*
X167954642Y-81925714D01*
X167907023Y-82020952D01*
X167859404Y-82068571D01*
X167764166Y-82116190D01*
X167383214Y-82116190D01*
X168907023Y-82592380D02*
X168335595Y-82592380D01*
X168621309Y-82592380D02*
X168621309Y-81592380D01*
X168526071Y-81735238D01*
X168430833Y-81830476D01*
X168335595Y-81878095D01*
X169668928Y-82068571D02*
X169811785Y-82116190D01*
X169859404Y-82163809D01*
X169907023Y-82259047D01*
X169907023Y-82401904D01*
X169859404Y-82497142D01*
X169811785Y-82544761D01*
X169716547Y-82592380D01*
X169335595Y-82592380D01*
X169335595Y-81592380D01*
X169668928Y-81592380D01*
X169764166Y-81640000D01*
X169811785Y-81687619D01*
X169859404Y-81782857D01*
X169859404Y-81878095D01*
X169811785Y-81973333D01*
X169764166Y-82020952D01*
X169668928Y-82068571D01*
X169335595Y-82068571D01*
X170335595Y-82211428D02*
X171097500Y-82211428D01*
X171573690Y-82592380D02*
X171573690Y-81592380D01*
X171954642Y-81592380D01*
X172049880Y-81640000D01*
X172097500Y-81687619D01*
X172145119Y-81782857D01*
X172145119Y-81925714D01*
X172097500Y-82020952D01*
X172049880Y-82068571D01*
X171954642Y-82116190D01*
X171573690Y-82116190D01*
X172716547Y-82592380D02*
X172621309Y-82544761D01*
X172573690Y-82497142D01*
X172526071Y-82401904D01*
X172526071Y-82116190D01*
X172573690Y-82020952D01*
X172621309Y-81973333D01*
X172716547Y-81925714D01*
X172859404Y-81925714D01*
X172954642Y-81973333D01*
X173002261Y-82020952D01*
X173049880Y-82116190D01*
X173049880Y-82401904D01*
X173002261Y-82497142D01*
X172954642Y-82544761D01*
X172859404Y-82592380D01*
X172716547Y-82592380D01*
X173383214Y-81925714D02*
X173573690Y-82592380D01*
X173764166Y-82116190D01*
X173954642Y-82592380D01*
X174145119Y-81925714D01*
X174907023Y-82544761D02*
X174811785Y-82592380D01*
X174621309Y-82592380D01*
X174526071Y-82544761D01*
X174478452Y-82449523D01*
X174478452Y-82068571D01*
X174526071Y-81973333D01*
X174621309Y-81925714D01*
X174811785Y-81925714D01*
X174907023Y-81973333D01*
X174954642Y-82068571D01*
X174954642Y-82163809D01*
X174478452Y-82259047D01*
X175383214Y-82592380D02*
X175383214Y-81925714D01*
X175383214Y-82116190D02*
X175430833Y-82020952D01*
X175478452Y-81973333D01*
X175573690Y-81925714D01*
X175668928Y-81925714D01*
X176668928Y-81925714D02*
X176907023Y-82592380D01*
X177145119Y-81925714D01*
X178049880Y-82592380D02*
X177478452Y-82592380D01*
X177764166Y-82592380D02*
X177764166Y-81592380D01*
X177668928Y-81735238D01*
X177573690Y-81830476D01*
X177478452Y-81878095D01*
X178478452Y-82497142D02*
X178526071Y-82544761D01*
X178478452Y-82592380D01*
X178430833Y-82544761D01*
X178478452Y-82497142D01*
X178478452Y-82592380D01*
X179145119Y-81592380D02*
X179240357Y-81592380D01*
X179335595Y-81640000D01*
X179383214Y-81687619D01*
X179430833Y-81782857D01*
X179478452Y-81973333D01*
X179478452Y-82211428D01*
X179430833Y-82401904D01*
X179383214Y-82497142D01*
X179335595Y-82544761D01*
X179240357Y-82592380D01*
X179145119Y-82592380D01*
X179049880Y-82544761D01*
X179002261Y-82497142D01*
X178954642Y-82401904D01*
X178907023Y-82211428D01*
X178907023Y-81973333D01*
X178954642Y-81782857D01*
X179002261Y-81687619D01*
X179049880Y-81640000D01*
X179145119Y-81592380D01*
X166287976Y-83916666D02*
X166764166Y-83916666D01*
X166192738Y-84202380D02*
X166526071Y-83202380D01*
X166859404Y-84202380D01*
X167192738Y-84202380D02*
X167192738Y-83535714D01*
X167192738Y-83202380D02*
X167145119Y-83250000D01*
X167192738Y-83297619D01*
X167240357Y-83250000D01*
X167192738Y-83202380D01*
X167192738Y-83297619D01*
X168097500Y-84202380D02*
X168097500Y-83202380D01*
X168097500Y-84154761D02*
X168002261Y-84202380D01*
X167811785Y-84202380D01*
X167716547Y-84154761D01*
X167668928Y-84107142D01*
X167621309Y-84011904D01*
X167621309Y-83726190D01*
X167668928Y-83630952D01*
X167716547Y-83583333D01*
X167811785Y-83535714D01*
X168002261Y-83535714D01*
X168097500Y-83583333D01*
X169002261Y-84202380D02*
X169002261Y-83678571D01*
X168954642Y-83583333D01*
X168859404Y-83535714D01*
X168668928Y-83535714D01*
X168573690Y-83583333D01*
X169002261Y-84154761D02*
X168907023Y-84202380D01*
X168668928Y-84202380D01*
X168573690Y-84154761D01*
X168526071Y-84059523D01*
X168526071Y-83964285D01*
X168573690Y-83869047D01*
X168668928Y-83821428D01*
X168907023Y-83821428D01*
X169002261Y-83773809D01*
X169478452Y-83535714D02*
X169478452Y-84202380D01*
X169478452Y-83630952D02*
X169526071Y-83583333D01*
X169621309Y-83535714D01*
X169764166Y-83535714D01*
X169859404Y-83583333D01*
X169907023Y-83678571D01*
X169907023Y-84202380D01*
X171145119Y-84202380D02*
X171145119Y-83202380D01*
X171478452Y-83916666D01*
X171811785Y-83202380D01*
X171811785Y-84202380D01*
X172668928Y-84154761D02*
X172573690Y-84202380D01*
X172383214Y-84202380D01*
X172287976Y-84154761D01*
X172240357Y-84059523D01*
X172240357Y-83678571D01*
X172287976Y-83583333D01*
X172383214Y-83535714D01*
X172573690Y-83535714D01*
X172668928Y-83583333D01*
X172716547Y-83678571D01*
X172716547Y-83773809D01*
X172240357Y-83869047D01*
X173573690Y-84202380D02*
X173573690Y-83202380D01*
X173573690Y-84154761D02*
X173478452Y-84202380D01*
X173287976Y-84202380D01*
X173192738Y-84154761D01*
X173145119Y-84107142D01*
X173097500Y-84011904D01*
X173097500Y-83726190D01*
X173145119Y-83630952D01*
X173192738Y-83583333D01*
X173287976Y-83535714D01*
X173478452Y-83535714D01*
X173573690Y-83583333D01*
X174478452Y-84154761D02*
X174383214Y-84202380D01*
X174192738Y-84202380D01*
X174097500Y-84154761D01*
X174049880Y-84107142D01*
X174002261Y-84011904D01*
X174002261Y-83726190D01*
X174049880Y-83630952D01*
X174097500Y-83583333D01*
X174192738Y-83535714D01*
X174383214Y-83535714D01*
X174478452Y-83583333D01*
X175335595Y-84202380D02*
X175335595Y-83678571D01*
X175287976Y-83583333D01*
X175192738Y-83535714D01*
X175002261Y-83535714D01*
X174907023Y-83583333D01*
X175335595Y-84154761D02*
X175240357Y-84202380D01*
X175002261Y-84202380D01*
X174907023Y-84154761D01*
X174859404Y-84059523D01*
X174859404Y-83964285D01*
X174907023Y-83869047D01*
X175002261Y-83821428D01*
X175240357Y-83821428D01*
X175335595Y-83773809D01*
X175954642Y-84202380D02*
X175859404Y-84154761D01*
X175811785Y-84059523D01*
X175811785Y-83202380D01*
X176192738Y-83535714D02*
X176573690Y-83535714D01*
X176335595Y-84202380D02*
X176335595Y-83345238D01*
X176383214Y-83250000D01*
X176478452Y-83202380D01*
X176573690Y-83202380D01*
X166287976Y-84907619D02*
X166335595Y-84860000D01*
X166430833Y-84812380D01*
X166668928Y-84812380D01*
X166764166Y-84860000D01*
X166811785Y-84907619D01*
X166859404Y-85002857D01*
X166859404Y-85098095D01*
X166811785Y-85240952D01*
X166240357Y-85812380D01*
X166859404Y-85812380D01*
X167478452Y-84812380D02*
X167573690Y-84812380D01*
X167668928Y-84860000D01*
X167716547Y-84907619D01*
X167764166Y-85002857D01*
X167811785Y-85193333D01*
X167811785Y-85431428D01*
X167764166Y-85621904D01*
X167716547Y-85717142D01*
X167668928Y-85764761D01*
X167573690Y-85812380D01*
X167478452Y-85812380D01*
X167383214Y-85764761D01*
X167335595Y-85717142D01*
X167287976Y-85621904D01*
X167240357Y-85431428D01*
X167240357Y-85193333D01*
X167287976Y-85002857D01*
X167335595Y-84907619D01*
X167383214Y-84860000D01*
X167478452Y-84812380D01*
X168192738Y-84907619D02*
X168240357Y-84860000D01*
X168335595Y-84812380D01*
X168573690Y-84812380D01*
X168668928Y-84860000D01*
X168716547Y-84907619D01*
X168764166Y-85002857D01*
X168764166Y-85098095D01*
X168716547Y-85240952D01*
X168145119Y-85812380D01*
X168764166Y-85812380D01*
X169145119Y-84907619D02*
X169192738Y-84860000D01*
X169287976Y-84812380D01*
X169526071Y-84812380D01*
X169621309Y-84860000D01*
X169668928Y-84907619D01*
X169716547Y-85002857D01*
X169716547Y-85098095D01*
X169668928Y-85240952D01*
X169097500Y-85812380D01*
X169716547Y-85812380D01*
X170907023Y-84812380D02*
X170907023Y-85621904D01*
X170954642Y-85717142D01*
X171002261Y-85764761D01*
X171097500Y-85812380D01*
X171287976Y-85812380D01*
X171383214Y-85764761D01*
X171430833Y-85717142D01*
X171478452Y-85621904D01*
X171478452Y-84812380D01*
X171954642Y-85145714D02*
X171954642Y-85812380D01*
X171954642Y-85240952D02*
X172002261Y-85193333D01*
X172097500Y-85145714D01*
X172240357Y-85145714D01*
X172335595Y-85193333D01*
X172383214Y-85288571D01*
X172383214Y-85812380D01*
X172859404Y-85812380D02*
X172859404Y-85145714D01*
X172859404Y-84812380D02*
X172811785Y-84860000D01*
X172859404Y-84907619D01*
X172907023Y-84860000D01*
X172859404Y-84812380D01*
X172859404Y-84907619D01*
X173240357Y-85145714D02*
X173478452Y-85812380D01*
X173716547Y-85145714D01*
X174478452Y-85764761D02*
X174383214Y-85812380D01*
X174192738Y-85812380D01*
X174097500Y-85764761D01*
X174049880Y-85669523D01*
X174049880Y-85288571D01*
X174097500Y-85193333D01*
X174192738Y-85145714D01*
X174383214Y-85145714D01*
X174478452Y-85193333D01*
X174526071Y-85288571D01*
X174526071Y-85383809D01*
X174049880Y-85479047D01*
X174954642Y-85812380D02*
X174954642Y-85145714D01*
X174954642Y-85336190D02*
X175002261Y-85240952D01*
X175049880Y-85193333D01*
X175145119Y-85145714D01*
X175240357Y-85145714D01*
X175526071Y-85764761D02*
X175621309Y-85812380D01*
X175811785Y-85812380D01*
X175907023Y-85764761D01*
X175954642Y-85669523D01*
X175954642Y-85621904D01*
X175907023Y-85526666D01*
X175811785Y-85479047D01*
X175668928Y-85479047D01*
X175573690Y-85431428D01*
X175526071Y-85336190D01*
X175526071Y-85288571D01*
X175573690Y-85193333D01*
X175668928Y-85145714D01*
X175811785Y-85145714D01*
X175907023Y-85193333D01*
X176383214Y-85812380D02*
X176383214Y-85145714D01*
X176383214Y-84812380D02*
X176335595Y-84860000D01*
X176383214Y-84907619D01*
X176430833Y-84860000D01*
X176383214Y-84812380D01*
X176383214Y-84907619D01*
X176716547Y-85145714D02*
X177097500Y-85145714D01*
X176859404Y-84812380D02*
X176859404Y-85669523D01*
X176907023Y-85764761D01*
X177002261Y-85812380D01*
X177097500Y-85812380D01*
X177335595Y-85145714D02*
X177573690Y-85812380D01*
X177811785Y-85145714D02*
X177573690Y-85812380D01*
X177478452Y-86050476D01*
X177430833Y-86098095D01*
X177335595Y-86145714D01*
X179097500Y-85812380D02*
X179002261Y-85764761D01*
X178954642Y-85717142D01*
X178907023Y-85621904D01*
X178907023Y-85336190D01*
X178954642Y-85240952D01*
X179002261Y-85193333D01*
X179097500Y-85145714D01*
X179240357Y-85145714D01*
X179335595Y-85193333D01*
X179383214Y-85240952D01*
X179430833Y-85336190D01*
X179430833Y-85621904D01*
X179383214Y-85717142D01*
X179335595Y-85764761D01*
X179240357Y-85812380D01*
X179097500Y-85812380D01*
X179716547Y-85145714D02*
X180097500Y-85145714D01*
X179859404Y-85812380D02*
X179859404Y-84955238D01*
X179907023Y-84860000D01*
X180002261Y-84812380D01*
X180097500Y-84812380D01*
X181192738Y-85812380D02*
X181192738Y-84812380D01*
X181430833Y-84812380D01*
X181573690Y-84860000D01*
X181668928Y-84955238D01*
X181716547Y-85050476D01*
X181764166Y-85240952D01*
X181764166Y-85383809D01*
X181716547Y-85574285D01*
X181668928Y-85669523D01*
X181573690Y-85764761D01*
X181430833Y-85812380D01*
X181192738Y-85812380D01*
X182621309Y-85812380D02*
X182621309Y-85288571D01*
X182573690Y-85193333D01*
X182478452Y-85145714D01*
X182287976Y-85145714D01*
X182192738Y-85193333D01*
X182621309Y-85764761D02*
X182526071Y-85812380D01*
X182287976Y-85812380D01*
X182192738Y-85764761D01*
X182145119Y-85669523D01*
X182145119Y-85574285D01*
X182192738Y-85479047D01*
X182287976Y-85431428D01*
X182526071Y-85431428D01*
X182621309Y-85383809D01*
X183240357Y-85812380D02*
X183145119Y-85764761D01*
X183097500Y-85669523D01*
X183097500Y-84812380D01*
X183764166Y-85812380D02*
X183668928Y-85764761D01*
X183621309Y-85669523D01*
X183621309Y-84812380D01*
X184573690Y-85812380D02*
X184573690Y-85288571D01*
X184526071Y-85193333D01*
X184430833Y-85145714D01*
X184240357Y-85145714D01*
X184145119Y-85193333D01*
X184573690Y-85764761D02*
X184478452Y-85812380D01*
X184240357Y-85812380D01*
X184145119Y-85764761D01*
X184097500Y-85669523D01*
X184097500Y-85574285D01*
X184145119Y-85479047D01*
X184240357Y-85431428D01*
X184478452Y-85431428D01*
X184573690Y-85383809D01*
X185002261Y-85764761D02*
X185097500Y-85812380D01*
X185287976Y-85812380D01*
X185383214Y-85764761D01*
X185430833Y-85669523D01*
X185430833Y-85621904D01*
X185383214Y-85526666D01*
X185287976Y-85479047D01*
X185145119Y-85479047D01*
X185049880Y-85431428D01*
X185002261Y-85336190D01*
X185002261Y-85288571D01*
X185049880Y-85193333D01*
X185145119Y-85145714D01*
X185287976Y-85145714D01*
X185383214Y-85193333D01*
X220921547Y-207111904D02*
X220464404Y-207111904D01*
X220692976Y-207111904D02*
X220692976Y-206311904D01*
X220616785Y-206426190D01*
X220540595Y-206502380D01*
X220464404Y-206540476D01*
X221264404Y-207035714D02*
X221302500Y-207073809D01*
X221264404Y-207111904D01*
X221226309Y-207073809D01*
X221264404Y-207035714D01*
X221264404Y-207111904D01*
X221797738Y-206311904D02*
X221873928Y-206311904D01*
X221950119Y-206350000D01*
X221988214Y-206388095D01*
X222026309Y-206464285D01*
X222064404Y-206616666D01*
X222064404Y-206807142D01*
X222026309Y-206959523D01*
X221988214Y-207035714D01*
X221950119Y-207073809D01*
X221873928Y-207111904D01*
X221797738Y-207111904D01*
X221721547Y-207073809D01*
X221683452Y-207035714D01*
X221645357Y-206959523D01*
X221607261Y-206807142D01*
X221607261Y-206616666D01*
X221645357Y-206464285D01*
X221683452Y-206388095D01*
X221721547Y-206350000D01*
X221797738Y-206311904D01*
X222369166Y-206883333D02*
X222750119Y-206883333D01*
X222292976Y-207111904D02*
X222559642Y-206311904D01*
X222826309Y-207111904D01*
X213321428Y-156920000D02*
X214559523Y-156920000D01*
X213559523Y-157821428D02*
X214321428Y-157821428D01*
X214559523Y-156920000D02*
X215511904Y-156920000D01*
X215321428Y-158202380D02*
X214750000Y-158202380D01*
X215035714Y-158202380D02*
X215035714Y-157202380D01*
X214940476Y-157345238D01*
X214845238Y-157440476D01*
X214750000Y-157488095D01*
X215511904Y-156920000D02*
X216464285Y-156920000D01*
X216226190Y-157202380D02*
X215750000Y-157202380D01*
X215702380Y-157678571D01*
X215750000Y-157630952D01*
X215845238Y-157583333D01*
X216083333Y-157583333D01*
X216178571Y-157630952D01*
X216226190Y-157678571D01*
X216273809Y-157773809D01*
X216273809Y-158011904D01*
X216226190Y-158107142D01*
X216178571Y-158154761D01*
X216083333Y-158202380D01*
X215845238Y-158202380D01*
X215750000Y-158154761D01*
X215702380Y-158107142D01*
X216464285Y-156920000D02*
X217321428Y-156920000D01*
X216559523Y-157202380D02*
X216892857Y-158202380D01*
X217226190Y-157202380D01*
X217321428Y-156920000D02*
X218083333Y-156920000D01*
X217321428Y-158297619D02*
X218083333Y-158297619D01*
X218083333Y-156920000D02*
X219083333Y-156920000D01*
X218845238Y-157250000D02*
X218750000Y-157202380D01*
X218607142Y-157202380D01*
X218464285Y-157250000D01*
X218369047Y-157345238D01*
X218321428Y-157440476D01*
X218273809Y-157630952D01*
X218273809Y-157773809D01*
X218321428Y-157964285D01*
X218369047Y-158059523D01*
X218464285Y-158154761D01*
X218607142Y-158202380D01*
X218702380Y-158202380D01*
X218845238Y-158154761D01*
X218892857Y-158107142D01*
X218892857Y-157773809D01*
X218702380Y-157773809D01*
X219083333Y-156920000D02*
X220130952Y-156920000D01*
X219511904Y-157202380D02*
X219702380Y-157202380D01*
X219797619Y-157250000D01*
X219892857Y-157345238D01*
X219940476Y-157535714D01*
X219940476Y-157869047D01*
X219892857Y-158059523D01*
X219797619Y-158154761D01*
X219702380Y-158202380D01*
X219511904Y-158202380D01*
X219416666Y-158154761D01*
X219321428Y-158059523D01*
X219273809Y-157869047D01*
X219273809Y-157535714D01*
X219321428Y-157345238D01*
X219416666Y-157250000D01*
X219511904Y-157202380D01*
X220130952Y-156920000D02*
X221178571Y-156920000D01*
X220559523Y-157202380D02*
X220750000Y-157202380D01*
X220845238Y-157250000D01*
X220940476Y-157345238D01*
X220988095Y-157535714D01*
X220988095Y-157869047D01*
X220940476Y-158059523D01*
X220845238Y-158154761D01*
X220750000Y-158202380D01*
X220559523Y-158202380D01*
X220464285Y-158154761D01*
X220369047Y-158059523D01*
X220321428Y-157869047D01*
X220321428Y-157535714D01*
X220369047Y-157345238D01*
X220464285Y-157250000D01*
X220559523Y-157202380D01*
X221178571Y-156920000D02*
X222178571Y-156920000D01*
X221416666Y-158202380D02*
X221416666Y-157202380D01*
X221654761Y-157202380D01*
X221797619Y-157250000D01*
X221892857Y-157345238D01*
X221940476Y-157440476D01*
X221988095Y-157630952D01*
X221988095Y-157773809D01*
X221940476Y-157964285D01*
X221892857Y-158059523D01*
X221797619Y-158154761D01*
X221654761Y-158202380D01*
X221416666Y-158202380D01*
D12*
X205733630Y-212383333D02*
X206114583Y-212383333D01*
X205657440Y-212611904D02*
X205924107Y-211811904D01*
X206190773Y-212611904D01*
X206571726Y-212611904D02*
X206495535Y-212573809D01*
X206457440Y-212497619D01*
X206457440Y-211811904D01*
X206990773Y-212611904D02*
X206914583Y-212573809D01*
X206876488Y-212497619D01*
X206876488Y-211811904D01*
X208019345Y-212611904D02*
X207943154Y-212573809D01*
X207905059Y-212535714D01*
X207866964Y-212459523D01*
X207866964Y-212230952D01*
X207905059Y-212154761D01*
X207943154Y-212116666D01*
X208019345Y-212078571D01*
X208133630Y-212078571D01*
X208209821Y-212116666D01*
X208247916Y-212154761D01*
X208286011Y-212230952D01*
X208286011Y-212459523D01*
X208247916Y-212535714D01*
X208209821Y-212573809D01*
X208133630Y-212611904D01*
X208019345Y-212611904D01*
X208971726Y-212078571D02*
X208971726Y-212611904D01*
X208628869Y-212078571D02*
X208628869Y-212497619D01*
X208666964Y-212573809D01*
X208743154Y-212611904D01*
X208857440Y-212611904D01*
X208933630Y-212573809D01*
X208971726Y-212535714D01*
X209238392Y-212078571D02*
X209543154Y-212078571D01*
X209352678Y-211811904D02*
X209352678Y-212497619D01*
X209390773Y-212573809D01*
X209466964Y-212611904D01*
X209543154Y-212611904D01*
X209809821Y-212078571D02*
X209809821Y-212878571D01*
X209809821Y-212116666D02*
X209886011Y-212078571D01*
X210038392Y-212078571D01*
X210114583Y-212116666D01*
X210152678Y-212154761D01*
X210190773Y-212230952D01*
X210190773Y-212459523D01*
X210152678Y-212535714D01*
X210114583Y-212573809D01*
X210038392Y-212611904D01*
X209886011Y-212611904D01*
X209809821Y-212573809D01*
X210876488Y-212078571D02*
X210876488Y-212611904D01*
X210533630Y-212078571D02*
X210533630Y-212497619D01*
X210571726Y-212573809D01*
X210647916Y-212611904D01*
X210762202Y-212611904D01*
X210838392Y-212573809D01*
X210876488Y-212535714D01*
X211143154Y-212078571D02*
X211447916Y-212078571D01*
X211257440Y-211811904D02*
X211257440Y-212497619D01*
X211295535Y-212573809D01*
X211371726Y-212611904D01*
X211447916Y-212611904D01*
X211676488Y-212573809D02*
X211752678Y-212611904D01*
X211905059Y-212611904D01*
X211981250Y-212573809D01*
X212019345Y-212497619D01*
X212019345Y-212459523D01*
X211981250Y-212383333D01*
X211905059Y-212345238D01*
X211790773Y-212345238D01*
X211714583Y-212307142D01*
X211676488Y-212230952D01*
X211676488Y-212192857D01*
X211714583Y-212116666D01*
X211790773Y-212078571D01*
X211905059Y-212078571D01*
X211981250Y-212116666D01*
X212857440Y-212078571D02*
X213162202Y-212078571D01*
X212971726Y-212611904D02*
X212971726Y-211926190D01*
X213009821Y-211850000D01*
X213086011Y-211811904D01*
X213162202Y-211811904D01*
X213771726Y-212078571D02*
X213771726Y-212611904D01*
X213428869Y-212078571D02*
X213428869Y-212497619D01*
X213466964Y-212573809D01*
X213543154Y-212611904D01*
X213657440Y-212611904D01*
X213733630Y-212573809D01*
X213771726Y-212535714D01*
X214114583Y-212573809D02*
X214190773Y-212611904D01*
X214343154Y-212611904D01*
X214419345Y-212573809D01*
X214457440Y-212497619D01*
X214457440Y-212459523D01*
X214419345Y-212383333D01*
X214343154Y-212345238D01*
X214228869Y-212345238D01*
X214152678Y-212307142D01*
X214114583Y-212230952D01*
X214114583Y-212192857D01*
X214152678Y-212116666D01*
X214228869Y-212078571D01*
X214343154Y-212078571D01*
X214419345Y-212116666D01*
X215105059Y-212573809D02*
X215028869Y-212611904D01*
X214876488Y-212611904D01*
X214800297Y-212573809D01*
X214762202Y-212497619D01*
X214762202Y-212192857D01*
X214800297Y-212116666D01*
X214876488Y-212078571D01*
X215028869Y-212078571D01*
X215105059Y-212116666D01*
X215143154Y-212192857D01*
X215143154Y-212269047D01*
X214762202Y-212345238D01*
X215828869Y-212611904D02*
X215828869Y-211811904D01*
X215828869Y-212573809D02*
X215752678Y-212611904D01*
X215600297Y-212611904D01*
X215524107Y-212573809D01*
X215486011Y-212535714D01*
X215447916Y-212459523D01*
X215447916Y-212230952D01*
X215486011Y-212154761D01*
X215524107Y-212116666D01*
X215600297Y-212078571D01*
X215752678Y-212078571D01*
X215828869Y-212116666D01*
D11*
X180809523Y-212047619D02*
X180857142Y-212000000D01*
X180952380Y-211952380D01*
X181190476Y-211952380D01*
X181285714Y-212000000D01*
X181333333Y-212047619D01*
X181380952Y-212142857D01*
X181380952Y-212238095D01*
X181333333Y-212380952D01*
X180761904Y-212952380D01*
X181380952Y-212952380D01*
X182238095Y-212285714D02*
X182238095Y-212952380D01*
X182000000Y-211904761D02*
X181761904Y-212619047D01*
X182380952Y-212619047D01*
X182619047Y-211952380D02*
X182952380Y-212952380D01*
X183285714Y-211952380D01*
X215259642Y-207811904D02*
X215107261Y-207811904D01*
X215031071Y-207850000D01*
X214992976Y-207888095D01*
X214916785Y-208002380D01*
X214878690Y-208154761D01*
X214878690Y-208459523D01*
X214916785Y-208535714D01*
X214954880Y-208573809D01*
X215031071Y-208611904D01*
X215183452Y-208611904D01*
X215259642Y-208573809D01*
X215297738Y-208535714D01*
X215335833Y-208459523D01*
X215335833Y-208269047D01*
X215297738Y-208192857D01*
X215259642Y-208154761D01*
X215183452Y-208116666D01*
X215031071Y-208116666D01*
X214954880Y-208154761D01*
X214916785Y-208192857D01*
X214878690Y-208269047D01*
X215602500Y-207811904D02*
X215792976Y-208611904D01*
X215945357Y-208040476D01*
X216097738Y-208611904D01*
X216288214Y-207811904D01*
X174035714Y-211952380D02*
X173559523Y-211952380D01*
X173511904Y-212428571D01*
X173559523Y-212380952D01*
X173654761Y-212333333D01*
X173892857Y-212333333D01*
X173988095Y-212380952D01*
X174035714Y-212428571D01*
X174083333Y-212523809D01*
X174083333Y-212761904D01*
X174035714Y-212857142D01*
X173988095Y-212904761D01*
X173892857Y-212952380D01*
X173654761Y-212952380D01*
X173559523Y-212904761D01*
X173511904Y-212857142D01*
X174369047Y-211952380D02*
X174702380Y-212952380D01*
X175035714Y-211952380D01*
X175559523Y-211952380D02*
X175750000Y-211952380D01*
X175845238Y-212000000D01*
X175940476Y-212095238D01*
X175988095Y-212285714D01*
X175988095Y-212619047D01*
X175940476Y-212809523D01*
X175845238Y-212904761D01*
X175750000Y-212952380D01*
X175559523Y-212952380D01*
X175464285Y-212904761D01*
X175369047Y-212809523D01*
X175321428Y-212619047D01*
X175321428Y-212285714D01*
X175369047Y-212095238D01*
X175464285Y-212000000D01*
X175559523Y-211952380D01*
X176988095Y-212857142D02*
X176940476Y-212904761D01*
X176797619Y-212952380D01*
X176702380Y-212952380D01*
X176559523Y-212904761D01*
X176464285Y-212809523D01*
X176416666Y-212714285D01*
X176369047Y-212523809D01*
X176369047Y-212380952D01*
X176416666Y-212190476D01*
X176464285Y-212095238D01*
X176559523Y-212000000D01*
X176702380Y-211952380D01*
X176797619Y-211952380D01*
X176940476Y-212000000D01*
X176988095Y-212047619D01*
X215297738Y-209311904D02*
X214916785Y-209311904D01*
X214878690Y-209692857D01*
X214916785Y-209654761D01*
X214992976Y-209616666D01*
X215183452Y-209616666D01*
X215259642Y-209654761D01*
X215297738Y-209692857D01*
X215335833Y-209769047D01*
X215335833Y-209959523D01*
X215297738Y-210035714D01*
X215259642Y-210073809D01*
X215183452Y-210111904D01*
X214992976Y-210111904D01*
X214916785Y-210073809D01*
X214878690Y-210035714D01*
X215602500Y-209311904D02*
X215792976Y-210111904D01*
X215945357Y-209540476D01*
X216097738Y-210111904D01*
X216288214Y-209311904D01*
X168107142Y-212952380D02*
X167535714Y-212952380D01*
X167821428Y-212952380D02*
X167821428Y-211952380D01*
X167726190Y-212095238D01*
X167630952Y-212190476D01*
X167535714Y-212238095D01*
X169011904Y-211952380D02*
X168535714Y-211952380D01*
X168488095Y-212428571D01*
X168535714Y-212380952D01*
X168630952Y-212333333D01*
X168869047Y-212333333D01*
X168964285Y-212380952D01*
X169011904Y-212428571D01*
X169059523Y-212523809D01*
X169059523Y-212761904D01*
X169011904Y-212857142D01*
X168964285Y-212904761D01*
X168869047Y-212952380D01*
X168630952Y-212952380D01*
X168535714Y-212904761D01*
X168488095Y-212857142D01*
X169345238Y-211952380D02*
X169678571Y-212952380D01*
X170011904Y-211952380D01*
X170535714Y-211952380D02*
X170726190Y-211952380D01*
X170821428Y-212000000D01*
X170916666Y-212095238D01*
X170964285Y-212285714D01*
X170964285Y-212619047D01*
X170916666Y-212809523D01*
X170821428Y-212904761D01*
X170726190Y-212952380D01*
X170535714Y-212952380D01*
X170440476Y-212904761D01*
X170345238Y-212809523D01*
X170297619Y-212619047D01*
X170297619Y-212285714D01*
X170345238Y-212095238D01*
X170440476Y-212000000D01*
X170535714Y-211952380D01*
X171964285Y-212857142D02*
X171916666Y-212904761D01*
X171773809Y-212952380D01*
X171678571Y-212952380D01*
X171535714Y-212904761D01*
X171440476Y-212809523D01*
X171392857Y-212714285D01*
X171345238Y-212523809D01*
X171345238Y-212380952D01*
X171392857Y-212190476D01*
X171440476Y-212095238D01*
X171535714Y-212000000D01*
X171678571Y-211952380D01*
X171773809Y-211952380D01*
X171916666Y-212000000D01*
X171964285Y-212047619D01*
X220921547Y-210111904D02*
X220464404Y-210111904D01*
X220692976Y-210111904D02*
X220692976Y-209311904D01*
X220616785Y-209426190D01*
X220540595Y-209502380D01*
X220464404Y-209540476D01*
X221264404Y-210035714D02*
X221302500Y-210073809D01*
X221264404Y-210111904D01*
X221226309Y-210073809D01*
X221264404Y-210035714D01*
X221264404Y-210111904D01*
X221797738Y-209311904D02*
X221873928Y-209311904D01*
X221950119Y-209350000D01*
X221988214Y-209388095D01*
X222026309Y-209464285D01*
X222064404Y-209616666D01*
X222064404Y-209807142D01*
X222026309Y-209959523D01*
X221988214Y-210035714D01*
X221950119Y-210073809D01*
X221873928Y-210111904D01*
X221797738Y-210111904D01*
X221721547Y-210073809D01*
X221683452Y-210035714D01*
X221645357Y-209959523D01*
X221607261Y-209807142D01*
X221607261Y-209616666D01*
X221645357Y-209464285D01*
X221683452Y-209388095D01*
X221721547Y-209350000D01*
X221797738Y-209311904D01*
X222369166Y-209883333D02*
X222750119Y-209883333D01*
X222292976Y-210111904D02*
X222559642Y-209311904D01*
X222826309Y-210111904D01*
X211261904Y-82000000D02*
X211357142Y-82047619D01*
X211500000Y-82047619D01*
X211642857Y-82000000D01*
X211738095Y-81904761D01*
X211785714Y-81809523D01*
X211833333Y-81619047D01*
X211833333Y-81476190D01*
X211785714Y-81285714D01*
X211738095Y-81190476D01*
X211642857Y-81095238D01*
X211500000Y-81047619D01*
X211404761Y-81047619D01*
X211261904Y-81095238D01*
X211214285Y-81142857D01*
X211214285Y-81476190D01*
X211404761Y-81476190D01*
X210785714Y-81047619D02*
X210785714Y-82047619D01*
X210214285Y-81047619D01*
X210214285Y-82047619D01*
X209738095Y-81047619D02*
X209738095Y-82047619D01*
X209500000Y-82047619D01*
X209357142Y-82000000D01*
X209261904Y-81904761D01*
X209214285Y-81809523D01*
X209166666Y-81619047D01*
X209166666Y-81476190D01*
X209214285Y-81285714D01*
X209261904Y-81190476D01*
X209357142Y-81095238D01*
X209500000Y-81047619D01*
X209738095Y-81047619D01*
X201988095Y-105821428D02*
X202750000Y-105821428D01*
X202369047Y-106202380D02*
X202369047Y-105440476D01*
X203750000Y-106202380D02*
X203178571Y-106202380D01*
X203464285Y-106202380D02*
X203464285Y-105202380D01*
X203369047Y-105345238D01*
X203273809Y-105440476D01*
X203178571Y-105488095D01*
X204654761Y-105202380D02*
X204178571Y-105202380D01*
X204130952Y-105678571D01*
X204178571Y-105630952D01*
X204273809Y-105583333D01*
X204511904Y-105583333D01*
X204607142Y-105630952D01*
X204654761Y-105678571D01*
X204702380Y-105773809D01*
X204702380Y-106011904D01*
X204654761Y-106107142D01*
X204607142Y-106154761D01*
X204511904Y-106202380D01*
X204273809Y-106202380D01*
X204178571Y-106154761D01*
X204130952Y-106107142D01*
X204988095Y-105202380D02*
X205321428Y-106202380D01*
X205654761Y-105202380D01*
X212516785Y-205111904D02*
X212516785Y-204311904D01*
X212821547Y-204311904D01*
X212897738Y-204350000D01*
X212935833Y-204388095D01*
X212973928Y-204464285D01*
X212973928Y-204578571D01*
X212935833Y-204654761D01*
X212897738Y-204692857D01*
X212821547Y-204730952D01*
X212516785Y-204730952D01*
X213469166Y-204311904D02*
X213621547Y-204311904D01*
X213697738Y-204350000D01*
X213773928Y-204426190D01*
X213812023Y-204578571D01*
X213812023Y-204845238D01*
X213773928Y-204997619D01*
X213697738Y-205073809D01*
X213621547Y-205111904D01*
X213469166Y-205111904D01*
X213392976Y-205073809D01*
X213316785Y-204997619D01*
X213278690Y-204845238D01*
X213278690Y-204578571D01*
X213316785Y-204426190D01*
X213392976Y-204350000D01*
X213469166Y-204311904D01*
X214078690Y-204311904D02*
X214269166Y-205111904D01*
X214421547Y-204540476D01*
X214573928Y-205111904D01*
X214764404Y-204311904D01*
X215069166Y-204692857D02*
X215335833Y-204692857D01*
X215450119Y-205111904D02*
X215069166Y-205111904D01*
X215069166Y-204311904D01*
X215450119Y-204311904D01*
X216250119Y-205111904D02*
X215983452Y-204730952D01*
X215792976Y-205111904D02*
X215792976Y-204311904D01*
X216097738Y-204311904D01*
X216173928Y-204350000D01*
X216212023Y-204388095D01*
X216250119Y-204464285D01*
X216250119Y-204578571D01*
X216212023Y-204654761D01*
X216173928Y-204692857D01*
X216097738Y-204730952D01*
X215792976Y-204730952D01*
X167988095Y-105821428D02*
X168750000Y-105821428D01*
X168369047Y-106202380D02*
X168369047Y-105440476D01*
X169178571Y-105297619D02*
X169226190Y-105250000D01*
X169321428Y-105202380D01*
X169559523Y-105202380D01*
X169654761Y-105250000D01*
X169702380Y-105297619D01*
X169750000Y-105392857D01*
X169750000Y-105488095D01*
X169702380Y-105630952D01*
X169130952Y-106202380D01*
X169750000Y-106202380D01*
X170607142Y-105535714D02*
X170607142Y-106202380D01*
X170369047Y-105154761D02*
X170130952Y-105869047D01*
X170750000Y-105869047D01*
X170988095Y-105202380D02*
X171321428Y-106202380D01*
X171654761Y-105202380D01*
X167166666Y-129202380D02*
X167500000Y-130202380D01*
X167833333Y-129202380D01*
X168738095Y-130107142D02*
X168690476Y-130154761D01*
X168547619Y-130202380D01*
X168452380Y-130202380D01*
X168309523Y-130154761D01*
X168214285Y-130059523D01*
X168166666Y-129964285D01*
X168119047Y-129773809D01*
X168119047Y-129630952D01*
X168166666Y-129440476D01*
X168214285Y-129345238D01*
X168309523Y-129250000D01*
X168452380Y-129202380D01*
X168547619Y-129202380D01*
X168690476Y-129250000D01*
X168738095Y-129297619D01*
X169738095Y-130107142D02*
X169690476Y-130154761D01*
X169547619Y-130202380D01*
X169452380Y-130202380D01*
X169309523Y-130154761D01*
X169214285Y-130059523D01*
X169166666Y-129964285D01*
X169119047Y-129773809D01*
X169119047Y-129630952D01*
X169166666Y-129440476D01*
X169214285Y-129345238D01*
X169309523Y-129250000D01*
X169452380Y-129202380D01*
X169547619Y-129202380D01*
X169690476Y-129250000D01*
X169738095Y-129297619D01*
X160761904Y-101250000D02*
X160666666Y-101202380D01*
X160523809Y-101202380D01*
X160380952Y-101250000D01*
X160285714Y-101345238D01*
X160238095Y-101440476D01*
X160190476Y-101630952D01*
X160190476Y-101773809D01*
X160238095Y-101964285D01*
X160285714Y-102059523D01*
X160380952Y-102154761D01*
X160523809Y-102202380D01*
X160619047Y-102202380D01*
X160761904Y-102154761D01*
X160809523Y-102107142D01*
X160809523Y-101773809D01*
X160619047Y-101773809D01*
X210738095Y-108321428D02*
X211500000Y-108321428D01*
X211119047Y-108702380D02*
X211119047Y-107940476D01*
X211928571Y-107797619D02*
X211976190Y-107750000D01*
X212071428Y-107702380D01*
X212309523Y-107702380D01*
X212404761Y-107750000D01*
X212452380Y-107797619D01*
X212500000Y-107892857D01*
X212500000Y-107988095D01*
X212452380Y-108130952D01*
X211880952Y-108702380D01*
X212500000Y-108702380D01*
X213357142Y-108035714D02*
X213357142Y-108702380D01*
X213119047Y-107654761D02*
X212880952Y-108369047D01*
X213500000Y-108369047D01*
X213738095Y-107702380D02*
X214071428Y-108702380D01*
X214404761Y-107702380D01*
X194738095Y-212571428D02*
X195500000Y-212571428D01*
X195119047Y-212952380D02*
X195119047Y-212190476D01*
X196500000Y-212952380D02*
X195928571Y-212952380D01*
X196214285Y-212952380D02*
X196214285Y-211952380D01*
X196119047Y-212095238D01*
X196023809Y-212190476D01*
X195928571Y-212238095D01*
X197404761Y-211952380D02*
X196928571Y-211952380D01*
X196880952Y-212428571D01*
X196928571Y-212380952D01*
X197023809Y-212333333D01*
X197261904Y-212333333D01*
X197357142Y-212380952D01*
X197404761Y-212428571D01*
X197452380Y-212523809D01*
X197452380Y-212761904D01*
X197404761Y-212857142D01*
X197357142Y-212904761D01*
X197261904Y-212952380D01*
X197023809Y-212952380D01*
X196928571Y-212904761D01*
X196880952Y-212857142D01*
X197738095Y-211952380D02*
X198071428Y-212952380D01*
X198404761Y-211952380D01*
X214116785Y-206388095D02*
X214154880Y-206350000D01*
X214231071Y-206311904D01*
X214421547Y-206311904D01*
X214497738Y-206350000D01*
X214535833Y-206388095D01*
X214573928Y-206464285D01*
X214573928Y-206540476D01*
X214535833Y-206654761D01*
X214078690Y-207111904D01*
X214573928Y-207111904D01*
X215259642Y-206578571D02*
X215259642Y-207111904D01*
X215069166Y-206273809D02*
X214878690Y-206845238D01*
X215373928Y-206845238D01*
X215602500Y-206311904D02*
X215792976Y-207111904D01*
X215945357Y-206540476D01*
X216097738Y-207111904D01*
X216288214Y-206311904D01*
X188835595Y-82592380D02*
X188835595Y-81592380D01*
X189407023Y-82592380D01*
X189407023Y-81592380D01*
X190454642Y-82592380D02*
X190121309Y-82116190D01*
X189883214Y-82592380D02*
X189883214Y-81592380D01*
X190264166Y-81592380D01*
X190359404Y-81640000D01*
X190407023Y-81687619D01*
X190454642Y-81782857D01*
X190454642Y-81925714D01*
X190407023Y-82020952D01*
X190359404Y-82068571D01*
X190264166Y-82116190D01*
X189883214Y-82116190D01*
X191407023Y-82592380D02*
X190835595Y-82592380D01*
X191121309Y-82592380D02*
X191121309Y-81592380D01*
X191026071Y-81735238D01*
X190930833Y-81830476D01*
X190835595Y-81878095D01*
X192168928Y-82068571D02*
X192311785Y-82116190D01*
X192359404Y-82163809D01*
X192407023Y-82259047D01*
X192407023Y-82401904D01*
X192359404Y-82497142D01*
X192311785Y-82544761D01*
X192216547Y-82592380D01*
X191835595Y-82592380D01*
X191835595Y-81592380D01*
X192168928Y-81592380D01*
X192264166Y-81640000D01*
X192311785Y-81687619D01*
X192359404Y-81782857D01*
X192359404Y-81878095D01*
X192311785Y-81973333D01*
X192264166Y-82020952D01*
X192168928Y-82068571D01*
X191835595Y-82068571D01*
X193597500Y-82592380D02*
X193597500Y-81592380D01*
X193978452Y-81592380D01*
X194073690Y-81640000D01*
X194121309Y-81687619D01*
X194168928Y-81782857D01*
X194168928Y-81925714D01*
X194121309Y-82020952D01*
X194073690Y-82068571D01*
X193978452Y-82116190D01*
X193597500Y-82116190D01*
X194740357Y-82592380D02*
X194645119Y-82544761D01*
X194597500Y-82497142D01*
X194549880Y-82401904D01*
X194549880Y-82116190D01*
X194597500Y-82020952D01*
X194645119Y-81973333D01*
X194740357Y-81925714D01*
X194883214Y-81925714D01*
X194978452Y-81973333D01*
X195026071Y-82020952D01*
X195073690Y-82116190D01*
X195073690Y-82401904D01*
X195026071Y-82497142D01*
X194978452Y-82544761D01*
X194883214Y-82592380D01*
X194740357Y-82592380D01*
X195407023Y-81925714D02*
X195597500Y-82592380D01*
X195787976Y-82116190D01*
X195978452Y-82592380D01*
X196168928Y-81925714D01*
X196930833Y-82544761D02*
X196835595Y-82592380D01*
X196645119Y-82592380D01*
X196549880Y-82544761D01*
X196502261Y-82449523D01*
X196502261Y-82068571D01*
X196549880Y-81973333D01*
X196645119Y-81925714D01*
X196835595Y-81925714D01*
X196930833Y-81973333D01*
X196978452Y-82068571D01*
X196978452Y-82163809D01*
X196502261Y-82259047D01*
X197407023Y-82592380D02*
X197407023Y-81925714D01*
X197407023Y-82116190D02*
X197454642Y-82020952D01*
X197502261Y-81973333D01*
X197597500Y-81925714D01*
X197692738Y-81925714D01*
X199121309Y-82068571D02*
X199264166Y-82116190D01*
X199311785Y-82163809D01*
X199359404Y-82259047D01*
X199359404Y-82401904D01*
X199311785Y-82497142D01*
X199264166Y-82544761D01*
X199168928Y-82592380D01*
X198787976Y-82592380D01*
X198787976Y-81592380D01*
X199121309Y-81592380D01*
X199216547Y-81640000D01*
X199264166Y-81687619D01*
X199311785Y-81782857D01*
X199311785Y-81878095D01*
X199264166Y-81973333D01*
X199216547Y-82020952D01*
X199121309Y-82068571D01*
X198787976Y-82068571D01*
X199930833Y-82592380D02*
X199835595Y-82544761D01*
X199787976Y-82497142D01*
X199740357Y-82401904D01*
X199740357Y-82116190D01*
X199787976Y-82020952D01*
X199835595Y-81973333D01*
X199930833Y-81925714D01*
X200073690Y-81925714D01*
X200168928Y-81973333D01*
X200216547Y-82020952D01*
X200264166Y-82116190D01*
X200264166Y-82401904D01*
X200216547Y-82497142D01*
X200168928Y-82544761D01*
X200073690Y-82592380D01*
X199930833Y-82592380D01*
X201121309Y-82592380D02*
X201121309Y-82068571D01*
X201073690Y-81973333D01*
X200978452Y-81925714D01*
X200787976Y-81925714D01*
X200692738Y-81973333D01*
X201121309Y-82544761D02*
X201026071Y-82592380D01*
X200787976Y-82592380D01*
X200692738Y-82544761D01*
X200645119Y-82449523D01*
X200645119Y-82354285D01*
X200692738Y-82259047D01*
X200787976Y-82211428D01*
X201026071Y-82211428D01*
X201121309Y-82163809D01*
X201597500Y-82592380D02*
X201597500Y-81925714D01*
X201597500Y-82116190D02*
X201645119Y-82020952D01*
X201692738Y-81973333D01*
X201787976Y-81925714D01*
X201883214Y-81925714D01*
X202645119Y-82592380D02*
X202645119Y-81592380D01*
X202645119Y-82544761D02*
X202549880Y-82592380D01*
X202359404Y-82592380D01*
X202264166Y-82544761D01*
X202216547Y-82497142D01*
X202168928Y-82401904D01*
X202168928Y-82116190D01*
X202216547Y-82020952D01*
X202264166Y-81973333D01*
X202359404Y-81925714D01*
X202549880Y-81925714D01*
X202645119Y-81973333D01*
X188835595Y-84202380D02*
X188835595Y-83202380D01*
X189311785Y-83535714D02*
X189311785Y-84202380D01*
X189311785Y-83630952D02*
X189359404Y-83583333D01*
X189454642Y-83535714D01*
X189597500Y-83535714D01*
X189692738Y-83583333D01*
X189740357Y-83678571D01*
X189740357Y-84202380D01*
X190216547Y-84107142D02*
X190264166Y-84154761D01*
X190216547Y-84202380D01*
X190168928Y-84154761D01*
X190216547Y-84107142D01*
X190216547Y-84202380D01*
X190216547Y-83583333D02*
X190264166Y-83630952D01*
X190216547Y-83678571D01*
X190168928Y-83630952D01*
X190216547Y-83583333D01*
X190216547Y-83678571D01*
X191407023Y-83297619D02*
X191454642Y-83250000D01*
X191549880Y-83202380D01*
X191787976Y-83202380D01*
X191883214Y-83250000D01*
X191930833Y-83297619D01*
X191978452Y-83392857D01*
X191978452Y-83488095D01*
X191930833Y-83630952D01*
X191359404Y-84202380D01*
X191978452Y-84202380D01*
X192835595Y-83535714D02*
X192835595Y-84202380D01*
X192597500Y-83154761D02*
X192359404Y-83869047D01*
X192978452Y-83869047D01*
X193216547Y-83202380D02*
X193549880Y-84202380D01*
X193883214Y-83202380D01*
X195597500Y-83726190D02*
X195549880Y-83678571D01*
X195454642Y-83630952D01*
X195359404Y-83630952D01*
X195264166Y-83678571D01*
X195216547Y-83726190D01*
X195168928Y-83821428D01*
X195168928Y-83916666D01*
X195216547Y-84011904D01*
X195264166Y-84059523D01*
X195359404Y-84107142D01*
X195454642Y-84107142D01*
X195549880Y-84059523D01*
X195597500Y-84011904D01*
X195597500Y-83630952D02*
X195597500Y-84011904D01*
X195645119Y-84059523D01*
X195692738Y-84059523D01*
X195787976Y-84011904D01*
X195835595Y-83916666D01*
X195835595Y-83678571D01*
X195740357Y-83535714D01*
X195597500Y-83440476D01*
X195407023Y-83392857D01*
X195216547Y-83440476D01*
X195073690Y-83535714D01*
X194978452Y-83678571D01*
X194930833Y-83869047D01*
X194978452Y-84059523D01*
X195073690Y-84202380D01*
X195216547Y-84297619D01*
X195407023Y-84345238D01*
X195597500Y-84297619D01*
X195740357Y-84202380D01*
X197549880Y-84202380D02*
X196978452Y-84202380D01*
X197264166Y-84202380D02*
X197264166Y-83202380D01*
X197168928Y-83345238D01*
X197073690Y-83440476D01*
X196978452Y-83488095D01*
X197930833Y-83916666D02*
X198407023Y-83916666D01*
X197835595Y-84202380D02*
X198168928Y-83202380D01*
X198502261Y-84202380D01*
X189026071Y-84812380D02*
X189216547Y-84812380D01*
X189311785Y-84860000D01*
X189407023Y-84955238D01*
X189454642Y-85145714D01*
X189454642Y-85479047D01*
X189407023Y-85669523D01*
X189311785Y-85764761D01*
X189216547Y-85812380D01*
X189026071Y-85812380D01*
X188930833Y-85764761D01*
X188835595Y-85669523D01*
X188787976Y-85479047D01*
X188787976Y-85145714D01*
X188835595Y-84955238D01*
X188930833Y-84860000D01*
X189026071Y-84812380D01*
X190311785Y-85145714D02*
X190311785Y-85812380D01*
X189883214Y-85145714D02*
X189883214Y-85669523D01*
X189930833Y-85764761D01*
X190026071Y-85812380D01*
X190168928Y-85812380D01*
X190264166Y-85764761D01*
X190311785Y-85717142D01*
X190645119Y-85145714D02*
X191026071Y-85145714D01*
X190787976Y-84812380D02*
X190787976Y-85669523D01*
X190835595Y-85764761D01*
X190930833Y-85812380D01*
X191026071Y-85812380D01*
X191359404Y-85717142D02*
X191407023Y-85764761D01*
X191359404Y-85812380D01*
X191311785Y-85764761D01*
X191359404Y-85717142D01*
X191359404Y-85812380D01*
X191359404Y-85193333D02*
X191407023Y-85240952D01*
X191359404Y-85288571D01*
X191311785Y-85240952D01*
X191359404Y-85193333D01*
X191359404Y-85288571D01*
X192597500Y-85431428D02*
X193359404Y-85431428D01*
X192978452Y-85812380D02*
X192978452Y-85050476D01*
X193787976Y-84907619D02*
X193835595Y-84860000D01*
X193930833Y-84812380D01*
X194168928Y-84812380D01*
X194264166Y-84860000D01*
X194311785Y-84907619D01*
X194359404Y-85002857D01*
X194359404Y-85098095D01*
X194311785Y-85240952D01*
X193740357Y-85812380D01*
X194359404Y-85812380D01*
X195216547Y-85145714D02*
X195216547Y-85812380D01*
X194978452Y-84764761D02*
X194740357Y-85479047D01*
X195359404Y-85479047D01*
X195787976Y-85764761D02*
X195787976Y-85812380D01*
X195740357Y-85907619D01*
X195692738Y-85955238D01*
X196978452Y-85431428D02*
X197740357Y-85431428D01*
X197359404Y-85812380D02*
X197359404Y-85050476D01*
X198930833Y-84764761D02*
X198073690Y-86050476D01*
X199264166Y-85431428D02*
X200026071Y-85431428D01*
X201026071Y-85812380D02*
X200454642Y-85812380D01*
X200740357Y-85812380D02*
X200740357Y-84812380D01*
X200645119Y-84955238D01*
X200549880Y-85050476D01*
X200454642Y-85098095D01*
X201930833Y-84812380D02*
X201454642Y-84812380D01*
X201407023Y-85288571D01*
X201454642Y-85240952D01*
X201549880Y-85193333D01*
X201787976Y-85193333D01*
X201883214Y-85240952D01*
X201930833Y-85288571D01*
X201978452Y-85383809D01*
X201978452Y-85621904D01*
X201930833Y-85717142D01*
X201883214Y-85764761D01*
X201787976Y-85812380D01*
X201549880Y-85812380D01*
X201454642Y-85764761D01*
X201407023Y-85717142D01*
X202454642Y-85764761D02*
X202454642Y-85812380D01*
X202407023Y-85907619D01*
X202359404Y-85955238D01*
X203645119Y-85431428D02*
X204407023Y-85431428D01*
X204026071Y-85812380D02*
X204026071Y-85050476D01*
X205359404Y-84812380D02*
X204883214Y-84812380D01*
X204835595Y-85288571D01*
X204883214Y-85240952D01*
X204978452Y-85193333D01*
X205216547Y-85193333D01*
X205311785Y-85240952D01*
X205359404Y-85288571D01*
X205407023Y-85383809D01*
X205407023Y-85621904D01*
X205359404Y-85717142D01*
X205311785Y-85764761D01*
X205216547Y-85812380D01*
X204978452Y-85812380D01*
X204883214Y-85764761D01*
X204835595Y-85717142D01*
X199738095Y-212571428D02*
X200500000Y-212571428D01*
X201500000Y-212952380D02*
X200928571Y-212952380D01*
X201214285Y-212952380D02*
X201214285Y-211952380D01*
X201119047Y-212095238D01*
X201023809Y-212190476D01*
X200928571Y-212238095D01*
X202404761Y-211952380D02*
X201928571Y-211952380D01*
X201880952Y-212428571D01*
X201928571Y-212380952D01*
X202023809Y-212333333D01*
X202261904Y-212333333D01*
X202357142Y-212380952D01*
X202404761Y-212428571D01*
X202452380Y-212523809D01*
X202452380Y-212761904D01*
X202404761Y-212857142D01*
X202357142Y-212904761D01*
X202261904Y-212952380D01*
X202023809Y-212952380D01*
X201928571Y-212904761D01*
X201880952Y-212857142D01*
X202738095Y-211952380D02*
X203071428Y-212952380D01*
X203404761Y-211952380D01*
X213321428Y-154420000D02*
X214559523Y-154420000D01*
X213559523Y-155321428D02*
X214321428Y-155321428D01*
X213940476Y-155702380D02*
X213940476Y-154940476D01*
X214559523Y-154420000D02*
X215511904Y-154420000D01*
X215321428Y-155702380D02*
X214750000Y-155702380D01*
X215035714Y-155702380D02*
X215035714Y-154702380D01*
X214940476Y-154845238D01*
X214845238Y-154940476D01*
X214750000Y-154988095D01*
X215511904Y-154420000D02*
X216464285Y-154420000D01*
X216226190Y-154702380D02*
X215750000Y-154702380D01*
X215702380Y-155178571D01*
X215750000Y-155130952D01*
X215845238Y-155083333D01*
X216083333Y-155083333D01*
X216178571Y-155130952D01*
X216226190Y-155178571D01*
X216273809Y-155273809D01*
X216273809Y-155511904D01*
X216226190Y-155607142D01*
X216178571Y-155654761D01*
X216083333Y-155702380D01*
X215845238Y-155702380D01*
X215750000Y-155654761D01*
X215702380Y-155607142D01*
X216464285Y-154420000D02*
X217321428Y-154420000D01*
X216559523Y-154702380D02*
X216892857Y-155702380D01*
X217226190Y-154702380D01*
X217321428Y-154420000D02*
X218083333Y-154420000D01*
X217321428Y-155797619D02*
X218083333Y-155797619D01*
X218083333Y-154420000D02*
X219083333Y-154420000D01*
X218845238Y-154750000D02*
X218750000Y-154702380D01*
X218607142Y-154702380D01*
X218464285Y-154750000D01*
X218369047Y-154845238D01*
X218321428Y-154940476D01*
X218273809Y-155130952D01*
X218273809Y-155273809D01*
X218321428Y-155464285D01*
X218369047Y-155559523D01*
X218464285Y-155654761D01*
X218607142Y-155702380D01*
X218702380Y-155702380D01*
X218845238Y-155654761D01*
X218892857Y-155607142D01*
X218892857Y-155273809D01*
X218702380Y-155273809D01*
X219083333Y-154420000D02*
X220130952Y-154420000D01*
X219511904Y-154702380D02*
X219702380Y-154702380D01*
X219797619Y-154750000D01*
X219892857Y-154845238D01*
X219940476Y-155035714D01*
X219940476Y-155369047D01*
X219892857Y-155559523D01*
X219797619Y-155654761D01*
X219702380Y-155702380D01*
X219511904Y-155702380D01*
X219416666Y-155654761D01*
X219321428Y-155559523D01*
X219273809Y-155369047D01*
X219273809Y-155035714D01*
X219321428Y-154845238D01*
X219416666Y-154750000D01*
X219511904Y-154702380D01*
X220130952Y-154420000D02*
X221178571Y-154420000D01*
X220559523Y-154702380D02*
X220750000Y-154702380D01*
X220845238Y-154750000D01*
X220940476Y-154845238D01*
X220988095Y-155035714D01*
X220988095Y-155369047D01*
X220940476Y-155559523D01*
X220845238Y-155654761D01*
X220750000Y-155702380D01*
X220559523Y-155702380D01*
X220464285Y-155654761D01*
X220369047Y-155559523D01*
X220321428Y-155369047D01*
X220321428Y-155035714D01*
X220369047Y-154845238D01*
X220464285Y-154750000D01*
X220559523Y-154702380D01*
X221178571Y-154420000D02*
X222178571Y-154420000D01*
X221416666Y-155702380D02*
X221416666Y-154702380D01*
X221654761Y-154702380D01*
X221797619Y-154750000D01*
X221892857Y-154845238D01*
X221940476Y-154940476D01*
X221988095Y-155130952D01*
X221988095Y-155273809D01*
X221940476Y-155464285D01*
X221892857Y-155559523D01*
X221797619Y-155654761D01*
X221654761Y-155702380D01*
X221416666Y-155702380D01*
X186809523Y-211952380D02*
X186333333Y-211952380D01*
X186285714Y-212428571D01*
X186333333Y-212380952D01*
X186428571Y-212333333D01*
X186666666Y-212333333D01*
X186761904Y-212380952D01*
X186809523Y-212428571D01*
X186857142Y-212523809D01*
X186857142Y-212761904D01*
X186809523Y-212857142D01*
X186761904Y-212904761D01*
X186666666Y-212952380D01*
X186428571Y-212952380D01*
X186333333Y-212904761D01*
X186285714Y-212857142D01*
X187142857Y-211952380D02*
X187476190Y-212952380D01*
X187809523Y-211952380D01*
X217683452Y-208307142D02*
X218292976Y-208307142D01*
X217988214Y-208611904D02*
X217988214Y-208002380D01*
X219245357Y-207773809D02*
X218559642Y-208802380D01*
X219512023Y-208307142D02*
X220121547Y-208307142D01*
X220654880Y-207811904D02*
X220731071Y-207811904D01*
X220807261Y-207850000D01*
X220845357Y-207888095D01*
X220883452Y-207964285D01*
X220921547Y-208116666D01*
X220921547Y-208307142D01*
X220883452Y-208459523D01*
X220845357Y-208535714D01*
X220807261Y-208573809D01*
X220731071Y-208611904D01*
X220654880Y-208611904D01*
X220578690Y-208573809D01*
X220540595Y-208535714D01*
X220502500Y-208459523D01*
X220464404Y-208307142D01*
X220464404Y-208116666D01*
X220502500Y-207964285D01*
X220540595Y-207888095D01*
X220578690Y-207850000D01*
X220654880Y-207811904D01*
X221264404Y-208535714D02*
X221302500Y-208573809D01*
X221264404Y-208611904D01*
X221226309Y-208573809D01*
X221264404Y-208535714D01*
X221264404Y-208611904D01*
X221607261Y-207888095D02*
X221645357Y-207850000D01*
X221721547Y-207811904D01*
X221912023Y-207811904D01*
X221988214Y-207850000D01*
X222026309Y-207888095D01*
X222064404Y-207964285D01*
X222064404Y-208040476D01*
X222026309Y-208154761D01*
X221569166Y-208611904D01*
X222064404Y-208611904D01*
X222369166Y-208383333D02*
X222750119Y-208383333D01*
X222292976Y-208611904D02*
X222559642Y-207811904D01*
X222826309Y-208611904D01*
X206314404Y-208307142D02*
X206923928Y-208307142D01*
X206619166Y-208611904D02*
X206619166Y-208002380D01*
X207876309Y-207773809D02*
X207190595Y-208802380D01*
X208142976Y-208307142D02*
X208752500Y-208307142D01*
X209552500Y-208611904D02*
X209095357Y-208611904D01*
X209323928Y-208611904D02*
X209323928Y-207811904D01*
X209247738Y-207926190D01*
X209171547Y-208002380D01*
X209095357Y-208040476D01*
X210276309Y-207811904D02*
X209895357Y-207811904D01*
X209857261Y-208192857D01*
X209895357Y-208154761D01*
X209971547Y-208116666D01*
X210162023Y-208116666D01*
X210238214Y-208154761D01*
X210276309Y-208192857D01*
X210314404Y-208269047D01*
X210314404Y-208459523D01*
X210276309Y-208535714D01*
X210238214Y-208573809D01*
X210162023Y-208611904D01*
X209971547Y-208611904D01*
X209895357Y-208573809D01*
X209857261Y-208535714D01*
X210542976Y-207811904D02*
X210809642Y-208611904D01*
X211076309Y-207811904D01*
X206380952Y-202952380D02*
X206047619Y-202476190D01*
X205809523Y-202952380D02*
X205809523Y-201952380D01*
X206190476Y-201952380D01*
X206285714Y-202000000D01*
X206333333Y-202047619D01*
X206380952Y-202142857D01*
X206380952Y-202285714D01*
X206333333Y-202380952D01*
X206285714Y-202428571D01*
X206190476Y-202476190D01*
X205809523Y-202476190D01*
X206761904Y-202666666D02*
X207238095Y-202666666D01*
X206666666Y-202952380D02*
X207000000Y-201952380D01*
X207333333Y-202952380D01*
X207666666Y-202952380D02*
X207666666Y-201952380D01*
X208619047Y-202952380D02*
X208142857Y-202952380D01*
X208142857Y-201952380D01*
X209714285Y-202952380D02*
X209714285Y-201952380D01*
X210095238Y-201952380D01*
X210190476Y-202000000D01*
X210238095Y-202047619D01*
X210285714Y-202142857D01*
X210285714Y-202285714D01*
X210238095Y-202380952D01*
X210190476Y-202428571D01*
X210095238Y-202476190D01*
X209714285Y-202476190D01*
X210904761Y-201952380D02*
X211095238Y-201952380D01*
X211190476Y-202000000D01*
X211285714Y-202095238D01*
X211333333Y-202285714D01*
X211333333Y-202619047D01*
X211285714Y-202809523D01*
X211190476Y-202904761D01*
X211095238Y-202952380D01*
X210904761Y-202952380D01*
X210809523Y-202904761D01*
X210714285Y-202809523D01*
X210666666Y-202619047D01*
X210666666Y-202285714D01*
X210714285Y-202095238D01*
X210809523Y-202000000D01*
X210904761Y-201952380D01*
X211666666Y-201952380D02*
X211904761Y-202952380D01*
X212095238Y-202238095D01*
X212285714Y-202952380D01*
X212523809Y-201952380D01*
X212904761Y-202428571D02*
X213238095Y-202428571D01*
X213380952Y-202952380D02*
X212904761Y-202952380D01*
X212904761Y-201952380D01*
X213380952Y-201952380D01*
X214380952Y-202952380D02*
X214047619Y-202476190D01*
X213809523Y-202952380D02*
X213809523Y-201952380D01*
X214190476Y-201952380D01*
X214285714Y-202000000D01*
X214333333Y-202047619D01*
X214380952Y-202142857D01*
X214380952Y-202285714D01*
X214333333Y-202380952D01*
X214285714Y-202428571D01*
X214190476Y-202476190D01*
X213809523Y-202476190D01*
X216142857Y-202952380D02*
X215809523Y-202476190D01*
X215571428Y-202952380D02*
X215571428Y-201952380D01*
X215952380Y-201952380D01*
X216047619Y-202000000D01*
X216095238Y-202047619D01*
X216142857Y-202142857D01*
X216142857Y-202285714D01*
X216095238Y-202380952D01*
X216047619Y-202428571D01*
X215952380Y-202476190D01*
X215571428Y-202476190D01*
X216523809Y-202666666D02*
X217000000Y-202666666D01*
X216428571Y-202952380D02*
X216761904Y-201952380D01*
X217095238Y-202952380D01*
X217285714Y-201952380D02*
X217857142Y-201952380D01*
X217571428Y-202952380D02*
X217571428Y-201952380D01*
X218190476Y-202952380D02*
X218190476Y-201952380D01*
X218666666Y-202952380D02*
X218666666Y-201952380D01*
X219238095Y-202952380D01*
X219238095Y-201952380D01*
X220238095Y-202000000D02*
X220142857Y-201952380D01*
X220000000Y-201952380D01*
X219857142Y-202000000D01*
X219761904Y-202095238D01*
X219714285Y-202190476D01*
X219666666Y-202380952D01*
X219666666Y-202523809D01*
X219714285Y-202714285D01*
X219761904Y-202809523D01*
X219857142Y-202904761D01*
X220000000Y-202952380D01*
X220095238Y-202952380D01*
X220238095Y-202904761D01*
X220285714Y-202857142D01*
X220285714Y-202523809D01*
X220095238Y-202523809D01*
X220666666Y-202904761D02*
X220809523Y-202952380D01*
X221047619Y-202952380D01*
X221142857Y-202904761D01*
X221190476Y-202857142D01*
X221238095Y-202761904D01*
X221238095Y-202666666D01*
X221190476Y-202571428D01*
X221142857Y-202523809D01*
X221047619Y-202476190D01*
X220857142Y-202428571D01*
X220761904Y-202380952D01*
X220714285Y-202333333D01*
X220666666Y-202238095D01*
X220666666Y-202142857D01*
X220714285Y-202047619D01*
X220761904Y-202000000D01*
X220857142Y-201952380D01*
X221095238Y-201952380D01*
X221238095Y-202000000D01*
X167214285Y-117071428D02*
X167976190Y-117071428D01*
X167595238Y-117452380D02*
X167595238Y-116690476D01*
X168928571Y-116452380D02*
X168452380Y-116452380D01*
X168404761Y-116928571D01*
X168452380Y-116880952D01*
X168547619Y-116833333D01*
X168785714Y-116833333D01*
X168880952Y-116880952D01*
X168928571Y-116928571D01*
X168976190Y-117023809D01*
X168976190Y-117261904D01*
X168928571Y-117357142D01*
X168880952Y-117404761D01*
X168785714Y-117452380D01*
X168547619Y-117452380D01*
X168452380Y-117404761D01*
X168404761Y-117357142D01*
X169261904Y-116452380D02*
X169595238Y-117452380D01*
X169928571Y-116452380D01*
X208142976Y-206807142D02*
X208752500Y-206807142D01*
X208447738Y-207111904D02*
X208447738Y-206502380D01*
X209095357Y-206388095D02*
X209133452Y-206350000D01*
X209209642Y-206311904D01*
X209400119Y-206311904D01*
X209476309Y-206350000D01*
X209514404Y-206388095D01*
X209552500Y-206464285D01*
X209552500Y-206540476D01*
X209514404Y-206654761D01*
X209057261Y-207111904D01*
X209552500Y-207111904D01*
X210238214Y-206578571D02*
X210238214Y-207111904D01*
X210047738Y-206273809D02*
X209857261Y-206845238D01*
X210352500Y-206845238D01*
X210542976Y-206311904D02*
X210809642Y-207111904D01*
X211076309Y-206311904D01*
X162821428Y-97011904D02*
X162821428Y-96250000D01*
X163202380Y-95250000D02*
X163202380Y-95821428D01*
X163202380Y-95535714D02*
X162202380Y-95535714D01*
X162345238Y-95630952D01*
X162440476Y-95726190D01*
X162488095Y-95821428D01*
X162202380Y-94345238D02*
X162202380Y-94821428D01*
X162678571Y-94869047D01*
X162630952Y-94821428D01*
X162583333Y-94726190D01*
X162583333Y-94488095D01*
X162630952Y-94392857D01*
X162678571Y-94345238D01*
X162773809Y-94297619D01*
X163011904Y-94297619D01*
X163107142Y-94345238D01*
X163154761Y-94392857D01*
X163202380Y-94488095D01*
X163202380Y-94726190D01*
X163154761Y-94821428D01*
X163107142Y-94869047D01*
X162202380Y-94011904D02*
X163202380Y-93678571D01*
X162202380Y-93345238D01*
X160309523Y-103952380D02*
X159833333Y-103952380D01*
X159785714Y-104428571D01*
X159833333Y-104380952D01*
X159928571Y-104333333D01*
X160166666Y-104333333D01*
X160261904Y-104380952D01*
X160309523Y-104428571D01*
X160357142Y-104523809D01*
X160357142Y-104761904D01*
X160309523Y-104857142D01*
X160261904Y-104904761D01*
X160166666Y-104952380D01*
X159928571Y-104952380D01*
X159833333Y-104904761D01*
X159785714Y-104857142D01*
X160642857Y-103952380D02*
X160976190Y-104952380D01*
X161309523Y-103952380D01*
X224690476Y-81952380D02*
X224642857Y-82000000D01*
X224547619Y-82047619D01*
X224309523Y-82047619D01*
X224214285Y-82000000D01*
X224166666Y-81952380D01*
X224119047Y-81857142D01*
X224119047Y-81761904D01*
X224166666Y-81619047D01*
X224738095Y-81047619D01*
X224119047Y-81047619D01*
X223261904Y-81714285D02*
X223261904Y-81047619D01*
X223500000Y-82095238D02*
X223738095Y-81380952D01*
X223119047Y-81380952D01*
X222880952Y-82047619D02*
X222547619Y-81047619D01*
X222214285Y-82047619D01*
X208904880Y-209807142D02*
X209514404Y-209807142D01*
X209209642Y-210111904D02*
X209209642Y-209502380D01*
X210276309Y-209311904D02*
X209895357Y-209311904D01*
X209857261Y-209692857D01*
X209895357Y-209654761D01*
X209971547Y-209616666D01*
X210162023Y-209616666D01*
X210238214Y-209654761D01*
X210276309Y-209692857D01*
X210314404Y-209769047D01*
X210314404Y-209959523D01*
X210276309Y-210035714D01*
X210238214Y-210073809D01*
X210162023Y-210111904D01*
X209971547Y-210111904D01*
X209895357Y-210073809D01*
X209857261Y-210035714D01*
X210542976Y-209311904D02*
X210809642Y-210111904D01*
X211076309Y-209311904D01*
X160761904Y-106500000D02*
X160666666Y-106452380D01*
X160523809Y-106452380D01*
X160380952Y-106500000D01*
X160285714Y-106595238D01*
X160238095Y-106690476D01*
X160190476Y-106880952D01*
X160190476Y-107023809D01*
X160238095Y-107214285D01*
X160285714Y-107309523D01*
X160380952Y-107404761D01*
X160523809Y-107452380D01*
X160619047Y-107452380D01*
X160761904Y-107404761D01*
X160809523Y-107357142D01*
X160809523Y-107023809D01*
X160619047Y-107023809D01*
X168261904Y-101500000D02*
X168166666Y-101452380D01*
X168023809Y-101452380D01*
X167880952Y-101500000D01*
X167785714Y-101595238D01*
X167738095Y-101690476D01*
X167690476Y-101880952D01*
X167690476Y-102023809D01*
X167738095Y-102214285D01*
X167785714Y-102309523D01*
X167880952Y-102404761D01*
X168023809Y-102452380D01*
X168119047Y-102452380D01*
X168261904Y-102404761D01*
X168309523Y-102357142D01*
X168309523Y-102023809D01*
X168119047Y-102023809D01*
X208035833Y-205111904D02*
X207769166Y-204730952D01*
X207578690Y-205111904D02*
X207578690Y-204311904D01*
X207883452Y-204311904D01*
X207959642Y-204350000D01*
X207997738Y-204388095D01*
X208035833Y-204464285D01*
X208035833Y-204578571D01*
X207997738Y-204654761D01*
X207959642Y-204692857D01*
X207883452Y-204730952D01*
X207578690Y-204730952D01*
X208340595Y-204883333D02*
X208721547Y-204883333D01*
X208264404Y-205111904D02*
X208531071Y-204311904D01*
X208797738Y-205111904D01*
X209064404Y-205111904D02*
X209064404Y-204311904D01*
X209826309Y-205111904D02*
X209445357Y-205111904D01*
X209445357Y-204311904D01*
%TO.C,C5*%
X216133333Y-161607142D02*
X216085714Y-161654761D01*
X215942857Y-161702380D01*
X215847619Y-161702380D01*
X215704761Y-161654761D01*
X215609523Y-161559523D01*
X215561904Y-161464285D01*
X215514285Y-161273809D01*
X215514285Y-161130952D01*
X215561904Y-160940476D01*
X215609523Y-160845238D01*
X215704761Y-160750000D01*
X215847619Y-160702380D01*
X215942857Y-160702380D01*
X216085714Y-160750000D01*
X216133333Y-160797619D01*
X217038095Y-160702380D02*
X216561904Y-160702380D01*
X216514285Y-161178571D01*
X216561904Y-161130952D01*
X216657142Y-161083333D01*
X216895238Y-161083333D01*
X216990476Y-161130952D01*
X217038095Y-161178571D01*
X217085714Y-161273809D01*
X217085714Y-161511904D01*
X217038095Y-161607142D01*
X216990476Y-161654761D01*
X216895238Y-161702380D01*
X216657142Y-161702380D01*
X216561904Y-161654761D01*
X216514285Y-161607142D01*
%TO.C,J2*%
X160416666Y-96202380D02*
X160416666Y-96916666D01*
X160369047Y-97059523D01*
X160273809Y-97154761D01*
X160130952Y-97202380D01*
X160035714Y-97202380D01*
X160845238Y-96297619D02*
X160892857Y-96250000D01*
X160988095Y-96202380D01*
X161226190Y-96202380D01*
X161321428Y-96250000D01*
X161369047Y-96297619D01*
X161416666Y-96392857D01*
X161416666Y-96488095D01*
X161369047Y-96630952D01*
X160797619Y-97202380D01*
X161416666Y-97202380D01*
%TO.C,U4*%
X192702380Y-193261904D02*
X193511904Y-193261904D01*
X193607142Y-193214285D01*
X193654761Y-193166666D01*
X193702380Y-193071428D01*
X193702380Y-192880952D01*
X193654761Y-192785714D01*
X193607142Y-192738095D01*
X193511904Y-192690476D01*
X192702380Y-192690476D01*
X193035714Y-191785714D02*
X193702380Y-191785714D01*
X192654761Y-192023809D02*
X193369047Y-192261904D01*
X193369047Y-191642857D01*
%TO.C,D5*%
X180802380Y-209988095D02*
X179802380Y-209988095D01*
X179802380Y-209750000D01*
X179850000Y-209607142D01*
X179945238Y-209511904D01*
X180040476Y-209464285D01*
X180230952Y-209416666D01*
X180373809Y-209416666D01*
X180564285Y-209464285D01*
X180659523Y-209511904D01*
X180754761Y-209607142D01*
X180802380Y-209750000D01*
X180802380Y-209988095D01*
X179802380Y-208511904D02*
X179802380Y-208988095D01*
X180278571Y-209035714D01*
X180230952Y-208988095D01*
X180183333Y-208892857D01*
X180183333Y-208654761D01*
X180230952Y-208559523D01*
X180278571Y-208511904D01*
X180373809Y-208464285D01*
X180611904Y-208464285D01*
X180707142Y-208511904D01*
X180754761Y-208559523D01*
X180802380Y-208654761D01*
X180802380Y-208892857D01*
X180754761Y-208988095D01*
X180707142Y-209035714D01*
%TO.C,D3*%
X200702380Y-209988095D02*
X199702380Y-209988095D01*
X199702380Y-209750000D01*
X199750000Y-209607142D01*
X199845238Y-209511904D01*
X199940476Y-209464285D01*
X200130952Y-209416666D01*
X200273809Y-209416666D01*
X200464285Y-209464285D01*
X200559523Y-209511904D01*
X200654761Y-209607142D01*
X200702380Y-209750000D01*
X200702380Y-209988095D01*
X199702380Y-209083333D02*
X199702380Y-208464285D01*
X200083333Y-208797619D01*
X200083333Y-208654761D01*
X200130952Y-208559523D01*
X200178571Y-208511904D01*
X200273809Y-208464285D01*
X200511904Y-208464285D01*
X200607142Y-208511904D01*
X200654761Y-208559523D01*
X200702380Y-208654761D01*
X200702380Y-208940476D01*
X200654761Y-209035714D01*
X200607142Y-209083333D01*
%TO.C,R6*%
X199102380Y-195254166D02*
X198626190Y-195587500D01*
X199102380Y-195825595D02*
X198102380Y-195825595D01*
X198102380Y-195444642D01*
X198150000Y-195349404D01*
X198197619Y-195301785D01*
X198292857Y-195254166D01*
X198435714Y-195254166D01*
X198530952Y-195301785D01*
X198578571Y-195349404D01*
X198626190Y-195444642D01*
X198626190Y-195825595D01*
X198102380Y-194397023D02*
X198102380Y-194587500D01*
X198150000Y-194682738D01*
X198197619Y-194730357D01*
X198340476Y-194825595D01*
X198530952Y-194873214D01*
X198911904Y-194873214D01*
X199007142Y-194825595D01*
X199054761Y-194777976D01*
X199102380Y-194682738D01*
X199102380Y-194492261D01*
X199054761Y-194397023D01*
X199007142Y-194349404D01*
X198911904Y-194301785D01*
X198673809Y-194301785D01*
X198578571Y-194349404D01*
X198530952Y-194397023D01*
X198483333Y-194492261D01*
X198483333Y-194682738D01*
X198530952Y-194777976D01*
X198578571Y-194825595D01*
X198673809Y-194873214D01*
%TO.C,R4*%
X200702380Y-201916666D02*
X200226190Y-202250000D01*
X200702380Y-202488095D02*
X199702380Y-202488095D01*
X199702380Y-202107142D01*
X199750000Y-202011904D01*
X199797619Y-201964285D01*
X199892857Y-201916666D01*
X200035714Y-201916666D01*
X200130952Y-201964285D01*
X200178571Y-202011904D01*
X200226190Y-202107142D01*
X200226190Y-202488095D01*
X200035714Y-201059523D02*
X200702380Y-201059523D01*
X199654761Y-201297619D02*
X200369047Y-201535714D01*
X200369047Y-200916666D01*
%TO.C,C3*%
X205357142Y-91416666D02*
X205404761Y-91464285D01*
X205452380Y-91607142D01*
X205452380Y-91702380D01*
X205404761Y-91845238D01*
X205309523Y-91940476D01*
X205214285Y-91988095D01*
X205023809Y-92035714D01*
X204880952Y-92035714D01*
X204690476Y-91988095D01*
X204595238Y-91940476D01*
X204500000Y-91845238D01*
X204452380Y-91702380D01*
X204452380Y-91607142D01*
X204500000Y-91464285D01*
X204547619Y-91416666D01*
X204452380Y-91083333D02*
X204452380Y-90464285D01*
X204833333Y-90797619D01*
X204833333Y-90654761D01*
X204880952Y-90559523D01*
X204928571Y-90511904D01*
X205023809Y-90464285D01*
X205261904Y-90464285D01*
X205357142Y-90511904D01*
X205404761Y-90559523D01*
X205452380Y-90654761D01*
X205452380Y-90940476D01*
X205404761Y-91035714D01*
X205357142Y-91083333D01*
%TO.C,FB1*%
X205916666Y-155428571D02*
X205583333Y-155428571D01*
X205583333Y-155952380D02*
X205583333Y-154952380D01*
X206059523Y-154952380D01*
X206773809Y-155428571D02*
X206916666Y-155476190D01*
X206964285Y-155523809D01*
X207011904Y-155619047D01*
X207011904Y-155761904D01*
X206964285Y-155857142D01*
X206916666Y-155904761D01*
X206821428Y-155952380D01*
X206440476Y-155952380D01*
X206440476Y-154952380D01*
X206773809Y-154952380D01*
X206869047Y-155000000D01*
X206916666Y-155047619D01*
X206964285Y-155142857D01*
X206964285Y-155238095D01*
X206916666Y-155333333D01*
X206869047Y-155380952D01*
X206773809Y-155428571D01*
X206440476Y-155428571D01*
X207964285Y-155952380D02*
X207392857Y-155952380D01*
X207678571Y-155952380D02*
X207678571Y-154952380D01*
X207583333Y-155095238D01*
X207488095Y-155190476D01*
X207392857Y-155238095D01*
%TO.C,F1*%
X222416666Y-93928571D02*
X222083333Y-93928571D01*
X222083333Y-94452380D02*
X222083333Y-93452380D01*
X222559523Y-93452380D01*
X223464285Y-94452380D02*
X222892857Y-94452380D01*
X223178571Y-94452380D02*
X223178571Y-93452380D01*
X223083333Y-93595238D01*
X222988095Y-93690476D01*
X222892857Y-93738095D01*
%TO.C,R12*%
X168552380Y-206142857D02*
X168076190Y-206476190D01*
X168552380Y-206714285D02*
X167552380Y-206714285D01*
X167552380Y-206333333D01*
X167600000Y-206238095D01*
X167647619Y-206190476D01*
X167742857Y-206142857D01*
X167885714Y-206142857D01*
X167980952Y-206190476D01*
X168028571Y-206238095D01*
X168076190Y-206333333D01*
X168076190Y-206714285D01*
X168552380Y-205190476D02*
X168552380Y-205761904D01*
X168552380Y-205476190D02*
X167552380Y-205476190D01*
X167695238Y-205571428D01*
X167790476Y-205666666D01*
X167838095Y-205761904D01*
X167647619Y-204809523D02*
X167600000Y-204761904D01*
X167552380Y-204666666D01*
X167552380Y-204428571D01*
X167600000Y-204333333D01*
X167647619Y-204285714D01*
X167742857Y-204238095D01*
X167838095Y-204238095D01*
X167980952Y-204285714D01*
X168552380Y-204857142D01*
X168552380Y-204238095D01*
%TO.C,R3*%
X200702380Y-205666666D02*
X200226190Y-206000000D01*
X200702380Y-206238095D02*
X199702380Y-206238095D01*
X199702380Y-205857142D01*
X199750000Y-205761904D01*
X199797619Y-205714285D01*
X199892857Y-205666666D01*
X200035714Y-205666666D01*
X200130952Y-205714285D01*
X200178571Y-205761904D01*
X200226190Y-205857142D01*
X200226190Y-206238095D01*
X199702380Y-205333333D02*
X199702380Y-204714285D01*
X200083333Y-205047619D01*
X200083333Y-204904761D01*
X200130952Y-204809523D01*
X200178571Y-204761904D01*
X200273809Y-204714285D01*
X200511904Y-204714285D01*
X200607142Y-204761904D01*
X200654761Y-204809523D01*
X200702380Y-204904761D01*
X200702380Y-205190476D01*
X200654761Y-205285714D01*
X200607142Y-205333333D01*
%TO.C,F3*%
X212078571Y-126583333D02*
X212078571Y-126916666D01*
X212602380Y-126916666D02*
X211602380Y-126916666D01*
X211602380Y-126440476D01*
X211602380Y-126154761D02*
X211602380Y-125535714D01*
X211983333Y-125869047D01*
X211983333Y-125726190D01*
X212030952Y-125630952D01*
X212078571Y-125583333D01*
X212173809Y-125535714D01*
X212411904Y-125535714D01*
X212507142Y-125583333D01*
X212554761Y-125630952D01*
X212602380Y-125726190D01*
X212602380Y-126011904D01*
X212554761Y-126107142D01*
X212507142Y-126154761D01*
%TO.C,F2*%
X201166666Y-155498571D02*
X200833333Y-155498571D01*
X200833333Y-156022380D02*
X200833333Y-155022380D01*
X201309523Y-155022380D01*
X201642857Y-155117619D02*
X201690476Y-155070000D01*
X201785714Y-155022380D01*
X202023809Y-155022380D01*
X202119047Y-155070000D01*
X202166666Y-155117619D01*
X202214285Y-155212857D01*
X202214285Y-155308095D01*
X202166666Y-155450952D01*
X201595238Y-156022380D01*
X202214285Y-156022380D01*
%TO.C,FID1*%
X160928571Y-85071428D02*
X160928571Y-85404761D01*
X161452380Y-85404761D02*
X160452380Y-85404761D01*
X160452380Y-84928571D01*
X161452380Y-84547619D02*
X160452380Y-84547619D01*
X161452380Y-84071428D02*
X160452380Y-84071428D01*
X160452380Y-83833333D01*
X160500000Y-83690476D01*
X160595238Y-83595238D01*
X160690476Y-83547619D01*
X160880952Y-83500000D01*
X161023809Y-83500000D01*
X161214285Y-83547619D01*
X161309523Y-83595238D01*
X161404761Y-83690476D01*
X161452380Y-83833333D01*
X161452380Y-84071428D01*
X161452380Y-82547619D02*
X161452380Y-83119047D01*
X161452380Y-82833333D02*
X160452380Y-82833333D01*
X160595238Y-82928571D01*
X160690476Y-83023809D01*
X160738095Y-83119047D01*
%TO.C,D6*%
X185802380Y-209925595D02*
X184802380Y-209925595D01*
X184802380Y-209687500D01*
X184850000Y-209544642D01*
X184945238Y-209449404D01*
X185040476Y-209401785D01*
X185230952Y-209354166D01*
X185373809Y-209354166D01*
X185564285Y-209401785D01*
X185659523Y-209449404D01*
X185754761Y-209544642D01*
X185802380Y-209687500D01*
X185802380Y-209925595D01*
X184802380Y-208497023D02*
X184802380Y-208687500D01*
X184850000Y-208782738D01*
X184897619Y-208830357D01*
X185040476Y-208925595D01*
X185230952Y-208973214D01*
X185611904Y-208973214D01*
X185707142Y-208925595D01*
X185754761Y-208877976D01*
X185802380Y-208782738D01*
X185802380Y-208592261D01*
X185754761Y-208497023D01*
X185707142Y-208449404D01*
X185611904Y-208401785D01*
X185373809Y-208401785D01*
X185278571Y-208449404D01*
X185230952Y-208497023D01*
X185183333Y-208592261D01*
X185183333Y-208782738D01*
X185230952Y-208877976D01*
X185278571Y-208925595D01*
X185373809Y-208973214D01*
%TO.C,C2*%
X178083333Y-153357142D02*
X178035714Y-153404761D01*
X177892857Y-153452380D01*
X177797619Y-153452380D01*
X177654761Y-153404761D01*
X177559523Y-153309523D01*
X177511904Y-153214285D01*
X177464285Y-153023809D01*
X177464285Y-152880952D01*
X177511904Y-152690476D01*
X177559523Y-152595238D01*
X177654761Y-152500000D01*
X177797619Y-152452380D01*
X177892857Y-152452380D01*
X178035714Y-152500000D01*
X178083333Y-152547619D01*
X178464285Y-152547619D02*
X178511904Y-152500000D01*
X178607142Y-152452380D01*
X178845238Y-152452380D01*
X178940476Y-152500000D01*
X178988095Y-152547619D01*
X179035714Y-152642857D01*
X179035714Y-152738095D01*
X178988095Y-152880952D01*
X178416666Y-153452380D01*
X179035714Y-153452380D01*
%TO.C,R9*%
X180702380Y-205666666D02*
X180226190Y-206000000D01*
X180702380Y-206238095D02*
X179702380Y-206238095D01*
X179702380Y-205857142D01*
X179750000Y-205761904D01*
X179797619Y-205714285D01*
X179892857Y-205666666D01*
X180035714Y-205666666D01*
X180130952Y-205714285D01*
X180178571Y-205761904D01*
X180226190Y-205857142D01*
X180226190Y-206238095D01*
X180702380Y-205190476D02*
X180702380Y-205000000D01*
X180654761Y-204904761D01*
X180607142Y-204857142D01*
X180464285Y-204761904D01*
X180273809Y-204714285D01*
X179892857Y-204714285D01*
X179797619Y-204761904D01*
X179750000Y-204809523D01*
X179702380Y-204904761D01*
X179702380Y-205095238D01*
X179750000Y-205190476D01*
X179797619Y-205238095D01*
X179892857Y-205285714D01*
X180130952Y-205285714D01*
X180226190Y-205238095D01*
X180273809Y-205190476D01*
X180321428Y-205095238D01*
X180321428Y-204904761D01*
X180273809Y-204809523D01*
X180226190Y-204761904D01*
X180130952Y-204714285D01*
%TO.C,U1*%
X194420595Y-159979880D02*
X194420595Y-160789404D01*
X194468214Y-160884642D01*
X194515833Y-160932261D01*
X194611071Y-160979880D01*
X194801547Y-160979880D01*
X194896785Y-160932261D01*
X194944404Y-160884642D01*
X194992023Y-160789404D01*
X194992023Y-159979880D01*
X195992023Y-160979880D02*
X195420595Y-160979880D01*
X195706309Y-160979880D02*
X195706309Y-159979880D01*
X195611071Y-160122738D01*
X195515833Y-160217976D01*
X195420595Y-160265595D01*
%TO.C,C4*%
X193357142Y-91416666D02*
X193404761Y-91464285D01*
X193452380Y-91607142D01*
X193452380Y-91702380D01*
X193404761Y-91845238D01*
X193309523Y-91940476D01*
X193214285Y-91988095D01*
X193023809Y-92035714D01*
X192880952Y-92035714D01*
X192690476Y-91988095D01*
X192595238Y-91940476D01*
X192500000Y-91845238D01*
X192452380Y-91702380D01*
X192452380Y-91607142D01*
X192500000Y-91464285D01*
X192547619Y-91416666D01*
X192785714Y-90559523D02*
X193452380Y-90559523D01*
X192404761Y-90797619D02*
X193119047Y-91035714D01*
X193119047Y-90416666D01*
%TO.C,C6*%
X210783333Y-161677142D02*
X210735714Y-161724761D01*
X210592857Y-161772380D01*
X210497619Y-161772380D01*
X210354761Y-161724761D01*
X210259523Y-161629523D01*
X210211904Y-161534285D01*
X210164285Y-161343809D01*
X210164285Y-161200952D01*
X210211904Y-161010476D01*
X210259523Y-160915238D01*
X210354761Y-160820000D01*
X210497619Y-160772380D01*
X210592857Y-160772380D01*
X210735714Y-160820000D01*
X210783333Y-160867619D01*
X211640476Y-160772380D02*
X211450000Y-160772380D01*
X211354761Y-160820000D01*
X211307142Y-160867619D01*
X211211904Y-161010476D01*
X211164285Y-161200952D01*
X211164285Y-161581904D01*
X211211904Y-161677142D01*
X211259523Y-161724761D01*
X211354761Y-161772380D01*
X211545238Y-161772380D01*
X211640476Y-161724761D01*
X211688095Y-161677142D01*
X211735714Y-161581904D01*
X211735714Y-161343809D01*
X211688095Y-161248571D01*
X211640476Y-161200952D01*
X211545238Y-161153333D01*
X211354761Y-161153333D01*
X211259523Y-161200952D01*
X211211904Y-161248571D01*
X211164285Y-161343809D01*
%TO.C,D9*%
X190802380Y-209988095D02*
X189802380Y-209988095D01*
X189802380Y-209750000D01*
X189850000Y-209607142D01*
X189945238Y-209511904D01*
X190040476Y-209464285D01*
X190230952Y-209416666D01*
X190373809Y-209416666D01*
X190564285Y-209464285D01*
X190659523Y-209511904D01*
X190754761Y-209607142D01*
X190802380Y-209750000D01*
X190802380Y-209988095D01*
X190802380Y-208940476D02*
X190802380Y-208750000D01*
X190754761Y-208654761D01*
X190707142Y-208607142D01*
X190564285Y-208511904D01*
X190373809Y-208464285D01*
X189992857Y-208464285D01*
X189897619Y-208511904D01*
X189850000Y-208559523D01*
X189802380Y-208654761D01*
X189802380Y-208845238D01*
X189850000Y-208940476D01*
X189897619Y-208988095D01*
X189992857Y-209035714D01*
X190230952Y-209035714D01*
X190326190Y-208988095D01*
X190373809Y-208940476D01*
X190421428Y-208845238D01*
X190421428Y-208654761D01*
X190373809Y-208559523D01*
X190326190Y-208511904D01*
X190230952Y-208464285D01*
%TO.C,R11*%
X174052380Y-206055357D02*
X173576190Y-206388690D01*
X174052380Y-206626785D02*
X173052380Y-206626785D01*
X173052380Y-206245833D01*
X173100000Y-206150595D01*
X173147619Y-206102976D01*
X173242857Y-206055357D01*
X173385714Y-206055357D01*
X173480952Y-206102976D01*
X173528571Y-206150595D01*
X173576190Y-206245833D01*
X173576190Y-206626785D01*
X174052380Y-205102976D02*
X174052380Y-205674404D01*
X174052380Y-205388690D02*
X173052380Y-205388690D01*
X173195238Y-205483928D01*
X173290476Y-205579166D01*
X173338095Y-205674404D01*
X174052380Y-204150595D02*
X174052380Y-204722023D01*
X174052380Y-204436309D02*
X173052380Y-204436309D01*
X173195238Y-204531547D01*
X173290476Y-204626785D01*
X173338095Y-204722023D01*
%TO.C,U2*%
X202938095Y-137837380D02*
X202938095Y-138646904D01*
X202985714Y-138742142D01*
X203033333Y-138789761D01*
X203128571Y-138837380D01*
X203319047Y-138837380D01*
X203414285Y-138789761D01*
X203461904Y-138742142D01*
X203509523Y-138646904D01*
X203509523Y-137837380D01*
X203938095Y-137932619D02*
X203985714Y-137885000D01*
X204080952Y-137837380D01*
X204319047Y-137837380D01*
X204414285Y-137885000D01*
X204461904Y-137932619D01*
X204509523Y-138027857D01*
X204509523Y-138123095D01*
X204461904Y-138265952D01*
X203890476Y-138837380D01*
X204509523Y-138837380D01*
%TO.C,J3*%
X222166666Y-89202380D02*
X222166666Y-89916666D01*
X222119047Y-90059523D01*
X222023809Y-90154761D01*
X221880952Y-90202380D01*
X221785714Y-90202380D01*
X222547619Y-89202380D02*
X223166666Y-89202380D01*
X222833333Y-89583333D01*
X222976190Y-89583333D01*
X223071428Y-89630952D01*
X223119047Y-89678571D01*
X223166666Y-89773809D01*
X223166666Y-90011904D01*
X223119047Y-90107142D01*
X223071428Y-90154761D01*
X222976190Y-90202380D01*
X222690476Y-90202380D01*
X222595238Y-90154761D01*
X222547619Y-90107142D01*
%TO.C,R10*%
X185702380Y-206142857D02*
X185226190Y-206476190D01*
X185702380Y-206714285D02*
X184702380Y-206714285D01*
X184702380Y-206333333D01*
X184750000Y-206238095D01*
X184797619Y-206190476D01*
X184892857Y-206142857D01*
X185035714Y-206142857D01*
X185130952Y-206190476D01*
X185178571Y-206238095D01*
X185226190Y-206333333D01*
X185226190Y-206714285D01*
X185702380Y-205190476D02*
X185702380Y-205761904D01*
X185702380Y-205476190D02*
X184702380Y-205476190D01*
X184845238Y-205571428D01*
X184940476Y-205666666D01*
X184988095Y-205761904D01*
X184702380Y-204571428D02*
X184702380Y-204476190D01*
X184750000Y-204380952D01*
X184797619Y-204333333D01*
X184892857Y-204285714D01*
X185083333Y-204238095D01*
X185321428Y-204238095D01*
X185511904Y-204285714D01*
X185607142Y-204333333D01*
X185654761Y-204380952D01*
X185702380Y-204476190D01*
X185702380Y-204571428D01*
X185654761Y-204666666D01*
X185607142Y-204714285D01*
X185511904Y-204761904D01*
X185321428Y-204809523D01*
X185083333Y-204809523D01*
X184892857Y-204761904D01*
X184797619Y-204714285D01*
X184750000Y-204666666D01*
X184702380Y-204571428D01*
%TO.C,R13*%
X190952380Y-206142857D02*
X190476190Y-206476190D01*
X190952380Y-206714285D02*
X189952380Y-206714285D01*
X189952380Y-206333333D01*
X190000000Y-206238095D01*
X190047619Y-206190476D01*
X190142857Y-206142857D01*
X190285714Y-206142857D01*
X190380952Y-206190476D01*
X190428571Y-206238095D01*
X190476190Y-206333333D01*
X190476190Y-206714285D01*
X190952380Y-205190476D02*
X190952380Y-205761904D01*
X190952380Y-205476190D02*
X189952380Y-205476190D01*
X190095238Y-205571428D01*
X190190476Y-205666666D01*
X190238095Y-205761904D01*
X189952380Y-204857142D02*
X189952380Y-204238095D01*
X190333333Y-204571428D01*
X190333333Y-204428571D01*
X190380952Y-204333333D01*
X190428571Y-204285714D01*
X190523809Y-204238095D01*
X190761904Y-204238095D01*
X190857142Y-204285714D01*
X190904761Y-204333333D01*
X190952380Y-204428571D01*
X190952380Y-204714285D01*
X190904761Y-204809523D01*
X190857142Y-204857142D01*
%TO.C,C1*%
X205007142Y-100916666D02*
X205054761Y-100964285D01*
X205102380Y-101107142D01*
X205102380Y-101202380D01*
X205054761Y-101345238D01*
X204959523Y-101440476D01*
X204864285Y-101488095D01*
X204673809Y-101535714D01*
X204530952Y-101535714D01*
X204340476Y-101488095D01*
X204245238Y-101440476D01*
X204150000Y-101345238D01*
X204102380Y-101202380D01*
X204102380Y-101107142D01*
X204150000Y-100964285D01*
X204197619Y-100916666D01*
X205102380Y-99964285D02*
X205102380Y-100535714D01*
X205102380Y-100250000D02*
X204102380Y-100250000D01*
X204245238Y-100345238D01*
X204340476Y-100440476D01*
X204388095Y-100535714D01*
%TO.C,D8*%
X168452380Y-209988095D02*
X167452380Y-209988095D01*
X167452380Y-209750000D01*
X167500000Y-209607142D01*
X167595238Y-209511904D01*
X167690476Y-209464285D01*
X167880952Y-209416666D01*
X168023809Y-209416666D01*
X168214285Y-209464285D01*
X168309523Y-209511904D01*
X168404761Y-209607142D01*
X168452380Y-209750000D01*
X168452380Y-209988095D01*
X167880952Y-208845238D02*
X167833333Y-208940476D01*
X167785714Y-208988095D01*
X167690476Y-209035714D01*
X167642857Y-209035714D01*
X167547619Y-208988095D01*
X167500000Y-208940476D01*
X167452380Y-208845238D01*
X167452380Y-208654761D01*
X167500000Y-208559523D01*
X167547619Y-208511904D01*
X167642857Y-208464285D01*
X167690476Y-208464285D01*
X167785714Y-208511904D01*
X167833333Y-208559523D01*
X167880952Y-208654761D01*
X167880952Y-208845238D01*
X167928571Y-208940476D01*
X167976190Y-208988095D01*
X168071428Y-209035714D01*
X168261904Y-209035714D01*
X168357142Y-208988095D01*
X168404761Y-208940476D01*
X168452380Y-208845238D01*
X168452380Y-208654761D01*
X168404761Y-208559523D01*
X168357142Y-208511904D01*
X168261904Y-208464285D01*
X168071428Y-208464285D01*
X167976190Y-208511904D01*
X167928571Y-208559523D01*
X167880952Y-208654761D01*
%TO.C,R7*%
X195702380Y-205666666D02*
X195226190Y-206000000D01*
X195702380Y-206238095D02*
X194702380Y-206238095D01*
X194702380Y-205857142D01*
X194750000Y-205761904D01*
X194797619Y-205714285D01*
X194892857Y-205666666D01*
X195035714Y-205666666D01*
X195130952Y-205714285D01*
X195178571Y-205761904D01*
X195226190Y-205857142D01*
X195226190Y-206238095D01*
X194702380Y-205333333D02*
X194702380Y-204666666D01*
X195702380Y-205095238D01*
%TO.C,D1*%
X220361904Y-103452380D02*
X220361904Y-102452380D01*
X220600000Y-102452380D01*
X220742857Y-102500000D01*
X220838095Y-102595238D01*
X220885714Y-102690476D01*
X220933333Y-102880952D01*
X220933333Y-103023809D01*
X220885714Y-103214285D01*
X220838095Y-103309523D01*
X220742857Y-103404761D01*
X220600000Y-103452380D01*
X220361904Y-103452380D01*
X221885714Y-103452380D02*
X221314285Y-103452380D01*
X221600000Y-103452380D02*
X221600000Y-102452380D01*
X221504761Y-102595238D01*
X221409523Y-102690476D01*
X221314285Y-102738095D01*
%TO.C,R8*%
X195702380Y-201689602D02*
X195226190Y-202022936D01*
X195702380Y-202261031D02*
X194702380Y-202261031D01*
X194702380Y-201880078D01*
X194750000Y-201784840D01*
X194797619Y-201737221D01*
X194892857Y-201689602D01*
X195035714Y-201689602D01*
X195130952Y-201737221D01*
X195178571Y-201784840D01*
X195226190Y-201880078D01*
X195226190Y-202261031D01*
X195130952Y-201118174D02*
X195083333Y-201213412D01*
X195035714Y-201261031D01*
X194940476Y-201308650D01*
X194892857Y-201308650D01*
X194797619Y-201261031D01*
X194750000Y-201213412D01*
X194702380Y-201118174D01*
X194702380Y-200927697D01*
X194750000Y-200832459D01*
X194797619Y-200784840D01*
X194892857Y-200737221D01*
X194940476Y-200737221D01*
X195035714Y-200784840D01*
X195083333Y-200832459D01*
X195130952Y-200927697D01*
X195130952Y-201118174D01*
X195178571Y-201213412D01*
X195226190Y-201261031D01*
X195321428Y-201308650D01*
X195511904Y-201308650D01*
X195607142Y-201261031D01*
X195654761Y-201213412D01*
X195702380Y-201118174D01*
X195702380Y-200927697D01*
X195654761Y-200832459D01*
X195607142Y-200784840D01*
X195511904Y-200737221D01*
X195321428Y-200737221D01*
X195226190Y-200784840D01*
X195178571Y-200832459D01*
X195130952Y-200927697D01*
%TO.C,D7*%
X173952380Y-209988095D02*
X172952380Y-209988095D01*
X172952380Y-209750000D01*
X173000000Y-209607142D01*
X173095238Y-209511904D01*
X173190476Y-209464285D01*
X173380952Y-209416666D01*
X173523809Y-209416666D01*
X173714285Y-209464285D01*
X173809523Y-209511904D01*
X173904761Y-209607142D01*
X173952380Y-209750000D01*
X173952380Y-209988095D01*
X172952380Y-209083333D02*
X172952380Y-208416666D01*
X173952380Y-208845238D01*
%TO.C,FID2*%
X162678571Y-212428571D02*
X162345238Y-212428571D01*
X162345238Y-212952380D02*
X162345238Y-211952380D01*
X162821428Y-211952380D01*
X163202380Y-212952380D02*
X163202380Y-211952380D01*
X163678571Y-212952380D02*
X163678571Y-211952380D01*
X163916666Y-211952380D01*
X164059523Y-212000000D01*
X164154761Y-212095238D01*
X164202380Y-212190476D01*
X164250000Y-212380952D01*
X164250000Y-212523809D01*
X164202380Y-212714285D01*
X164154761Y-212809523D01*
X164059523Y-212904761D01*
X163916666Y-212952380D01*
X163678571Y-212952380D01*
X164630952Y-212047619D02*
X164678571Y-212000000D01*
X164773809Y-211952380D01*
X165011904Y-211952380D01*
X165107142Y-212000000D01*
X165154761Y-212047619D01*
X165202380Y-212142857D01*
X165202380Y-212238095D01*
X165154761Y-212380952D01*
X164583333Y-212952380D01*
X165202380Y-212952380D01*
%TO.C,R5*%
X210783333Y-167602380D02*
X210450000Y-167126190D01*
X210211904Y-167602380D02*
X210211904Y-166602380D01*
X210592857Y-166602380D01*
X210688095Y-166650000D01*
X210735714Y-166697619D01*
X210783333Y-166792857D01*
X210783333Y-166935714D01*
X210735714Y-167030952D01*
X210688095Y-167078571D01*
X210592857Y-167126190D01*
X210211904Y-167126190D01*
X211688095Y-166602380D02*
X211211904Y-166602380D01*
X211164285Y-167078571D01*
X211211904Y-167030952D01*
X211307142Y-166983333D01*
X211545238Y-166983333D01*
X211640476Y-167030952D01*
X211688095Y-167078571D01*
X211735714Y-167173809D01*
X211735714Y-167411904D01*
X211688095Y-167507142D01*
X211640476Y-167554761D01*
X211545238Y-167602380D01*
X211307142Y-167602380D01*
X211211904Y-167554761D01*
X211164285Y-167507142D01*
%TO.C,R1*%
X216083333Y-167702380D02*
X215750000Y-167226190D01*
X215511904Y-167702380D02*
X215511904Y-166702380D01*
X215892857Y-166702380D01*
X215988095Y-166750000D01*
X216035714Y-166797619D01*
X216083333Y-166892857D01*
X216083333Y-167035714D01*
X216035714Y-167130952D01*
X215988095Y-167178571D01*
X215892857Y-167226190D01*
X215511904Y-167226190D01*
X217035714Y-167702380D02*
X216464285Y-167702380D01*
X216750000Y-167702380D02*
X216750000Y-166702380D01*
X216654761Y-166845238D01*
X216559523Y-166940476D01*
X216464285Y-166988095D01*
%TO.C,J1*%
X224916666Y-96202380D02*
X224916666Y-96916666D01*
X224869047Y-97059523D01*
X224773809Y-97154761D01*
X224630952Y-97202380D01*
X224535714Y-97202380D01*
X225916666Y-97202380D02*
X225345238Y-97202380D01*
X225630952Y-97202380D02*
X225630952Y-96202380D01*
X225535714Y-96345238D01*
X225440476Y-96440476D01*
X225345238Y-96488095D01*
%TO.C,R2*%
X204102380Y-195254166D02*
X203626190Y-195587500D01*
X204102380Y-195825595D02*
X203102380Y-195825595D01*
X203102380Y-195444642D01*
X203150000Y-195349404D01*
X203197619Y-195301785D01*
X203292857Y-195254166D01*
X203435714Y-195254166D01*
X203530952Y-195301785D01*
X203578571Y-195349404D01*
X203626190Y-195444642D01*
X203626190Y-195825595D01*
X203197619Y-194873214D02*
X203150000Y-194825595D01*
X203102380Y-194730357D01*
X203102380Y-194492261D01*
X203150000Y-194397023D01*
X203197619Y-194349404D01*
X203292857Y-194301785D01*
X203388095Y-194301785D01*
X203530952Y-194349404D01*
X204102380Y-194920833D01*
X204102380Y-194301785D01*
%TO.C,FID3*%
X228428571Y-210571428D02*
X228428571Y-210904761D01*
X228952380Y-210904761D02*
X227952380Y-210904761D01*
X227952380Y-210428571D01*
X228952380Y-210047619D02*
X227952380Y-210047619D01*
X228952380Y-209571428D02*
X227952380Y-209571428D01*
X227952380Y-209333333D01*
X228000000Y-209190476D01*
X228095238Y-209095238D01*
X228190476Y-209047619D01*
X228380952Y-209000000D01*
X228523809Y-209000000D01*
X228714285Y-209047619D01*
X228809523Y-209095238D01*
X228904761Y-209190476D01*
X228952380Y-209333333D01*
X228952380Y-209571428D01*
X227952380Y-208666666D02*
X227952380Y-208047619D01*
X228333333Y-208380952D01*
X228333333Y-208238095D01*
X228380952Y-208142857D01*
X228428571Y-208095238D01*
X228523809Y-208047619D01*
X228761904Y-208047619D01*
X228857142Y-208095238D01*
X228904761Y-208142857D01*
X228952380Y-208238095D01*
X228952380Y-208523809D01*
X228904761Y-208619047D01*
X228857142Y-208666666D01*
%TO.C,D4*%
X195802380Y-209988095D02*
X194802380Y-209988095D01*
X194802380Y-209750000D01*
X194850000Y-209607142D01*
X194945238Y-209511904D01*
X195040476Y-209464285D01*
X195230952Y-209416666D01*
X195373809Y-209416666D01*
X195564285Y-209464285D01*
X195659523Y-209511904D01*
X195754761Y-209607142D01*
X195802380Y-209750000D01*
X195802380Y-209988095D01*
X195135714Y-208559523D02*
X195802380Y-208559523D01*
X194754761Y-208797619D02*
X195469047Y-209035714D01*
X195469047Y-208416666D01*
%TO.C,D2*%
X215161904Y-103552380D02*
X215161904Y-102552380D01*
X215400000Y-102552380D01*
X215542857Y-102600000D01*
X215638095Y-102695238D01*
X215685714Y-102790476D01*
X215733333Y-102980952D01*
X215733333Y-103123809D01*
X215685714Y-103314285D01*
X215638095Y-103409523D01*
X215542857Y-103504761D01*
X215400000Y-103552380D01*
X215161904Y-103552380D01*
X216114285Y-102647619D02*
X216161904Y-102600000D01*
X216257142Y-102552380D01*
X216495238Y-102552380D01*
X216590476Y-102600000D01*
X216638095Y-102647619D01*
X216685714Y-102742857D01*
X216685714Y-102838095D01*
X216638095Y-102980952D01*
X216066666Y-103552380D01*
X216685714Y-103552380D01*
%TO.C,U3*%
X199952380Y-193261904D02*
X200761904Y-193261904D01*
X200857142Y-193214285D01*
X200904761Y-193166666D01*
X200952380Y-193071428D01*
X200952380Y-192880952D01*
X200904761Y-192785714D01*
X200857142Y-192738095D01*
X200761904Y-192690476D01*
X199952380Y-192690476D01*
X199952380Y-192309523D02*
X199952380Y-191690476D01*
X200333333Y-192023809D01*
X200333333Y-191880952D01*
X200380952Y-191785714D01*
X200428571Y-191738095D01*
X200523809Y-191690476D01*
X200761904Y-191690476D01*
X200857142Y-191738095D01*
X200904761Y-191785714D01*
X200952380Y-191880952D01*
X200952380Y-192166666D01*
X200904761Y-192261904D01*
X200857142Y-192309523D01*
D13*
%TO.C,C5*%
X216511252Y-162265000D02*
X215988748Y-162265000D01*
X216511252Y-163735000D02*
X215988748Y-163735000D01*
%TO.C,J2*%
X166870000Y-97970000D02*
X166870000Y-108250000D01*
X164270000Y-97970000D02*
X166870000Y-97970000D01*
X161670000Y-99300000D02*
X161670000Y-97970000D01*
X161670000Y-108250000D02*
X166870000Y-108250000D01*
X161670000Y-97970000D02*
X163000000Y-97970000D01*
X161670000Y-100570000D02*
X164270000Y-100570000D01*
X161670000Y-100570000D02*
X161670000Y-108250000D01*
X164270000Y-100570000D02*
X164270000Y-97970000D01*
%TO.C,U4*%
X198595000Y-183765000D02*
X193395000Y-183765000D01*
X198595000Y-188265000D02*
X198595000Y-183765000D01*
X193395000Y-183765000D02*
X193395000Y-185015000D01*
X193395000Y-188265000D02*
X198595000Y-188265000D01*
X193395000Y-187015000D02*
X193395000Y-188265000D01*
X193395000Y-187015000D02*
G75*
G03*
X193395000Y-185015000I0J1000000D01*
G01*
%TO.C,D5*%
X182960000Y-210935000D02*
X182960000Y-208250000D01*
X181040000Y-208250000D02*
X181040000Y-210935000D01*
X181040000Y-210935000D02*
X182960000Y-210935000D01*
%TO.C,D3*%
X202960000Y-210250000D02*
X202960000Y-207565000D01*
X202960000Y-207565000D02*
X201040000Y-207565000D01*
X201040000Y-207565000D02*
X201040000Y-210250000D01*
%TO.C,R6*%
X196265000Y-194860436D02*
X196265000Y-195314564D01*
X197735000Y-194860436D02*
X197735000Y-195314564D01*
%TO.C,R4*%
X202735000Y-201522936D02*
X202735000Y-201977064D01*
X201265000Y-201522936D02*
X201265000Y-201977064D01*
%TO.C,C3*%
X197240000Y-88490000D02*
X197240000Y-90190000D01*
X203312500Y-93247500D02*
X203312500Y-92622500D01*
X202760000Y-89554437D02*
X201695563Y-88490000D01*
X197240000Y-94010000D02*
X197240000Y-92310000D01*
X202760000Y-92945563D02*
X201695563Y-94010000D01*
X202760000Y-89554437D02*
X202760000Y-90190000D01*
X201695563Y-88490000D02*
X197240000Y-88490000D01*
X201695563Y-94010000D02*
X197240000Y-94010000D01*
X202760000Y-92945563D02*
X202760000Y-92310000D01*
X203625000Y-92935000D02*
X203000000Y-92935000D01*
%TO.C,FB1*%
X207399622Y-154310000D02*
X206600378Y-154310000D01*
X207399622Y-153190000D02*
X206600378Y-153190000D01*
%TO.C,F1*%
X219453752Y-97670000D02*
X215046248Y-97670000D01*
X219453752Y-92330000D02*
X215046248Y-92330000D01*
%TO.C,R12*%
X170485000Y-205727064D02*
X170485000Y-205272936D01*
X169015000Y-205727064D02*
X169015000Y-205272936D01*
%TO.C,R3*%
X201265000Y-205272936D02*
X201265000Y-205727064D01*
X202735000Y-205272936D02*
X202735000Y-205727064D01*
%TO.C,F3*%
X211210000Y-124863748D02*
X211210000Y-127636252D01*
X207790000Y-124863748D02*
X207790000Y-127636252D01*
%TO.C,F2*%
X202102064Y-154660000D02*
X200897936Y-154660000D01*
X202102064Y-152840000D02*
X200897936Y-152840000D01*
%TO.C,D6*%
X186040000Y-208187500D02*
X186040000Y-210872500D01*
X187960000Y-210872500D02*
X187960000Y-208187500D01*
X186040000Y-210872500D02*
X187960000Y-210872500D01*
%TO.C,C2*%
X178804437Y-153990000D02*
X177740000Y-155054437D01*
X182195563Y-153990000D02*
X181560000Y-153990000D01*
X177740000Y-159510000D02*
X179440000Y-159510000D01*
X177740000Y-155054437D02*
X177740000Y-159510000D01*
X183260000Y-155054437D02*
X183260000Y-159510000D01*
X182185000Y-153125000D02*
X182185000Y-153750000D01*
X182497500Y-153437500D02*
X181872500Y-153437500D01*
X183260000Y-159510000D02*
X181560000Y-159510000D01*
X182195563Y-153990000D02*
X183260000Y-155054437D01*
X178804437Y-153990000D02*
X179440000Y-153990000D01*
%TO.C,R9*%
X182735000Y-205272936D02*
X182735000Y-205727064D01*
X181265000Y-205272936D02*
X181265000Y-205727064D01*
%TO.C,U1*%
X197102500Y-151697500D02*
X197102500Y-159547500D01*
X197432500Y-151367500D02*
X195102500Y-151367500D01*
X185162500Y-151697500D02*
X197102500Y-151697500D01*
X197102500Y-159547500D02*
X185162500Y-159547500D01*
X185162500Y-159547500D02*
X185162500Y-151697500D01*
X197432500Y-153817500D02*
X197432500Y-151367500D01*
%TO.C,C4*%
X189695563Y-94010000D02*
X185240000Y-94010000D01*
X191625000Y-92935000D02*
X191000000Y-92935000D01*
X190760000Y-92945563D02*
X190760000Y-92310000D01*
X190760000Y-89554437D02*
X189695563Y-88490000D01*
X191312500Y-93247500D02*
X191312500Y-92622500D01*
X190760000Y-92945563D02*
X189695563Y-94010000D01*
X190760000Y-89554437D02*
X190760000Y-90190000D01*
X185240000Y-94010000D02*
X185240000Y-92310000D01*
X185240000Y-88490000D02*
X185240000Y-90190000D01*
X189695563Y-88490000D02*
X185240000Y-88490000D01*
%TO.C,C6*%
X210688748Y-163735000D02*
X211211252Y-163735000D01*
X210688748Y-162265000D02*
X211211252Y-162265000D01*
%TO.C,D9*%
X191040000Y-210935000D02*
X192960000Y-210935000D01*
X191040000Y-208250000D02*
X191040000Y-210935000D01*
X192960000Y-210935000D02*
X192960000Y-208250000D01*
%TO.C,R11*%
X174515000Y-205639564D02*
X174515000Y-205185436D01*
X175985000Y-205639564D02*
X175985000Y-205185436D01*
%TO.C,U2*%
X205780000Y-137485000D02*
X180180000Y-137485000D01*
X180180000Y-107015000D02*
X205780000Y-107015000D01*
X206160000Y-134535000D02*
X206160000Y-130535000D01*
X180180000Y-137485000D02*
X180180000Y-107015000D01*
X205780000Y-107015000D02*
X205780000Y-137485000D01*
%TO.C,J3*%
X212635000Y-80322500D02*
X212635000Y-89742500D01*
X212635000Y-89742500D02*
X214145000Y-89742500D01*
X221255000Y-80322500D02*
X212635000Y-80322500D01*
X217645000Y-89742500D02*
X216245000Y-89742500D01*
X218695000Y-90432500D02*
X218995000Y-91032500D01*
X218995000Y-91032500D02*
X218395000Y-91032500D01*
X221255000Y-89742500D02*
X221255000Y-80322500D01*
X221255000Y-89742500D02*
X219745000Y-89742500D01*
X218395000Y-91032500D02*
X218695000Y-90432500D01*
X221255000Y-83632500D02*
X212635000Y-83632500D01*
%TO.C,R10*%
X187735000Y-205272936D02*
X187735000Y-205727064D01*
X186265000Y-205272936D02*
X186265000Y-205727064D01*
%TO.C,R13*%
X191265000Y-205272936D02*
X191265000Y-205727064D01*
X192735000Y-205272936D02*
X192735000Y-205727064D01*
%TO.C,C1*%
X211345563Y-104160000D02*
X212410000Y-103095563D01*
X205590000Y-103095563D02*
X205590000Y-97340000D01*
X206654437Y-104160000D02*
X207940000Y-104160000D01*
X207152500Y-105187500D02*
X207152500Y-104400000D01*
X211345563Y-104160000D02*
X210060000Y-104160000D01*
X212410000Y-97340000D02*
X210060000Y-97340000D01*
X206758750Y-104793750D02*
X207546250Y-104793750D01*
X212410000Y-103095563D02*
X212410000Y-97340000D01*
X205590000Y-97340000D02*
X207940000Y-97340000D01*
X206654437Y-104160000D02*
X205590000Y-103095563D01*
%TO.C,D8*%
X170710000Y-210250000D02*
X170710000Y-207565000D01*
X168790000Y-207565000D02*
X168790000Y-210250000D01*
X170710000Y-207565000D02*
X168790000Y-207565000D01*
%TO.C,R7*%
X197735000Y-205272936D02*
X197735000Y-205727064D01*
X196265000Y-205272936D02*
X196265000Y-205727064D01*
%TO.C,D1*%
X215200000Y-102050000D02*
X220600000Y-102050000D01*
X215200000Y-98750000D02*
X215200000Y-102050000D01*
X215200000Y-98750000D02*
X220600000Y-98750000D01*
%TO.C,R8*%
X196265000Y-201522936D02*
X196265000Y-201977064D01*
X197735000Y-201522936D02*
X197735000Y-201977064D01*
%TO.C,D7*%
X174290000Y-207565000D02*
X174290000Y-210250000D01*
X176210000Y-207565000D02*
X174290000Y-207565000D01*
X176210000Y-210250000D02*
X176210000Y-207565000D01*
%TO.C,R5*%
X211177064Y-164765000D02*
X210722936Y-164765000D01*
X211177064Y-166235000D02*
X210722936Y-166235000D01*
%TO.C,R1*%
X216022936Y-166235000D02*
X216477064Y-166235000D01*
X216022936Y-164765000D02*
X216477064Y-164765000D01*
%TO.C,J1*%
X222670000Y-97970000D02*
X224000000Y-97970000D01*
X222670000Y-100570000D02*
X225270000Y-100570000D01*
X227870000Y-97970000D02*
X227870000Y-108250000D01*
X222670000Y-108250000D02*
X227870000Y-108250000D01*
X225270000Y-97970000D02*
X227870000Y-97970000D01*
X222670000Y-99300000D02*
X222670000Y-97970000D01*
X222670000Y-100570000D02*
X222670000Y-108250000D01*
X225270000Y-100570000D02*
X225270000Y-97970000D01*
%TO.C,R2*%
X202735000Y-194860436D02*
X202735000Y-195314564D01*
X201265000Y-194860436D02*
X201265000Y-195314564D01*
%TO.C,D4*%
X196040000Y-210935000D02*
X197960000Y-210935000D01*
X197960000Y-210935000D02*
X197960000Y-208250000D01*
X196040000Y-208250000D02*
X196040000Y-210935000D01*
%TO.C,D2*%
X214750000Y-103250000D02*
X214750000Y-100700000D01*
X213050000Y-103250000D02*
X213050000Y-100700000D01*
X213050000Y-103250000D02*
X214750000Y-103250000D01*
%TO.C,U3*%
X200645000Y-188265000D02*
X205845000Y-188265000D01*
X200645000Y-187015000D02*
X200645000Y-188265000D01*
X205845000Y-183765000D02*
X200645000Y-183765000D01*
X205845000Y-188265000D02*
X205845000Y-183765000D01*
X200645000Y-183765000D02*
X200645000Y-185015000D01*
X200645000Y-187015000D02*
G75*
G03*
X200645000Y-185015000I0J1000000D01*
G01*
%TD*%
M02*
